<svg xmlns="http://www.w3.org/2000/svg" xmlns:xlink="http://www.w3.org/1999/xlink" width="1920" zoomAndPan="magnify" viewBox="0 0 1440 809.999993" height="1080" preserveAspectRatio="xMidYMid meet" version="1.0"><defs><clipPath id="7c94ccdcfc"><path d="M 701.523438 93.769531 L 738.273438 93.769531 L 738.273438 130.519531 L 701.523438 130.519531 Z M 701.523438 93.769531 " clip-rule="nonzero"/></clipPath><clipPath id="1fd1c4508e"><path d="M 720 93.769531 C 709.796875 93.769531 701.523438 102.039062 701.523438 112.242188 C 701.523438 122.445312 709.796875 130.71875 720 130.71875 C 730.203125 130.71875 738.472656 122.445312 738.472656 112.242188 C 738.472656 102.039062 730.203125 93.769531 720 93.769531 Z M 720 93.769531 " clip-rule="nonzero"/></clipPath></defs><path stroke-linecap="butt" transform="matrix(0, 0.75, -0.75, 0, 721.043106, 128.239672)" fill="none" stroke-linejoin="miter" d="M -0.00185426 2.500183 L 681.602347 2.500183 " stroke="#ffffff" stroke-width="5" stroke-opacity="1" stroke-miterlimit="4"/><g clip-path="url(#7c94ccdcfc)"><g clip-path="url(#1fd1c4508e)"><path stroke-linecap="butt" transform="matrix(0.75, 0, 0, 0.75, 701.523715, 93.767938)" fill="none" stroke-linejoin="miter" d="M 24.635048 0.00212369 C 11.030881 0.00212369 -0.000369906 11.028166 -0.000369906 24.632333 C -0.000369906 38.236501 11.030881 49.267751 24.635048 49.267751 C 38.239215 49.267751 49.265258 38.236501 49.265258 24.632333 C 49.265258 11.028166 38.239215 0.00212369 24.635048 0.00212369 Z M 24.635048 0.00212369 " stroke="#ffffff" stroke-width="10" stroke-opacity="1" stroke-miterlimit="4"/></g></g></svg>