<svg xmlns="http://www.w3.org/2000/svg" xmlns:xlink="http://www.w3.org/1999/xlink" width="2000" zoomAndPan="magnify" viewBox="0 0 1500 1499.999933" height="2000" preserveAspectRatio="xMidYMid meet" version="1.0"><defs><clipPath id="223c8dd760"><path d="M 245.285156 850.011719 L 1254.726562 850.011719 L 1254.726562 1323.210938 L 245.285156 1323.210938 Z M 245.285156 850.011719 " clip-rule="nonzero"/></clipPath><clipPath id="7093913681"><path d="M 586 176.460938 L 1185 176.460938 L 1185 813 L 586 813 Z M 586 176.460938 " clip-rule="nonzero"/></clipPath></defs><g clip-path="url(#223c8dd760)"><path fill="#d9d9d9" d="M 1238.152344 881.023438 C 1211.632812 847.203125 1162.542969 841.261719 1128.710938 867.785156 L 1039.84375 937.773438 C 1031.445312 944.355469 1029.988281 956.492188 1036.5625 964.886719 C 1043.144531 973.277344 1055.277344 974.746094 1063.667969 968.164062 L 1152.550781 898.171875 C 1169.605469 884.796875 1194.378906 887.792969 1207.761719 904.859375 C 1221.140625 921.914062 1218.144531 946.683594 1201.074219 960.0625 L 933.082031 1170.511719 C 930.109375 1172.847656 926.851562 1174.730469 923.40625 1176.105469 C 918.1875 1178.1875 912.484375 1179.113281 906.832031 1178.824219 L 628.714844 1121.945312 C 628.003906 1121.789062 627.28125 1121.65625 626.542969 1121.578125 C 606.304688 1119.457031 586.339844 1125.203125 570.316406 1137.769531 L 554.953125 1149.824219 L 438.097656 1000.800781 L 557.472656 906.683594 C 574.835938 893.066406 596.386719 886.902344 618.277344 889.207031 L 918.617188 960.59375 C 918.636719 960.601562 918.640625 960.601562 918.652344 960.601562 C 918.667969 960.605469 918.671875 960.609375 918.683594 960.613281 C 939.5 965.484375 952.789062 986.164062 948.3125 1006.71875 C 946.136719 1016.707031 940.117188 1025.253906 931.363281 1030.777344 C 922.511719 1036.363281 911.949219 1038.1875 901.597656 1035.9375 C 901.5 1035.921875 901.40625 1035.910156 901.308594 1035.886719 C 901.1875 1035.867188 901.089844 1035.832031 900.976562 1035.8125 L 754.925781 1008.917969 C 744.4375 1006.988281 734.367188 1013.917969 732.4375 1024.40625 C 731.394531 1030.078125 732.945312 1035.621094 736.238281 1039.824219 C 739.042969 1043.402344 743.113281 1046.015625 747.933594 1046.890625 L 893.980469 1073.792969 C 894.003906 1073.796875 894.023438 1073.796875 894.050781 1073.796875 C 914.144531 1078.003906 934.6875 1074.339844 951.972656 1063.4375 C 969.554688 1052.351562 981.648438 1035.125 986.046875 1014.933594 C 994.980469 973.925781 968.773438 932.738281 927.609375 923.039062 C 927.589844 923.039062 927.566406 923.027344 927.546875 923.023438 L 627.640625 851.738281 C 626.550781 851.398438 625.421875 851.136719 624.25 850.996094 C 591.65625 847.050781 559.476562 856.03125 533.601562 876.324219 L 414.269531 970.410156 L 401.839844 954.566406 C 395.261719 946.171875 383.121094 944.699219 374.730469 951.28125 L 252.679688 1046.988281 C 244.289062 1053.570312 242.820312 1065.703125 249.402344 1074.097656 L 366.597656 1223.554688 C 373.179688 1231.949219 385.316406 1233.414062 393.707031 1226.835938 C 402.101562 1220.253906 403.570312 1208.113281 396.988281 1199.722656 L 291.707031 1065.464844 L 383.367188 993.585938 L 549.199219 1205.082031 L 457.546875 1276.949219 L 452.363281 1270.34375 C 445.78125 1261.945312 433.648438 1260.484375 425.253906 1267.0625 C 416.863281 1273.644531 415.394531 1285.785156 421.976562 1294.171875 L 439.070312 1315.976562 C 445.652344 1324.367188 457.785156 1325.832031 466.183594 1319.253906 L 588.230469 1223.554688 C 596.621094 1216.972656 598.089844 1204.835938 591.511719 1196.445312 L 578.785156 1180.21875 L 594.152344 1168.152344 C 602.042969 1161.972656 611.824219 1159.085938 621.773438 1159.949219 L 900.457031 1216.941406 C 900.488281 1216.949219 900.527344 1216.949219 900.558594 1216.964844 C 900.914062 1217.035156 901.28125 1217.078125 901.648438 1217.125 C 901.976562 1217.179688 902.289062 1217.226562 902.605469 1217.257812 C 902.6875 1217.261719 902.761719 1217.277344 902.84375 1217.28125 C 914.695312 1218.195312 926.761719 1216.359375 937.746094 1211.960938 C 944.601562 1209.222656 951.054688 1205.5 956.914062 1200.910156 L 1224.910156 990.453125 C 1258.730469 963.9375 1264.671875 914.84375 1238.152344 881.023438 " fill-opacity="1" fill-rule="nonzero"/></g><g clip-path="url(#7093913681)"><path fill="#d9d9d9" d="M 988.667969 269.605469 L 1013.121094 299.027344 L 898.769531 299.027344 L 898.769531 215.398438 L 1013.121094 215.398438 L 988.667969 244.8125 C 982.695312 252 982.695312 262.421875 988.667969 269.605469 Z M 955.015625 701.363281 L 895.464844 612.816406 C 889.585938 604.074219 877.792969 601.625 868.914062 607.308594 L 822.089844 637.308594 L 791.671875 577.703125 L 878.429688 462.464844 L 1002.238281 618.648438 Z M 593.730469 808.394531 C 597.226562 811.019531 601.320312 812.296875 605.378906 812.296875 C 611.265625 812.296875 617.078125 809.628906 620.886719 804.570312 L 765.722656 612.175781 L 797.269531 673.992188 C 799.757812 678.863281 804.1875 682.460938 809.472656 683.890625 C 814.75 685.320312 820.394531 684.453125 825.003906 681.5 L 873.867188 650.195312 L 940.273438 748.929688 C 943.882812 754.296875 949.921875 757.503906 956.359375 757.503906 C 956.601562 757.503906 956.839844 757.5 957.078125 757.488281 C 963.785156 757.242188 969.882812 753.546875 973.203125 747.726562 L 1028.207031 651.394531 L 1149.929688 804.949219 C 1156.585938 813.34375 1168.785156 814.75 1177.179688 808.097656 C 1185.570312 801.445312 1186.980469 789.246094 1180.324219 780.855469 L 1041.019531 605.128906 C 1040.996094 605.097656 1040.972656 605.070312 1040.953125 605.050781 L 898.769531 425.691406 L 898.769531 337.8125 L 1054.453125 337.8125 C 1054.460938 337.8125 1054.460938 337.8125 1054.476562 337.8125 C 1065.183594 337.8125 1073.867188 329.132812 1073.867188 318.421875 C 1073.867188 313.414062 1071.972656 308.847656 1068.855469 305.40625 L 1028.796875 257.207031 L 1069.371094 208.398438 C 1074.175781 202.613281 1075.203125 194.574219 1072.007812 187.769531 C 1068.8125 180.960938 1061.976562 176.613281 1054.453125 176.613281 L 879.375 176.613281 C 868.667969 176.613281 859.984375 185.292969 859.984375 196 L 859.984375 422.476562 L 589.902344 781.238281 C 583.460938 789.796875 585.175781 801.957031 593.730469 808.394531 " fill-opacity="1" fill-rule="nonzero"/></g></svg>