<svg xmlns="http://www.w3.org/2000/svg" xmlns:xlink="http://www.w3.org/1999/xlink" width="2000" zoomAndPan="magnify" viewBox="0 0 1500 1499.999933" height="2000" preserveAspectRatio="xMidYMid meet" version="1.0"><defs><clipPath id="5fd16321eb"><path d="M 133 150 L 1374 150 L 1374 1392.75 L 133 1392.75 Z M 133 150 " clip-rule="nonzero"/></clipPath></defs><g clip-path="url(#5fd16321eb)"><path fill="#241f31" d="M 1344.753906 1262.128906 C 1363.078125 1256.632812 1373.15625 1243.195312 1373.15625 1224.414062 C 1373.15625 1219.984375 1372.546875 1215.25 1371.476562 1210.210938 C 1363.839844 1177.378906 1336.8125 1142.410156 1299.707031 1138.898438 C 1290.390625 1137.984375 1280.007812 1137.523438 1268.859375 1137.523438 C 1236.183594 1137.523438 1200.296875 1141.191406 1172.8125 1147.144531 C 1170.367188 1147.757812 1167.925781 1148.519531 1165.480469 1149.589844 L 1171.285156 1141.039062 L 1045.609375 1056.898438 C 1004.992188 1029.71875 958.570312 1014.601562 911.230469 1011.242188 C 906.039062 987.417969 900.085938 955.503906 895.960938 918.855469 C 960.25 915.34375 1009.113281 894.882812 1040.875 857.46875 C 1090.503906 799.289062 1080.730469 722.632812 1080.273438 719.425781 L 1079.511719 713.625 L 1073.707031 713.011719 C 1072.484375 713.164062 951.851562 701.558594 902.984375 796.082031 C 898.101562 805.398438 894.128906 813.949219 890.617188 822.042969 C 891.074219 777.605469 895.808594 730.726562 907.566406 685.070312 C 1052.023438 681.402344 1168.382812 562.90625 1168.382812 417.6875 C 1168.382812 270.175781 1048.359375 150.152344 900.847656 150.152344 C 753.339844 150.152344 633.3125 270.175781 633.3125 417.6875 C 633.3125 536.949219 711.648438 638.1875 819.609375 672.699219 C 802.050781 745.996094 799.605469 820.058594 803.730469 884.804688 C 799.453125 876.558594 794.71875 867.699219 788.917969 858.082031 C 734.402344 766.765625 614.835938 785.851562 613.617188 786.003906 L 607.8125 786.769531 L 607.355469 792.570312 C 607.050781 795.777344 602.164062 872.890625 655.152344 927.863281 C 688.898438 962.832031 737.914062 980.394531 801.285156 980.394531 C 805.714844 980.394531 810.144531 980.242188 814.570312 980.089844 C 817.015625 994.289062 819.457031 1007.421875 821.902344 1019.179688 C 797.164062 1025.441406 773.1875 1035.0625 750.742188 1048.195312 L 716.84375 1068.046875 C 708.136719 1065.144531 700.199219 1062.394531 692.257812 1059.339844 C 691.492188 1058.882812 690.730469 1058.425781 689.8125 1058.121094 C 665.078125 1044.683594 639.726562 1030.9375 613.460938 1018.265625 L 607.355469 1014.601562 L 606.898438 1015.210938 C 582.921875 1003.757812 557.878906 993.070312 531.308594 984.210938 C 502.144531 974.285156 465.648438 968.484375 422.890625 966.5 L 422.433594 963.445312 L 415.101562 964.667969 C 413.117188 964.972656 411.285156 965.429688 409.300781 965.886719 C 403.34375 965.734375 397.238281 965.582031 391.128906 965.582031 C 268.660156 965.582031 140.085938 994.597656 138.863281 994.902344 L 133.0625 996.277344 L 133.0625 1331.609375 L 141.308594 1330.695312 C 142.375 1330.539062 245.449219 1318.628906 345.625 1318.628906 C 405.023438 1318.628906 451.445312 1322.753906 483.820312 1330.847656 L 490.996094 1332.679688 L 491.148438 1331.761719 C 499.546875 1333.902344 507.945312 1336.039062 516.34375 1338.175781 L 523.519531 1340.007812 L 525.355469 1332.832031 L 527.1875 1325.65625 L 520.007812 1323.820312 C 481.527344 1314.050781 444.878906 1305.039062 410.675781 1296.792969 C 381.050781 1289.617188 353.105469 1283.203125 326.992188 1277.246094 C 310.195312 1273.429688 287.902344 1263.503906 270.035156 1246.25 C 266.828125 1243.195312 263.621094 1239.835938 260.71875 1236.324219 L 256.140625 1230.519531 L 244.6875 1239.683594 L 249.269531 1245.484375 C 275.683594 1278.621094 312.945312 1289.160156 323.785156 1291.601562 C 341.195312 1295.570312 359.519531 1299.695312 378.605469 1304.277344 C 368.070312 1303.972656 357.074219 1303.816406 345.625 1303.816406 C 260.875 1303.816406 174.292969 1312.214844 147.722656 1315.117188 L 147.722656 1008.1875 C 171.390625 1003.148438 264.234375 984.519531 360.128906 981.003906 C 337.53125 990.777344 317.679688 1003.910156 301.796875 1020.097656 L 296.605469 1025.289062 L 307.140625 1035.671875 L 312.335938 1030.480469 C 336.460938 1006.046875 370.359375 988.945312 410.523438 980.699219 C 456.941406 981.921875 495.882812 987.722656 526.421875 998.109375 C 554.519531 1007.574219 580.9375 1019.027344 606.285156 1031.246094 C 607.355469 1031.855469 608.269531 1032.464844 609.339844 1033.078125 C 644.003906 1053.996094 665.230469 1064.6875 685.691406 1072.78125 C 690.425781 1074.613281 695.003906 1076.292969 699.890625 1077.972656 C 702.945312 1079.039062 706 1080.109375 709.207031 1081.179688 C 712.261719 1082.246094 715.316406 1083.164062 718.523438 1084.230469 C 721.421875 1085.148438 724.476562 1086.21875 727.683594 1087.132812 C 728.140625 1087.285156 728.753906 1087.4375 729.210938 1087.589844 C 742.953125 1091.867188 758.988281 1097.058594 779.753906 1104.234375 C 780.0625 1104.390625 780.367188 1104.390625 780.671875 1104.542969 C 782.199219 1105 785.101562 1105.914062 788.460938 1106.832031 C 792.277344 1107.902344 796.707031 1109.121094 799.914062 1110.34375 C 801.746094 1110.957031 805.714844 1113.703125 808.921875 1115.839844 C 809.992188 1116.605469 810.90625 1117.214844 811.976562 1117.980469 C 816.402344 1120.878906 820.679688 1123.628906 824.800781 1124.699219 C 826.941406 1125.308594 829.078125 1125.308594 831.214844 1125.15625 C 834.726562 1124.851562 838.085938 1123.933594 840.988281 1123.171875 C 842.820312 1122.5625 845.722656 1121.949219 846.332031 1121.796875 C 864.046875 1126.074219 886.1875 1129.585938 906.039062 1132.792969 C 906.652344 1132.945312 907.261719 1132.945312 907.871094 1133.097656 C 916.425781 1134.472656 924.363281 1135.691406 931.082031 1136.914062 C 943.605469 1139.050781 954.445312 1143.9375 963.457031 1150.964844 C 966.664062 1153.40625 969.410156 1156.15625 972.160156 1159.054688 C 974.296875 1161.5 976.4375 1164.25 978.269531 1166.996094 C 984.835938 1176.921875 989.261719 1188.832031 990.789062 1202.578125 L 990.789062 1202.730469 C 993.386719 1225.941406 981.933594 1241.058594 959.332031 1244.265625 C 916.730469 1250.066406 850.457031 1255.871094 803.273438 1252.664062 C 764.789062 1250.066406 730.890625 1241.972656 697.144531 1231.132812 L 696.53125 1228.6875 C 693.324219 1214.027344 694.699219 1199.828125 696.53125 1187.765625 L 697.601562 1180.433594 L 682.941406 1178.296875 L 681.875 1185.625 C 680.195312 1197.382812 678.820312 1211.128906 680.957031 1225.789062 C 663.703125 1219.832031 646.445312 1213.417969 628.273438 1206.699219 L 603.691406 1197.539062 L 599.109375 1195.859375 L 594.070312 1209.753906 L 623.234375 1220.59375 C 683.859375 1243.347656 736.234375 1263.046875 802.355469 1267.476562 C 811.976562 1268.085938 822.511719 1268.390625 833.355469 1268.390625 C 876.722656 1268.390625 926.808594 1263.808594 961.316406 1258.921875 C 991.554688 1254.800781 1008.960938 1232.046875 1005.296875 1201.203125 C 1003.921875 1189.136719 1000.714844 1178.296875 995.980469 1168.523438 C 1032.78125 1171.121094 1072.636719 1172.492188 1112.1875 1172.648438 C 1113.410156 1172.648438 1117.53125 1174.328125 1120.28125 1175.242188 C 1122.417969 1176.007812 1124.558594 1176.769531 1126.847656 1177.535156 L 1128.527344 1180.28125 C 1132.804688 1187.917969 1134.941406 1202.730469 1132.039062 1206.394531 L 1127.457031 1212.195312 L 1139.0625 1221.207031 L 1143.644531 1215.402344 C 1150.820312 1206.089844 1147.769531 1189.597656 1143.949219 1179.210938 C 1145.476562 1178.90625 1147.003906 1178.449219 1148.378906 1177.53125 C 1150.363281 1176.3125 1152.652344 1174.632812 1155.097656 1173.105469 C 1161.359375 1168.828125 1169.296875 1163.484375 1175.558594 1162.109375 C 1202.128906 1156.308594 1236.792969 1152.796875 1268.402344 1152.796875 C 1279.246094 1152.796875 1289.171875 1153.253906 1297.875 1154.015625 C 1331.46875 1157.222656 1351.320312 1191.429688 1356.511719 1213.875 L 1356.511719 1214.027344 C 1357.425781 1217.847656 1357.886719 1221.511719 1357.886719 1224.871094 C 1357.886719 1237.085938 1351.929688 1244.722656 1339.867188 1248.386719 C 1210.070312 1287.785156 1095.542969 1317.253906 931.234375 1353.75 C 915.8125 1357.109375 802.507812 1370.242188 764.636719 1374.214844 C 756.085938 1375.128906 750.589844 1376.199219 746.007812 1377.265625 C 741.578125 1378.183594 738.832031 1378.792969 734.859375 1378.792969 C 727.683594 1378.792969 716.84375 1376.503906 696.074219 1370.855469 C 671.335938 1364.136719 644.003906 1356.652344 614.988281 1349.019531 L 607.8125 1347.183594 L 605.980469 1354.363281 L 604.148438 1361.539062 L 611.324219 1363.371094 C 640.183594 1371.007812 667.519531 1378.335938 692.257812 1385.207031 C 714.703125 1391.316406 726.308594 1393.605469 735.011719 1393.605469 C 740.511719 1393.605469 744.480469 1392.691406 749.214844 1391.773438 C 753.492188 1390.859375 758.53125 1389.789062 766.316406 1389.027344 C 805.5625 1385.054688 918.410156 1371.921875 934.59375 1368.410156 C 1099.820312 1331.152344 1214.652344 1301.527344 1344.753906 1262.128906 Z M 1147.15625 1160.582031 C 1145.019531 1162.109375 1142.882812 1163.484375 1141.050781 1164.707031 C 1140.894531 1164.707031 1140.589844 1164.859375 1139.675781 1164.859375 C 1136.164062 1164.859375 1130.359375 1162.722656 1125.777344 1160.886719 C 1120.738281 1158.902344 1116.3125 1157.375 1112.492188 1157.375 C 1069.429688 1157.222656 1025.910156 1155.542969 986.515625 1152.488281 C 981.167969 1145.617188 974.757812 1139.816406 967.425781 1135.082031 C 957.652344 1128.667969 946.355469 1124.238281 933.679688 1122.101562 C 926.960938 1120.878906 918.867188 1119.660156 910.316406 1118.285156 C 901.304688 1116.910156 891.839844 1115.382812 882.371094 1113.703125 C 875.347656 1112.480469 868.628906 1111.261719 862.0625 1109.886719 C 857.9375 1108.96875 853.816406 1108.207031 850 1107.289062 C 845.570312 1106.222656 841.140625 1107.59375 836.867188 1108.816406 C 833.964844 1109.734375 830.453125 1110.800781 828.621094 1110.34375 C 826.175781 1109.734375 821.136719 1106.222656 817.320312 1103.777344 C 812.738281 1100.722656 808.464844 1097.667969 804.644531 1096.449219 C 801.132812 1095.226562 796.550781 1094.003906 792.582031 1092.785156 C 789.527344 1091.867188 786.933594 1091.105469 785.558594 1090.644531 C 765.25 1083.621094 749.367188 1078.429688 735.929688 1074.152344 L 758.378906 1061.019531 C 779.449219 1048.652344 802.050781 1039.644531 825.261719 1033.6875 C 827.703125 1033.078125 829.996094 1032.617188 832.4375 1032.007812 C 834.882812 1031.398438 837.324219 1030.9375 839.613281 1030.480469 C 859.3125 1026.664062 879.316406 1024.832031 899.167969 1025.441406 C 901.765625 1025.59375 904.207031 1025.746094 906.804688 1025.898438 C 909.398438 1026.050781 911.996094 1026.203125 914.589844 1026.359375 C 957.804688 1030.175781 1000.257812 1044.53125 1037.363281 1069.417969 L 1146.851562 1142.71875 L 1160.898438 1152.183594 C 1156.015625 1154.78125 1151.28125 1157.835938 1147.15625 1160.582031 Z M 776.242188 865.5625 C 795.636719 898.089844 804.644531 921.144531 808.464844 937.027344 C 809.992188 943.441406 810.753906 948.785156 810.90625 953.0625 C 810.753906 953.0625 810.601562 952.910156 810.449219 952.753906 C 770.441406 932.597656 722.339844 878.390625 721.882812 877.777344 L 716.996094 872.28125 L 706 882.054688 L 710.886719 887.550781 C 713.023438 889.996094 760.820312 943.746094 803.425781 965.582031 C 743.71875 966.039062 697.144531 950.007812 666.144531 917.785156 C 625.832031 876.097656 622.167969 818.378906 622.167969 799.746094 C 645.683594 797.304688 733.488281 793.945312 776.242188 865.5625 Z M 826.328125 959.167969 C 826.175781 958.253906 826.023438 957.335938 825.871094 956.574219 C 826.023438 950.464844 825.109375 942.675781 822.816406 933.058594 C 814.113281 859.761719 811.976562 767.527344 833.660156 676.667969 C 852.441406 681.554688 872.140625 684.304688 892.296875 684.914062 C 877.484375 744.164062 874.277344 805.246094 876.570312 860.675781 C 877.027344 872.890625 877.789062 884.804688 878.859375 896.410156 C 879.316406 901.601562 879.777344 906.792969 880.386719 911.984375 C 880.691406 914.425781 880.84375 916.871094 881.148438 919.3125 C 885.121094 955.199219 890.769531 986.65625 895.960938 1010.78125 C 876.109375 1010.476562 856.105469 1012.308594 836.5625 1016.128906 C 833.203125 1000.246094 829.6875 981.617188 826.636719 961.152344 L 827.246094 959.628906 Z M 1153.570312 417.6875 C 1153.570312 553.4375 1046.066406 664.605469 911.691406 670.257812 C 909.09375 670.410156 906.5 670.410156 903.902344 670.410156 C 902.832031 670.410156 901.765625 670.5625 900.695312 670.5625 C 899.167969 670.5625 897.640625 670.410156 896.265625 670.410156 C 875.957031 670.105469 856.105469 667.355469 837.171875 662.46875 C 834.726562 661.859375 832.4375 661.09375 830.148438 660.484375 C 827.855469 659.71875 825.414062 659.109375 823.121094 658.34375 C 721.574219 625.515625 647.972656 530.074219 647.972656 417.6875 C 647.972656 278.269531 761.429688 164.8125 900.847656 164.8125 C 1040.113281 164.8125 1153.570312 278.117188 1153.570312 417.6875 Z M 1066.070312 727.671875 C 1067.140625 746.300781 1067.140625 804.175781 1029.421875 848.308594 C 1000.257812 882.359375 955.058594 901.140625 895.046875 904.5 C 936.273438 880.070312 980.558594 823.570312 982.695312 820.972656 L 987.277344 815.171875 L 975.671875 806.160156 L 971.089844 811.964844 C 970.632812 812.574219 930.167969 864.1875 892.90625 888.773438 C 892.296875 880.375 891.6875 871.671875 891.382812 862.964844 C 895.503906 848 903.140625 828.457031 916.117188 803.261719 C 954.292969 728.894531 1042.402344 726.757812 1066.070312 727.671875 Z M 1066.070312 727.671875 " fill-opacity="1" fill-rule="nonzero"/></g><path fill="#241f31" d="M 850 1250.832031 L 863.285156 1244.265625 L 860.078125 1237.699219 C 851.679688 1220.746094 847.25 1204.410156 846.332031 1187.765625 L 845.875 1180.433594 L 831.214844 1181.199219 L 831.675781 1188.527344 C 832.742188 1207.308594 837.628906 1225.480469 846.945312 1244.265625 Z M 850 1250.832031 " fill-opacity="1" fill-rule="nonzero"/><path fill="#241f31" d="M 709.207031 454.488281 C 709.207031 478.921875 729.058594 498.773438 753.492188 498.773438 C 777.921875 498.773438 797.773438 478.921875 797.773438 454.488281 L 797.773438 447.160156 L 783.113281 447.160156 L 783.113281 454.488281 C 783.113281 470.675781 769.828125 483.960938 753.644531 483.960938 C 737.457031 483.960938 724.171875 470.675781 724.171875 454.488281 L 724.171875 380.734375 C 724.171875 364.546875 737.457031 351.261719 753.644531 351.261719 C 769.828125 351.261719 783.113281 364.546875 783.113281 380.734375 L 783.113281 388.0625 L 797.773438 388.0625 L 797.773438 380.734375 C 797.773438 356.300781 777.921875 336.449219 753.492188 336.449219 C 729.058594 336.449219 709.207031 356.300781 709.207031 380.734375 Z M 709.207031 454.488281 " fill-opacity="1" fill-rule="nonzero"/><path fill="#241f31" d="M 891.535156 498.617188 L 910.011719 498.617188 C 929.25 498.617188 944.980469 482.890625 944.980469 463.648438 C 944.980469 449.753906 938.414062 436.621094 927.265625 428.222656 L 882.980469 395.085938 C 875.652344 389.589844 871.222656 380.734375 871.222656 371.570312 C 871.222656 360.421875 880.386719 351.261719 891.535156 351.261719 L 910.011719 351.261719 C 921.15625 351.261719 930.320312 360.421875 930.320312 371.570312 L 930.320312 378.902344 L 944.980469 378.902344 L 944.980469 371.570312 C 944.980469 352.332031 929.25 336.601562 910.011719 336.601562 L 891.535156 336.601562 C 872.292969 336.601562 856.566406 352.332031 856.566406 371.570312 C 856.566406 385.464844 863.132812 398.597656 874.277344 406.996094 L 918.5625 440.132812 C 925.890625 445.632812 930.320312 454.488281 930.320312 463.648438 C 930.320312 474.796875 921.15625 483.960938 910.011719 483.960938 L 891.535156 483.960938 C 880.386719 483.960938 871.222656 474.796875 871.222656 463.648438 L 871.222656 456.320312 L 856.566406 456.320312 L 856.566406 463.648438 C 856.566406 483.042969 872.292969 498.617188 891.535156 498.617188 Z M 891.535156 498.617188 " fill-opacity="1" fill-rule="nonzero"/><path fill="#241f31" d="M 1018.582031 425.015625 L 1049.734375 425.015625 L 1080.882812 500.910156 L 1094.476562 495.257812 L 1064.390625 421.65625 C 1080.730469 415.089844 1092.335938 399.210938 1092.335938 380.582031 C 1092.335938 356.148438 1072.484375 336.296875 1048.054688 336.296875 L 1003.769531 336.296875 L 1003.769531 498.617188 L 1018.429688 498.617188 L 1018.429688 425.015625 Z M 1018.582031 351.261719 L 1048.054688 351.261719 C 1064.238281 351.261719 1077.523438 364.546875 1077.523438 380.734375 C 1077.523438 393.253906 1069.738281 403.792969 1058.742188 408.066406 L 1058.742188 407.914062 L 1056.910156 408.675781 C 1054.160156 409.59375 1051.105469 410.203125 1048.054688 410.203125 L 1018.582031 410.203125 Z M 1018.582031 351.261719 " fill-opacity="1" fill-rule="nonzero"/></svg>