<svg xmlns="http://www.w3.org/2000/svg" xmlns:xlink="http://www.w3.org/1999/xlink" width="2000" zoomAndPan="magnify" viewBox="0 0 1500 1499.999933" height="2000" preserveAspectRatio="xMidYMid meet" version="1.0"><defs><clipPath id="d9c9efad3e"><path d="M 72 378.546875 L 364 378.546875 L 364 1238.714844 L 72 1238.714844 Z M 72 378.546875 " clip-rule="nonzero"/></clipPath><clipPath id="60e62bb76a"><path d="M 442 378.546875 L 734 378.546875 L 734 1238.714844 L 442 1238.714844 Z M 442 378.546875 " clip-rule="nonzero"/></clipPath><clipPath id="64c7674df3"><path d="M 812 378.546875 L 1104 378.546875 L 1104 1238.714844 L 812 1238.714844 Z M 812 378.546875 " clip-rule="nonzero"/></clipPath><clipPath id="df17a8efdc"><path d="M 1182 378.546875 L 1474 378.546875 L 1474 1238.714844 L 1182 1238.714844 Z M 1182 378.546875 " clip-rule="nonzero"/></clipPath></defs><g clip-path="url(#d9c9efad3e)"><path fill="#241f31" d="M 338.183594 424.550781 C 338.371094 424.179688 338.371094 423.992188 338.371094 423.621094 L 335.019531 378.675781 L 101.019531 378.675781 L 97.667969 423.621094 C 97.667969 423.992188 97.667969 424.179688 97.855469 424.550781 C 91.339844 426.964844 85.570312 430.867188 81.101562 436.25 C 73.28125 445.910156 70.863281 458.722656 74.773438 471.539062 C 78.496094 483.796875 87.246094 493.269531 97.855469 496.613281 C 107.535156 499.582031 120.007812 500.140625 129.875 497.167969 C 133.226562 499.027344 147.746094 507.570312 141.414062 522.429688 C 133.785156 540.441406 128.570312 552.515625 142.53125 565.144531 L 132.667969 1100.773438 C 130.433594 1101.148438 128.386719 1101.890625 127.082031 1103.375 C 124.289062 1105.976562 123.917969 1110.0625 123.917969 1113.03125 C 116.84375 1115.074219 112.003906 1121.203125 111.628906 1129.378906 C 111.257812 1135.691406 113.863281 1142.933594 120.378906 1146.464844 C 118.144531 1148.878906 115.167969 1152.777344 115.355469 1157.234375 C 115.539062 1160.578125 117.402344 1163.734375 121.125 1166.335938 C 119.078125 1168.566406 117.585938 1172.09375 119.078125 1176.550781 C 117.03125 1177.109375 114.421875 1178.035156 112.375 1180.453125 C 109.769531 1183.421875 108.652344 1187.695312 109.023438 1193.082031 L 85.753906 1193.082031 C 84.636719 1193.082031 83.707031 1194.007812 83.707031 1195.125 L 83.707031 1236.539062 C 83.707031 1237.65625 84.636719 1238.582031 85.753906 1238.582031 L 350.097656 1238.582031 C 351.214844 1238.582031 352.144531 1237.65625 352.144531 1236.539062 L 352.144531 1195.125 C 352.144531 1194.007812 351.214844 1193.082031 350.097656 1193.082031 L 327.386719 1193.082031 C 327.757812 1187.695312 326.640625 1183.421875 324.035156 1180.453125 C 321.988281 1178.035156 319.382812 1177.109375 317.335938 1176.550781 C 318.824219 1172.09375 317.148438 1168.566406 315.285156 1166.335938 C 318.824219 1163.734375 320.871094 1160.578125 321.058594 1157.234375 C 321.242188 1152.777344 318.265625 1148.878906 316.03125 1146.464844 C 322.546875 1142.933594 325.152344 1135.691406 324.78125 1129.378906 C 324.410156 1121.390625 319.570312 1115.074219 312.496094 1113.03125 C 312.496094 1110.0625 311.9375 1105.976562 309.328125 1103.191406 C 307.839844 1101.703125 305.980469 1100.960938 303.746094 1100.589844 L 293.878906 564.957031 C 307.839844 552.144531 302.628906 540.257812 294.996094 522.242188 C 288.667969 507.382812 303 498.65625 306.539062 496.984375 C 316.21875 499.957031 328.875 499.398438 338.554688 496.425781 C 348.980469 493.082031 357.917969 483.613281 361.640625 471.355469 C 365.550781 458.539062 363.128906 445.722656 355.3125 436.066406 C 350.46875 431.050781 344.699219 427.152344 338.183594 424.550781 Z M 104.929688 382.949219 L 330.925781 382.949219 L 331.484375 390.191406 L 104.371094 390.191406 Z M 104 394.277344 L 331.855469 394.277344 L 332.414062 402.078125 L 103.441406 402.078125 Z M 103.066406 406.164062 L 332.597656 406.164062 L 333.34375 416.9375 C 333.15625 416.9375 332.972656 416.75 332.597656 416.75 L 102.882812 416.75 C 102.695312 416.75 102.507812 416.75 102.136719 416.9375 Z M 101.949219 420.835938 C 102.324219 421.023438 102.507812 421.023438 102.882812 421.023438 L 332.785156 421.023438 C 333.15625 421.023438 333.53125 420.835938 333.714844 420.835938 L 333.902344 423.25 C 316.589844 418.421875 294.4375 422.878906 276.566406 436.25 L 159.101562 436.25 C 141.042969 422.878906 119.078125 418.421875 101.765625 423.25 Z M 217.367188 505.339844 C 217.554688 505.339844 217.742188 505.339844 217.925781 505.339844 C 218.113281 505.339844 218.300781 505.339844 218.484375 505.339844 C 231.703125 501.8125 238.03125 481.941406 239.894531 474.511719 C 243.617188 476.925781 246.222656 479.339844 247.898438 480.824219 C 240.078125 502 236.171875 523.171875 235.054688 529.300781 L 200.800781 529.300781 C 199.683594 522.984375 195.773438 502 187.957031 480.824219 C 189.628906 479.152344 192.238281 476.738281 195.960938 474.511719 C 197.820312 482.125 204.152344 501.8125 217.367188 505.339844 Z M 199.683594 472.28125 C 204.710938 469.683594 210.851562 467.453125 217.925781 467.453125 C 225 467.453125 231.144531 469.496094 236.171875 472.28125 C 234.867188 477.855469 229.28125 497.539062 217.925781 501.253906 C 206.570312 497.539062 200.984375 477.855469 199.683594 472.28125 Z M 239.707031 469.496094 C 233.9375 466.152344 226.488281 463.367188 217.925781 463.367188 C 209.363281 463.367188 201.917969 466.152344 196.144531 469.496094 C 191.863281 471.910156 188.515625 474.695312 186.28125 476.738281 C 180.695312 462.808594 173.433594 449.253906 164.128906 440.523438 L 271.539062 440.523438 C 262.230469 449.4375 254.972656 462.808594 249.386719 476.738281 C 247.339844 474.695312 243.988281 471.910156 239.707031 469.496094 Z M 129.316406 493.082031 C 129.128906 493.082031 129.128906 493.082031 129.316406 493.082031 C 120.378906 495.871094 108.09375 495.496094 98.972656 492.710938 C 89.851562 489.925781 82.03125 481.382812 78.679688 470.425781 C 75.144531 459.097656 77.191406 447.582031 84.265625 439.039062 C 88.175781 434.394531 93.203125 430.867188 98.972656 428.636719 C 85.011719 441.082031 80.730469 456.867188 87.617188 472.839844 C 92.644531 484.726562 102.136719 492.710938 112.746094 494.382812 C 114.050781 494.570312 115.167969 494.753906 116.472656 494.753906 C 122.800781 494.753906 128.386719 492.15625 132.480469 487.511719 C 139.554688 479.339844 142.90625 468.753906 140.859375 460.394531 C 139.554688 455.195312 136.203125 451.296875 131.363281 449.4375 C 123.542969 446.464844 115.914062 446.835938 111.074219 450.738281 C 107.90625 453.152344 104.371094 457.980469 105.488281 467.082031 C 106.605469 476.925781 112.5625 480.453125 117.214844 480.453125 C 122.429688 480.453125 126.523438 476.554688 127.082031 471.726562 C 127.640625 466.523438 125.59375 464.296875 124.101562 463.183594 C 121.3125 461.511719 117.960938 462.625 116.285156 463.554688 C 115.355469 464.109375 114.980469 465.410156 115.726562 466.523438 C 116.285156 467.453125 117.585938 467.824219 118.703125 467.082031 C 119.449219 466.523438 121.125 466.152344 122.242188 466.710938 C 123.171875 467.269531 123.542969 468.753906 123.359375 471.167969 C 122.988281 474.324219 120.195312 476.183594 117.773438 476.183594 C 114.609375 476.183594 111.074219 473.582031 110.328125 466.523438 C 109.769531 460.765625 111.074219 456.496094 114.238281 453.894531 C 117.960938 450.921875 124.101562 450.738281 130.617188 453.152344 C 134.15625 454.636719 136.574219 457.425781 137.691406 461.140625 C 139.367188 468.011719 136.390625 477.484375 130.246094 484.539062 C 126.335938 488.996094 120.566406 491.039062 114.421875 490.113281 C 105.300781 488.625 97.109375 481.570312 92.644531 470.980469 C 82.960938 448.324219 99.160156 433.28125 109.769531 426.222656 C 109.957031 426.035156 110.140625 425.851562 110.140625 425.851562 C 125.777344 423.621094 144.394531 428.636719 159.660156 440.707031 C 184.230469 460.210938 195.585938 517.042969 197.820312 529.300781 L 186.839844 529.300781 C 180.882812 492.15625 168.222656 465.78125 148.117188 449.066406 C 147.375 448.507812 146.257812 448.507812 145.511719 449.066406 C 144.765625 449.625 144.582031 450.738281 144.953125 451.667969 C 151.28125 462.996094 146.441406 481.195312 138.25 488.625 C 134.902344 490.667969 132.292969 492.15625 129.316406 493.082031 Z M 150.351562 458.167969 C 165.988281 474.140625 176.226562 497.726562 181.253906 529.484375 L 166.359375 529.484375 C 165.242188 502.183594 149.234375 492.527344 142.160156 489.554688 C 148.675781 481.753906 152.398438 469.125 150.351562 458.167969 Z M 134.714844 495.3125 C 136.203125 494.570312 137.691406 493.640625 138.808594 492.710938 C 143.089844 494.011719 160.960938 501.253906 162.078125 529.484375 L 142.71875 529.484375 C 143.464844 527.8125 144.207031 526.140625 144.953125 524.285156 C 150.910156 510.542969 142.347656 500.328125 134.714844 495.3125 Z M 325.152344 1197.539062 L 348.050781 1197.539062 L 348.050781 1234.867188 L 87.800781 1234.867188 L 87.800781 1197.539062 Z M 320.871094 1183.421875 C 322.734375 1185.652344 323.664062 1188.996094 323.292969 1193.265625 L 112.5625 1193.265625 C 112.1875 1188.808594 112.933594 1185.652344 114.796875 1183.421875 C 117.402344 1180.453125 121.3125 1180.453125 121.496094 1180.453125 L 314.171875 1180.453125 C 314.542969 1180.453125 318.265625 1180.453125 320.871094 1183.421875 Z M 124.660156 1168.378906 L 311.191406 1168.378906 C 312.496094 1169.308594 315.101562 1171.90625 313.054688 1176.367188 L 122.800781 1176.367188 C 120.9375 1171.90625 123.542969 1169.308594 124.660156 1168.378906 Z M 316.777344 1157.234375 C 316.589844 1159.648438 314.726562 1162.066406 311.191406 1164.292969 L 124.660156 1164.292969 C 121.125 1162.066406 119.261719 1159.835938 119.078125 1157.234375 C 118.890625 1153.519531 122.613281 1149.808594 124.476562 1148.136719 L 311.191406 1148.136719 C 312.679688 1149.25 316.960938 1153.148438 316.777344 1157.234375 Z M 310.074219 1116.933594 C 317.335938 1118.234375 320.3125 1124.363281 320.5 1129.75 C 320.871094 1135.320312 318.265625 1141.820312 311.75 1143.863281 L 124.101562 1143.863281 C 117.585938 1141.820312 114.980469 1135.320312 115.355469 1129.75 C 115.726562 1124.546875 118.519531 1118.417969 125.777344 1116.933594 Z M 301.324219 1105.046875 C 303.371094 1105.046875 305.046875 1105.605469 306.164062 1106.53125 C 307.65625 1108.019531 308.027344 1110.617188 308.214844 1112.847656 L 127.828125 1112.847656 C 127.828125 1110.617188 128.199219 1108.019531 129.875 1106.53125 C 130.804688 1105.605469 132.480469 1105.046875 134.527344 1105.046875 C 134.527344 1105.046875 134.714844 1105.046875 134.714844 1105.046875 Z M 299.277344 1100.773438 L 136.574219 1100.773438 L 146.441406 566.628906 L 289.410156 566.628906 Z M 290.714844 562.359375 L 145.324219 562.359375 C 142.347656 559.574219 140.300781 556.972656 139.183594 554.1875 L 297.042969 554.1875 C 295.742188 556.972656 293.691406 559.574219 290.714844 562.359375 Z M 297.972656 549.914062 L 137.878906 549.914062 C 137.691406 547.871094 137.691406 545.644531 138.25 543.230469 L 297.601562 543.230469 C 297.972656 545.644531 298.160156 547.871094 297.972656 549.914062 Z M 294.625 533.570312 C 295.367188 535.429688 295.925781 537.285156 296.484375 538.957031 L 139.183594 538.957031 C 139.742188 537.285156 140.300781 535.429688 141.042969 533.570312 Z M 293.691406 489.554688 C 286.617188 492.527344 270.609375 502.183594 269.492188 529.484375 L 254.601562 529.484375 C 259.625 497.726562 269.863281 474.140625 285.5 458.167969 C 283.453125 469.125 287.175781 481.753906 293.691406 489.554688 Z M 290.898438 524.285156 C 291.644531 526.140625 292.390625 527.8125 293.132812 529.484375 L 273.773438 529.484375 C 274.890625 501.253906 292.761719 494.011719 297.042969 492.710938 C 298.347656 493.640625 299.648438 494.570312 301.140625 495.3125 C 293.507812 500.328125 284.941406 510.542969 290.898438 524.285156 Z M 357.171875 470.425781 C 353.820312 481.382812 346.1875 489.925781 336.882812 492.710938 C 327.757812 495.496094 315.660156 496.054688 306.722656 493.082031 C 303.746094 492.15625 300.953125 490.667969 298.90625 488.8125 C 290.714844 481.195312 285.875 462.996094 292.203125 451.851562 C 292.761719 450.921875 292.574219 449.808594 291.644531 449.253906 C 290.898438 448.695312 289.785156 448.695312 289.039062 449.253906 C 268.933594 465.96875 256.273438 492.339844 250.316406 529.484375 L 239.335938 529.484375 C 241.570312 517.226562 252.738281 460.394531 277.496094 440.894531 C 292.761719 428.824219 311.378906 423.808594 327.015625 426.035156 C 327.199219 426.222656 327.199219 426.40625 327.386719 426.40625 C 338 433.464844 354.195312 448.507812 344.511719 471.167969 C 340.046875 481.753906 331.855469 488.8125 322.734375 490.296875 C 316.589844 491.226562 310.632812 489.183594 306.910156 484.726562 C 300.765625 477.667969 297.789062 468.195312 299.464844 461.324219 C 300.394531 457.425781 302.8125 454.636719 306.539062 453.339844 C 312.867188 450.921875 319.011719 451.109375 322.917969 454.082031 C 326.085938 456.496094 327.574219 460.953125 326.828125 466.710938 C 326.085938 473.769531 322.546875 476.367188 319.382812 476.367188 C 316.777344 476.367188 313.984375 474.511719 313.796875 471.355469 C 313.613281 468.9375 313.984375 467.453125 314.914062 466.894531 C 315.84375 466.339844 317.519531 466.710938 318.453125 467.269531 C 319.382812 467.824219 320.683594 467.640625 321.429688 466.710938 C 321.988281 465.78125 321.800781 464.480469 320.871094 463.738281 C 319.195312 462.625 315.660156 461.695312 313.054688 463.367188 C 311.378906 464.296875 309.515625 466.710938 309.886719 471.910156 C 310.261719 476.925781 314.542969 480.640625 319.753906 480.640625 C 319.753906 480.640625 319.753906 480.640625 319.941406 480.640625 C 324.59375 480.640625 330.367188 477.109375 331.484375 467.269531 C 332.597656 457.980469 329.0625 453.339844 325.898438 450.921875 C 320.871094 447.023438 313.238281 446.652344 305.605469 449.625 C 300.765625 451.480469 297.414062 455.382812 296.113281 460.582031 C 294.066406 468.753906 297.230469 479.527344 304.488281 487.699219 C 308.585938 492.339844 314.171875 494.941406 320.5 494.941406 C 321.800781 494.941406 322.917969 494.753906 324.222656 494.570312 C 334.832031 492.898438 344.140625 484.910156 349.355469 473.023438 C 356.242188 457.050781 352.144531 441.265625 338 428.824219 C 343.769531 431.050781 348.796875 434.578125 352.703125 439.222656 C 358.660156 447.582031 360.523438 458.910156 357.171875 470.425781 Z M 357.171875 470.425781 " fill-opacity="1" fill-rule="nonzero"/></g><path fill="#241f31" d="M 165.988281 575.171875 C 160.589844 575.171875 155.9375 579.632812 155.9375 585.015625 L 149.605469 1084.246094 C 149.605469 1086.847656 150.539062 1089.445312 152.398438 1091.304688 C 154.261719 1093.160156 156.679688 1094.273438 159.472656 1094.273438 C 164.871094 1094.273438 169.527344 1089.816406 169.527344 1084.429688 L 175.855469 585.203125 C 175.855469 582.601562 174.925781 580.003906 173.0625 578.144531 C 171.199219 576.289062 168.59375 575.171875 165.988281 575.171875 Z M 165.429688 1084.246094 C 165.429688 1087.402344 162.824219 1090.003906 159.472656 1090.003906 C 157.984375 1090.003906 156.496094 1089.445312 155.378906 1088.332031 C 154.261719 1087.21875 153.703125 1085.730469 153.703125 1084.246094 L 160.03125 585.015625 C 160.03125 581.859375 162.636719 579.257812 165.988281 579.257812 C 167.476562 579.257812 168.96875 579.816406 170.085938 580.929688 C 171.199219 582.046875 171.757812 583.53125 171.757812 585.015625 Z M 165.429688 1084.246094 " fill-opacity="1" fill-rule="nonzero"/><path fill="#241f31" d="M 269.863281 575.171875 C 267.257812 575.171875 264.652344 576.289062 262.789062 578.144531 C 260.929688 580.003906 260 582.601562 260 585.203125 L 266.328125 1084.429688 C 266.328125 1090.003906 270.980469 1094.273438 276.378906 1094.273438 C 278.984375 1094.273438 281.59375 1093.160156 283.453125 1091.304688 C 285.316406 1089.445312 286.246094 1086.847656 286.246094 1084.246094 L 279.917969 585.015625 C 279.917969 579.632812 275.261719 575.171875 269.863281 575.171875 Z M 280.476562 1088.515625 C 279.359375 1089.632812 278.054688 1090.1875 276.378906 1090.1875 C 273.214844 1090.1875 270.609375 1087.589844 270.421875 1084.429688 L 264.09375 585.203125 C 264.09375 583.71875 264.652344 582.230469 265.769531 581.117188 C 266.886719 580.003906 268.1875 579.445312 269.863281 579.445312 C 273.027344 579.445312 275.636719 582.046875 275.820312 585.203125 L 282.152344 1084.429688 C 282.152344 1085.917969 281.59375 1087.402344 280.476562 1088.515625 Z M 280.476562 1088.515625 " fill-opacity="1" fill-rule="nonzero"/><path fill="#241f31" d="M 198.195312 575.171875 C 192.609375 575.171875 188.140625 579.632812 188.140625 585.203125 L 187.210938 1084.429688 C 187.210938 1087.03125 188.328125 1089.632812 190.1875 1091.488281 C 192.050781 1093.347656 194.65625 1094.460938 197.261719 1094.460938 C 202.847656 1094.460938 207.316406 1090.003906 207.316406 1084.429688 L 208.246094 585.203125 C 208.246094 582.601562 207.128906 580.003906 205.269531 578.144531 C 203.40625 576.289062 200.800781 575.171875 198.195312 575.171875 Z M 203.035156 1084.429688 C 203.035156 1087.589844 200.429688 1090.1875 197.261719 1090.1875 C 195.773438 1090.1875 194.285156 1089.632812 193.167969 1088.515625 C 192.050781 1087.402344 191.492188 1085.917969 191.492188 1084.429688 L 192.421875 585.203125 C 192.421875 582.046875 195.027344 579.445312 198.195312 579.445312 C 199.683594 579.445312 201.171875 580.003906 202.289062 581.117188 C 203.40625 582.230469 203.964844 583.71875 203.964844 585.203125 Z M 203.035156 1084.429688 " fill-opacity="1" fill-rule="nonzero"/><path fill="#241f31" d="M 237.660156 575.171875 C 235.054688 575.171875 232.445312 576.289062 230.585938 578.144531 C 228.722656 580.003906 227.605469 582.601562 227.605469 585.203125 L 228.539062 1084.429688 C 228.539062 1090.003906 233.003906 1094.460938 238.589844 1094.460938 C 241.195312 1094.460938 243.800781 1093.347656 245.664062 1091.488281 C 247.527344 1089.632812 248.644531 1087.03125 248.644531 1084.429688 L 247.710938 585.203125 C 247.710938 579.632812 243.242188 575.171875 237.660156 575.171875 Z M 242.683594 1088.515625 C 241.570312 1089.632812 240.078125 1090.1875 238.589844 1090.1875 C 235.425781 1090.1875 232.820312 1087.589844 232.820312 1084.429688 L 231.886719 585.203125 C 231.886719 583.71875 232.445312 582.230469 233.5625 581.117188 C 234.679688 580.003906 236.171875 579.445312 237.660156 579.445312 C 240.824219 579.445312 243.429688 582.046875 243.429688 585.203125 L 244.359375 1084.429688 C 244.359375 1085.917969 243.800781 1087.402344 242.683594 1088.515625 Z M 242.683594 1088.515625 " fill-opacity="1" fill-rule="nonzero"/><g clip-path="url(#60e62bb76a)"><path fill="#241f31" d="M 708.207031 424.550781 C 708.390625 424.179688 708.390625 423.992188 708.390625 423.621094 L 705.039062 378.675781 L 471.039062 378.675781 L 467.691406 423.621094 C 467.691406 423.992188 467.691406 424.179688 467.875 424.550781 C 461.359375 426.964844 455.589844 430.867188 451.121094 436.25 C 443.304688 445.910156 440.882812 458.722656 444.792969 471.539062 C 448.515625 483.796875 457.265625 493.269531 467.875 496.613281 C 477.554688 499.582031 490.027344 500.140625 499.894531 497.167969 C 503.246094 499.027344 517.765625 507.570312 511.4375 522.429688 C 503.804688 540.441406 498.59375 552.515625 512.554688 565.144531 L 502.6875 1100.773438 C 500.453125 1101.148438 498.40625 1101.890625 497.101562 1103.375 C 494.308594 1105.976562 493.9375 1110.0625 493.9375 1113.03125 C 486.863281 1115.074219 482.023438 1121.203125 481.652344 1129.378906 C 481.28125 1135.691406 483.886719 1142.933594 490.402344 1146.464844 C 488.167969 1148.878906 485.1875 1152.777344 485.375 1157.234375 C 485.5625 1160.578125 487.421875 1163.734375 491.144531 1166.335938 C 489.097656 1168.566406 487.609375 1172.09375 489.097656 1176.550781 C 487.050781 1177.109375 484.445312 1178.035156 482.394531 1180.453125 C 479.789062 1183.421875 478.671875 1187.695312 479.046875 1193.082031 L 455.777344 1193.082031 C 454.660156 1193.082031 453.726562 1194.007812 453.726562 1195.125 L 453.726562 1236.539062 C 453.726562 1237.65625 454.660156 1238.582031 455.777344 1238.582031 L 720.121094 1238.582031 C 721.234375 1238.582031 722.167969 1237.65625 722.167969 1236.539062 L 722.167969 1195.125 C 722.167969 1194.007812 721.234375 1193.082031 720.121094 1193.082031 L 697.40625 1193.082031 C 697.78125 1187.695312 696.664062 1183.421875 694.058594 1180.453125 C 692.007812 1178.035156 689.402344 1177.109375 687.355469 1176.550781 C 688.84375 1172.09375 687.167969 1168.566406 685.308594 1166.335938 C 688.84375 1163.734375 690.894531 1160.578125 691.078125 1157.234375 C 691.265625 1152.777344 688.285156 1148.878906 686.050781 1146.464844 C 692.566406 1142.933594 695.175781 1135.691406 694.800781 1129.378906 C 694.429688 1121.390625 689.589844 1115.074219 682.515625 1113.03125 C 682.515625 1110.0625 681.957031 1105.976562 679.351562 1103.191406 C 677.863281 1101.703125 676 1100.960938 673.765625 1100.589844 L 663.898438 564.957031 C 677.863281 552.144531 672.648438 540.257812 665.015625 522.242188 C 658.6875 507.382812 673.019531 498.65625 676.558594 496.984375 C 686.238281 499.957031 698.898438 499.398438 708.578125 496.425781 C 719.003906 493.082031 727.9375 483.613281 731.660156 471.355469 C 735.570312 458.539062 733.148438 445.722656 725.332031 436.066406 C 720.492188 431.050781 714.722656 427.152344 708.207031 424.550781 Z M 474.949219 382.949219 L 700.945312 382.949219 L 701.503906 390.191406 L 474.390625 390.191406 Z M 474.019531 394.277344 L 701.875 394.277344 L 702.433594 402.078125 L 473.460938 402.078125 Z M 473.089844 406.164062 L 702.621094 406.164062 L 703.363281 416.9375 C 703.179688 416.9375 702.992188 416.75 702.621094 416.75 L 472.902344 416.75 C 472.714844 416.75 472.53125 416.75 472.15625 416.9375 Z M 471.972656 420.835938 C 472.34375 421.023438 472.53125 421.023438 472.902344 421.023438 L 702.808594 421.023438 C 703.179688 421.023438 703.550781 420.835938 703.738281 420.835938 L 703.921875 423.25 C 686.609375 418.421875 664.457031 422.878906 646.585938 436.25 L 529.121094 436.25 C 511.066406 422.878906 489.097656 418.421875 471.785156 423.25 Z M 587.390625 505.339844 C 587.574219 505.339844 587.761719 505.339844 587.949219 505.339844 C 588.132812 505.339844 588.320312 505.339844 588.507812 505.339844 C 601.722656 501.8125 608.050781 481.941406 609.914062 474.511719 C 613.636719 476.925781 616.242188 479.339844 617.917969 480.824219 C 610.101562 502 606.191406 523.171875 605.074219 529.300781 L 570.820312 529.300781 C 569.703125 522.984375 565.792969 502 557.976562 480.824219 C 559.652344 479.152344 562.257812 476.738281 565.980469 474.511719 C 567.84375 482.125 574.171875 501.8125 587.390625 505.339844 Z M 569.703125 472.28125 C 574.730469 469.683594 580.875 467.453125 587.949219 467.453125 C 595.023438 467.453125 601.164062 469.496094 606.191406 472.28125 C 604.886719 477.855469 599.304688 497.539062 587.949219 501.253906 C 576.59375 497.539062 571.007812 477.855469 569.703125 472.28125 Z M 609.726562 469.496094 C 603.957031 466.152344 596.511719 463.367188 587.949219 463.367188 C 579.382812 463.367188 571.9375 466.152344 566.167969 469.496094 C 561.886719 471.910156 558.535156 474.695312 556.300781 476.738281 C 550.714844 462.808594 543.457031 449.253906 534.148438 440.523438 L 641.5625 440.523438 C 632.253906 449.4375 624.992188 462.808594 619.410156 476.738281 C 617.359375 474.695312 614.007812 471.910156 609.726562 469.496094 Z M 499.335938 493.082031 C 499.152344 493.082031 499.152344 493.082031 499.335938 493.082031 C 490.402344 495.871094 478.113281 495.496094 468.992188 492.710938 C 459.871094 489.925781 452.054688 481.382812 448.703125 470.425781 C 445.164062 459.097656 447.210938 447.582031 454.285156 439.039062 C 458.195312 434.394531 463.222656 430.867188 468.992188 428.636719 C 455.03125 441.082031 450.75 456.867188 457.636719 472.839844 C 462.664062 484.726562 472.15625 492.710938 482.769531 494.382812 C 484.070312 494.570312 485.1875 494.753906 486.492188 494.753906 C 492.820312 494.753906 498.40625 492.15625 502.5 487.511719 C 509.574219 479.339844 512.925781 468.753906 510.878906 460.394531 C 509.574219 455.195312 506.222656 451.296875 501.382812 449.4375 C 493.566406 446.464844 485.933594 446.835938 481.09375 450.738281 C 477.929688 453.152344 474.390625 457.980469 475.507812 467.082031 C 476.625 476.925781 482.582031 480.453125 487.238281 480.453125 C 492.449219 480.453125 496.542969 476.554688 497.101562 471.726562 C 497.660156 466.523438 495.613281 464.296875 494.125 463.183594 C 491.332031 461.511719 487.980469 462.625 486.304688 463.554688 C 485.375 464.109375 485.003906 465.410156 485.746094 466.523438 C 486.304688 467.453125 487.609375 467.824219 488.726562 467.082031 C 489.46875 466.523438 491.144531 466.152344 492.261719 466.710938 C 493.195312 467.269531 493.566406 468.753906 493.378906 471.167969 C 493.007812 474.324219 490.214844 476.183594 487.796875 476.183594 C 484.628906 476.183594 481.09375 473.582031 480.347656 466.523438 C 479.789062 460.765625 481.09375 456.496094 484.257812 453.894531 C 487.980469 450.921875 494.125 450.738281 500.640625 453.152344 C 504.175781 454.636719 506.597656 457.425781 507.714844 461.140625 C 509.390625 468.011719 506.410156 477.484375 500.265625 484.539062 C 496.359375 488.996094 490.585938 491.039062 484.445312 490.113281 C 475.324219 488.625 467.132812 481.570312 462.664062 470.980469 C 452.984375 448.324219 469.179688 433.28125 479.789062 426.222656 C 479.976562 426.035156 480.164062 425.851562 480.164062 425.851562 C 495.800781 423.621094 514.414062 428.636719 529.679688 440.707031 C 554.253906 460.210938 565.609375 517.042969 567.84375 529.300781 L 556.859375 529.300781 C 550.902344 492.15625 538.242188 465.78125 518.140625 449.066406 C 517.394531 448.507812 516.277344 448.507812 515.53125 449.066406 C 514.789062 449.625 514.601562 450.738281 514.972656 451.667969 C 521.304688 462.996094 516.464844 481.195312 508.273438 488.625 C 504.921875 490.667969 502.316406 492.15625 499.335938 493.082031 Z M 520.371094 458.167969 C 536.007812 474.140625 546.25 497.726562 551.273438 529.484375 L 536.382812 529.484375 C 535.265625 502.183594 519.253906 492.527344 512.179688 489.554688 C 518.695312 481.753906 522.421875 469.125 520.371094 458.167969 Z M 504.734375 495.3125 C 506.222656 494.570312 507.714844 493.640625 508.832031 492.710938 C 513.113281 494.011719 530.984375 501.253906 532.101562 529.484375 L 512.738281 529.484375 C 513.484375 527.8125 514.230469 526.140625 514.972656 524.285156 C 520.929688 510.542969 512.367188 500.328125 504.734375 495.3125 Z M 695.175781 1197.539062 L 718.070312 1197.539062 L 718.070312 1234.867188 L 457.824219 1234.867188 L 457.824219 1197.539062 Z M 690.894531 1183.421875 C 692.753906 1185.652344 693.683594 1188.996094 693.3125 1193.265625 L 482.582031 1193.265625 C 482.210938 1188.808594 482.953125 1185.652344 484.816406 1183.421875 C 487.421875 1180.453125 491.332031 1180.453125 491.519531 1180.453125 L 684.191406 1180.453125 C 684.5625 1180.453125 688.285156 1180.453125 690.894531 1183.421875 Z M 494.683594 1168.378906 L 681.210938 1168.378906 C 682.515625 1169.308594 685.121094 1171.90625 683.074219 1176.367188 L 492.820312 1176.367188 C 490.960938 1171.90625 493.566406 1169.308594 494.683594 1168.378906 Z M 686.796875 1157.234375 C 686.609375 1159.648438 684.75 1162.066406 681.210938 1164.292969 L 494.683594 1164.292969 C 491.144531 1162.066406 489.285156 1159.835938 489.097656 1157.234375 C 488.910156 1153.519531 492.636719 1149.808594 494.496094 1148.136719 L 681.210938 1148.136719 C 682.703125 1149.25 686.984375 1153.148438 686.796875 1157.234375 Z M 680.09375 1116.933594 C 687.355469 1118.234375 690.335938 1124.363281 690.519531 1129.75 C 690.894531 1135.320312 688.285156 1141.820312 681.769531 1143.863281 L 494.125 1143.863281 C 487.609375 1141.820312 485.003906 1135.320312 485.375 1129.75 C 485.746094 1124.546875 488.539062 1118.417969 495.800781 1116.933594 Z M 671.347656 1105.046875 C 673.394531 1105.046875 675.070312 1105.605469 676.1875 1106.53125 C 677.675781 1108.019531 678.046875 1110.617188 678.234375 1112.847656 L 497.847656 1112.847656 C 497.847656 1110.617188 498.21875 1108.019531 499.894531 1106.53125 C 500.824219 1105.605469 502.5 1105.046875 504.550781 1105.046875 C 504.550781 1105.046875 504.734375 1105.046875 504.734375 1105.046875 Z M 669.296875 1100.773438 L 506.597656 1100.773438 L 516.464844 566.628906 L 659.433594 566.628906 Z M 660.734375 562.359375 L 515.347656 562.359375 C 512.367188 559.574219 510.320312 556.972656 509.203125 554.1875 L 667.066406 554.1875 C 665.761719 556.972656 663.714844 559.574219 660.734375 562.359375 Z M 667.996094 549.914062 L 507.898438 549.914062 C 507.714844 547.871094 507.714844 545.644531 508.273438 543.230469 L 667.621094 543.230469 C 667.996094 545.644531 668.179688 547.871094 667.996094 549.914062 Z M 664.644531 533.570312 C 665.390625 535.429688 665.949219 537.285156 666.507812 538.957031 L 509.203125 538.957031 C 509.761719 537.285156 510.320312 535.429688 511.066406 533.570312 Z M 663.714844 489.554688 C 656.640625 492.527344 640.628906 502.183594 639.511719 529.484375 L 624.621094 529.484375 C 629.648438 497.726562 639.886719 474.140625 655.523438 458.167969 C 653.476562 469.125 657.199219 481.753906 663.714844 489.554688 Z M 660.921875 524.285156 C 661.664062 526.140625 662.410156 527.8125 663.15625 529.484375 L 643.792969 529.484375 C 644.910156 501.253906 662.78125 494.011719 667.066406 492.710938 C 668.367188 493.640625 669.671875 494.570312 671.160156 495.3125 C 663.527344 500.328125 654.964844 510.542969 660.921875 524.285156 Z M 727.191406 470.425781 C 723.84375 481.382812 716.210938 489.925781 706.902344 492.710938 C 697.78125 495.496094 685.679688 496.054688 676.746094 493.082031 C 673.765625 492.15625 670.972656 490.667969 668.925781 488.8125 C 660.734375 481.195312 655.894531 462.996094 662.222656 451.851562 C 662.78125 450.921875 662.597656 449.808594 661.664062 449.253906 C 660.921875 448.695312 659.804688 448.695312 659.058594 449.253906 C 638.953125 465.96875 626.296875 492.339844 620.339844 529.484375 L 609.355469 529.484375 C 611.589844 517.226562 622.757812 460.394531 647.519531 440.894531 C 662.78125 428.824219 681.398438 423.808594 697.035156 426.035156 C 697.222656 426.222656 697.222656 426.40625 697.40625 426.40625 C 708.019531 433.464844 724.214844 448.507812 714.535156 471.167969 C 710.066406 481.753906 701.875 488.8125 692.753906 490.296875 C 686.609375 491.226562 680.652344 489.183594 676.929688 484.726562 C 670.789062 477.667969 667.808594 468.195312 669.484375 461.324219 C 670.414062 457.425781 672.835938 454.636719 676.558594 453.339844 C 682.886719 450.921875 689.03125 451.109375 692.941406 454.082031 C 696.105469 456.496094 697.59375 460.953125 696.851562 466.710938 C 696.105469 473.769531 692.566406 476.367188 689.402344 476.367188 C 686.796875 476.367188 684.003906 474.511719 683.820312 471.355469 C 683.632812 468.9375 684.003906 467.453125 684.9375 466.894531 C 685.867188 466.339844 687.542969 466.710938 688.472656 467.269531 C 689.402344 467.824219 690.707031 467.640625 691.449219 466.710938 C 692.007812 465.78125 691.824219 464.480469 690.894531 463.738281 C 689.21875 462.625 685.679688 461.695312 683.074219 463.367188 C 681.398438 464.296875 679.535156 466.710938 679.910156 471.910156 C 680.28125 476.925781 684.5625 480.640625 689.777344 480.640625 C 689.777344 480.640625 689.777344 480.640625 689.960938 480.640625 C 694.617188 480.640625 700.386719 477.109375 701.503906 467.269531 C 702.621094 457.980469 699.082031 453.339844 695.917969 450.921875 C 690.894531 447.023438 683.261719 446.652344 675.628906 449.625 C 670.789062 451.480469 667.4375 455.382812 666.132812 460.582031 C 664.085938 468.753906 667.25 479.527344 674.511719 487.699219 C 678.605469 492.339844 684.191406 494.941406 690.519531 494.941406 C 691.824219 494.941406 692.941406 494.753906 694.242188 494.570312 C 704.855469 492.898438 714.164062 484.910156 719.375 473.023438 C 726.261719 457.050781 722.167969 441.265625 708.019531 428.824219 C 713.789062 431.050781 718.816406 434.578125 722.726562 439.222656 C 728.683594 447.582031 730.542969 458.910156 727.191406 470.425781 Z M 727.191406 470.425781 " fill-opacity="1" fill-rule="nonzero"/></g><path fill="#241f31" d="M 536.007812 575.171875 C 530.609375 575.171875 525.957031 579.632812 525.957031 585.015625 L 519.628906 1084.246094 C 519.628906 1086.847656 520.558594 1089.445312 522.421875 1091.304688 C 524.28125 1093.160156 526.703125 1094.273438 529.496094 1094.273438 C 534.894531 1094.273438 539.546875 1089.816406 539.546875 1084.429688 L 545.875 585.203125 C 545.875 582.601562 544.945312 580.003906 543.082031 578.144531 C 541.222656 576.289062 538.617188 575.171875 536.007812 575.171875 Z M 535.453125 1084.246094 C 535.453125 1087.402344 532.84375 1090.003906 529.496094 1090.003906 C 528.003906 1090.003906 526.515625 1089.445312 525.398438 1088.332031 C 524.28125 1087.21875 523.722656 1085.730469 523.722656 1084.246094 L 530.050781 585.015625 C 530.050781 581.859375 532.660156 579.257812 536.007812 579.257812 C 537.5 579.257812 538.988281 579.816406 540.105469 580.929688 C 541.222656 582.046875 541.78125 583.53125 541.78125 585.015625 Z M 535.453125 1084.246094 " fill-opacity="1" fill-rule="nonzero"/><path fill="#241f31" d="M 639.886719 575.171875 C 637.28125 575.171875 634.671875 576.289062 632.8125 578.144531 C 630.949219 580.003906 630.019531 582.601562 630.019531 585.203125 L 636.347656 1084.429688 C 636.347656 1090.003906 641.003906 1094.273438 646.402344 1094.273438 C 649.007812 1094.273438 651.613281 1093.160156 653.476562 1091.304688 C 655.335938 1089.445312 656.265625 1086.847656 656.265625 1084.246094 L 649.9375 585.015625 C 649.9375 579.632812 645.285156 575.171875 639.886719 575.171875 Z M 650.496094 1088.515625 C 649.378906 1089.632812 648.078125 1090.1875 646.402344 1090.1875 C 643.234375 1090.1875 640.628906 1087.589844 640.445312 1084.429688 L 634.113281 585.203125 C 634.113281 583.71875 634.671875 582.230469 635.789062 581.117188 C 636.90625 580.003906 638.210938 579.445312 639.886719 579.445312 C 643.050781 579.445312 645.65625 582.046875 645.84375 585.203125 L 652.171875 1084.429688 C 652.171875 1085.917969 651.613281 1087.402344 650.496094 1088.515625 Z M 650.496094 1088.515625 " fill-opacity="1" fill-rule="nonzero"/><path fill="#241f31" d="M 568.214844 575.171875 C 562.628906 575.171875 558.164062 579.632812 558.164062 585.203125 L 557.230469 1084.429688 C 557.230469 1087.03125 558.347656 1089.632812 560.210938 1091.488281 C 562.070312 1093.347656 564.679688 1094.460938 567.285156 1094.460938 C 572.867188 1094.460938 577.335938 1090.003906 577.335938 1084.429688 L 578.265625 585.203125 C 578.265625 582.601562 577.152344 580.003906 575.289062 578.144531 C 573.425781 576.289062 570.820312 575.171875 568.214844 575.171875 Z M 573.054688 1084.429688 C 573.054688 1087.589844 570.449219 1090.1875 567.285156 1090.1875 C 565.792969 1090.1875 564.304688 1089.632812 563.1875 1088.515625 C 562.070312 1087.402344 561.511719 1085.917969 561.511719 1084.429688 L 562.445312 585.203125 C 562.445312 582.046875 565.050781 579.445312 568.214844 579.445312 C 569.703125 579.445312 571.195312 580.003906 572.308594 581.117188 C 573.425781 582.230469 573.984375 583.71875 573.984375 585.203125 Z M 573.054688 1084.429688 " fill-opacity="1" fill-rule="nonzero"/><path fill="#241f31" d="M 607.679688 575.171875 C 605.074219 575.171875 602.46875 576.289062 600.605469 578.144531 C 598.746094 580.003906 597.628906 582.601562 597.628906 585.203125 L 598.558594 1084.429688 C 598.558594 1090.003906 603.027344 1094.460938 608.609375 1094.460938 C 611.21875 1094.460938 613.824219 1093.347656 615.683594 1091.488281 C 617.546875 1089.632812 618.664062 1087.03125 618.664062 1084.429688 L 617.734375 585.203125 C 617.734375 579.632812 613.265625 575.171875 607.679688 575.171875 Z M 612.707031 1088.515625 C 611.589844 1089.632812 610.101562 1090.1875 608.609375 1090.1875 C 605.445312 1090.1875 602.839844 1087.589844 602.839844 1084.429688 L 601.910156 585.203125 C 601.910156 583.71875 602.46875 582.230469 603.585938 581.117188 C 604.703125 580.003906 606.191406 579.445312 607.679688 579.445312 C 610.84375 579.445312 613.449219 582.046875 613.449219 585.203125 L 614.382812 1084.429688 C 614.382812 1085.917969 613.824219 1087.402344 612.707031 1088.515625 Z M 612.707031 1088.515625 " fill-opacity="1" fill-rule="nonzero"/><g clip-path="url(#64c7674df3)"><path fill="#241f31" d="M 1078.226562 424.550781 C 1078.414062 424.179688 1078.414062 423.992188 1078.414062 423.621094 L 1075.0625 378.675781 L 841.0625 378.675781 L 837.710938 423.621094 C 837.710938 423.992188 837.710938 424.179688 837.898438 424.550781 C 831.382812 426.964844 825.609375 430.867188 821.144531 436.25 C 813.324219 445.910156 810.902344 458.722656 814.8125 471.539062 C 818.535156 483.796875 827.285156 493.269531 837.898438 496.613281 C 847.578125 499.582031 860.050781 500.140625 869.917969 497.167969 C 873.265625 499.027344 887.789062 507.570312 881.457031 522.429688 C 873.824219 540.441406 868.613281 552.515625 882.574219 565.144531 L 872.707031 1100.773438 C 870.472656 1101.148438 868.425781 1101.890625 867.125 1103.375 C 864.332031 1105.976562 863.960938 1110.0625 863.960938 1113.03125 C 856.886719 1115.074219 852.046875 1121.203125 851.671875 1129.378906 C 851.300781 1135.691406 853.90625 1142.933594 860.421875 1146.464844 C 858.1875 1148.878906 855.210938 1152.777344 855.394531 1157.234375 C 855.582031 1160.578125 857.445312 1163.734375 861.167969 1166.335938 C 859.117188 1168.566406 857.628906 1172.09375 859.117188 1176.550781 C 857.070312 1177.109375 854.464844 1178.035156 852.417969 1180.453125 C 849.8125 1183.421875 848.695312 1187.695312 849.066406 1193.082031 L 825.796875 1193.082031 C 824.679688 1193.082031 823.75 1194.007812 823.75 1195.125 L 823.75 1236.539062 C 823.75 1237.65625 824.679688 1238.582031 825.796875 1238.582031 L 1090.140625 1238.582031 C 1091.257812 1238.582031 1092.1875 1237.65625 1092.1875 1236.539062 L 1092.1875 1195.125 C 1092.1875 1194.007812 1091.257812 1193.082031 1090.140625 1193.082031 L 1067.429688 1193.082031 C 1067.800781 1187.695312 1066.683594 1183.421875 1064.078125 1180.453125 C 1062.03125 1178.035156 1059.425781 1177.109375 1057.375 1176.550781 C 1058.867188 1172.09375 1057.191406 1168.566406 1055.328125 1166.335938 C 1058.867188 1163.734375 1060.914062 1160.578125 1061.101562 1157.234375 C 1061.285156 1152.777344 1058.308594 1148.878906 1056.074219 1146.464844 C 1062.589844 1142.933594 1065.195312 1135.691406 1064.824219 1129.378906 C 1064.449219 1121.390625 1059.609375 1115.074219 1052.535156 1113.03125 C 1052.535156 1110.0625 1051.976562 1105.976562 1049.371094 1103.191406 C 1047.882812 1101.703125 1046.019531 1100.960938 1043.785156 1100.589844 L 1033.921875 564.957031 C 1047.882812 552.144531 1042.671875 540.257812 1035.039062 522.242188 C 1028.707031 507.382812 1043.042969 498.65625 1046.578125 496.984375 C 1056.257812 499.957031 1068.917969 499.398438 1078.597656 496.425781 C 1089.023438 493.082031 1097.957031 483.613281 1101.683594 471.355469 C 1105.589844 458.539062 1103.171875 445.722656 1095.351562 436.066406 C 1090.511719 431.050781 1084.742188 427.152344 1078.226562 424.550781 Z M 844.972656 382.949219 L 1070.964844 382.949219 L 1071.523438 390.191406 L 844.414062 390.191406 Z M 844.039062 394.277344 L 1071.898438 394.277344 L 1072.457031 402.078125 L 843.480469 402.078125 Z M 843.109375 406.164062 L 1072.640625 406.164062 L 1073.386719 416.9375 C 1073.199219 416.9375 1073.015625 416.75 1072.640625 416.75 L 842.921875 416.75 C 842.738281 416.75 842.550781 416.75 842.179688 416.9375 Z M 841.992188 420.835938 C 842.363281 421.023438 842.550781 421.023438 842.921875 421.023438 L 1072.828125 421.023438 C 1073.199219 421.023438 1073.570312 420.835938 1073.757812 420.835938 L 1073.945312 423.25 C 1056.632812 418.421875 1034.480469 422.878906 1016.609375 436.25 L 899.144531 436.25 C 881.085938 422.878906 859.117188 418.421875 841.804688 423.25 Z M 957.410156 505.339844 C 957.597656 505.339844 957.78125 505.339844 957.96875 505.339844 C 958.15625 505.339844 958.339844 505.339844 958.527344 505.339844 C 971.746094 501.8125 978.074219 481.941406 979.933594 474.511719 C 983.660156 476.925781 986.265625 479.339844 987.941406 480.824219 C 980.121094 502 976.210938 523.171875 975.09375 529.300781 L 940.84375 529.300781 C 939.726562 522.984375 935.816406 502 927.996094 480.824219 C 929.671875 479.152344 932.277344 476.738281 936.003906 474.511719 C 937.863281 482.125 944.191406 501.8125 957.410156 505.339844 Z M 939.726562 472.28125 C 944.75 469.683594 950.894531 467.453125 957.96875 467.453125 C 965.042969 467.453125 971.1875 469.496094 976.210938 472.28125 C 974.910156 477.855469 969.324219 497.539062 957.96875 501.253906 C 946.613281 497.539062 941.027344 477.855469 939.726562 472.28125 Z M 979.75 469.496094 C 973.976562 466.152344 966.53125 463.367188 957.96875 463.367188 C 949.40625 463.367188 941.960938 466.152344 936.1875 469.496094 C 931.90625 471.910156 928.554688 474.695312 926.320312 476.738281 C 920.738281 462.808594 913.476562 449.253906 904.167969 440.523438 L 1011.582031 440.523438 C 1002.273438 449.4375 995.015625 462.808594 989.429688 476.738281 C 987.382812 474.695312 984.03125 471.910156 979.75 469.496094 Z M 869.359375 493.082031 C 869.171875 493.082031 869.171875 493.082031 869.359375 493.082031 C 860.421875 495.871094 848.136719 495.496094 839.015625 492.710938 C 829.890625 489.925781 822.074219 481.382812 818.722656 470.425781 C 815.1875 459.097656 817.234375 447.582031 824.308594 439.039062 C 828.21875 434.394531 833.242188 430.867188 839.015625 428.636719 C 825.050781 441.082031 820.769531 456.867188 827.660156 472.839844 C 832.683594 484.726562 842.179688 492.710938 852.789062 494.382812 C 854.09375 494.570312 855.210938 494.753906 856.511719 494.753906 C 862.84375 494.753906 868.425781 492.15625 872.523438 487.511719 C 879.597656 479.339844 882.945312 468.753906 880.898438 460.394531 C 879.597656 455.195312 876.246094 451.296875 871.40625 449.4375 C 863.585938 446.464844 855.953125 446.835938 851.113281 450.738281 C 847.949219 453.152344 844.414062 457.980469 845.53125 467.082031 C 846.644531 476.925781 852.601562 480.453125 857.257812 480.453125 C 862.46875 480.453125 866.566406 476.554688 867.125 471.726562 C 867.683594 466.523438 865.632812 464.296875 864.144531 463.183594 C 861.351562 461.511719 858.003906 462.625 856.328125 463.554688 C 855.394531 464.109375 855.023438 465.410156 855.769531 466.523438 C 856.328125 467.453125 857.628906 467.824219 858.746094 467.082031 C 859.492188 466.523438 861.167969 466.152344 862.285156 466.710938 C 863.214844 467.269531 863.585938 468.753906 863.402344 471.167969 C 863.027344 474.324219 860.234375 476.183594 857.816406 476.183594 C 854.652344 476.183594 851.113281 473.582031 850.371094 466.523438 C 849.8125 460.765625 851.113281 456.496094 854.277344 453.894531 C 858.003906 450.921875 864.144531 450.738281 870.660156 453.152344 C 874.199219 454.636719 876.617188 457.425781 877.734375 461.140625 C 879.410156 468.011719 876.433594 477.484375 870.289062 484.539062 C 866.378906 488.996094 860.609375 491.039062 854.464844 490.113281 C 845.34375 488.625 837.152344 481.570312 832.683594 470.980469 C 823.003906 448.324219 839.199219 433.28125 849.8125 426.222656 C 849.996094 426.035156 850.183594 425.851562 850.183594 425.851562 C 865.820312 423.621094 884.4375 428.636719 899.703125 440.707031 C 924.273438 460.210938 935.628906 517.042969 937.863281 529.300781 L 926.878906 529.300781 C 920.921875 492.15625 908.265625 465.78125 888.160156 449.066406 C 887.414062 448.507812 886.296875 448.507812 885.554688 449.066406 C 884.808594 449.625 884.621094 450.738281 884.996094 451.667969 C 891.324219 462.996094 886.484375 481.195312 878.292969 488.625 C 874.941406 490.667969 872.335938 492.15625 869.359375 493.082031 Z M 890.394531 458.167969 C 906.03125 474.140625 916.269531 497.726562 921.296875 529.484375 L 906.402344 529.484375 C 905.285156 502.183594 889.277344 492.527344 882.203125 489.554688 C 888.71875 481.753906 892.441406 469.125 890.394531 458.167969 Z M 874.757812 495.3125 C 876.246094 494.570312 877.734375 493.640625 878.851562 492.710938 C 883.132812 494.011719 901.003906 501.253906 902.121094 529.484375 L 882.761719 529.484375 C 883.503906 527.8125 884.25 526.140625 884.996094 524.285156 C 890.953125 510.542969 882.386719 500.328125 874.757812 495.3125 Z M 1065.195312 1197.539062 L 1088.09375 1197.539062 L 1088.09375 1234.867188 L 827.84375 1234.867188 L 827.84375 1197.539062 Z M 1060.914062 1183.421875 C 1062.773438 1185.652344 1063.707031 1188.996094 1063.332031 1193.265625 L 852.601562 1193.265625 C 852.230469 1188.808594 852.976562 1185.652344 854.835938 1183.421875 C 857.445312 1180.453125 861.351562 1180.453125 861.539062 1180.453125 L 1054.210938 1180.453125 C 1054.585938 1180.453125 1058.308594 1180.453125 1060.914062 1183.421875 Z M 864.703125 1168.378906 L 1051.234375 1168.378906 C 1052.535156 1169.308594 1055.144531 1171.90625 1053.09375 1176.367188 L 862.84375 1176.367188 C 860.980469 1171.90625 863.585938 1169.308594 864.703125 1168.378906 Z M 1056.816406 1157.234375 C 1056.632812 1159.648438 1054.769531 1162.066406 1051.234375 1164.292969 L 864.703125 1164.292969 C 861.167969 1162.066406 859.304688 1159.835938 859.117188 1157.234375 C 858.933594 1153.519531 862.65625 1149.808594 864.515625 1148.136719 L 1051.234375 1148.136719 C 1052.722656 1149.25 1057.003906 1153.148438 1056.816406 1157.234375 Z M 1050.117188 1116.933594 C 1057.375 1118.234375 1060.355469 1124.363281 1060.542969 1129.75 C 1060.914062 1135.320312 1058.308594 1141.820312 1051.792969 1143.863281 L 864.144531 1143.863281 C 857.628906 1141.820312 855.023438 1135.320312 855.394531 1129.75 C 855.769531 1124.546875 858.5625 1118.417969 865.820312 1116.933594 Z M 1041.367188 1105.046875 C 1043.414062 1105.046875 1045.089844 1105.605469 1046.207031 1106.53125 C 1047.695312 1108.019531 1048.070312 1110.617188 1048.253906 1112.847656 L 867.867188 1112.847656 C 867.867188 1110.617188 868.242188 1108.019531 869.917969 1106.53125 C 870.847656 1105.605469 872.523438 1105.046875 874.570312 1105.046875 C 874.570312 1105.046875 874.757812 1105.046875 874.757812 1105.046875 Z M 1039.320312 1100.773438 L 876.617188 1100.773438 L 886.484375 566.628906 L 1029.453125 566.628906 Z M 1030.757812 562.359375 L 885.367188 562.359375 C 882.386719 559.574219 880.339844 556.972656 879.222656 554.1875 L 1037.085938 554.1875 C 1035.78125 556.972656 1033.734375 559.574219 1030.757812 562.359375 Z M 1038.015625 549.914062 L 877.921875 549.914062 C 877.734375 547.871094 877.734375 545.644531 878.292969 543.230469 L 1037.644531 543.230469 C 1038.015625 545.644531 1038.203125 547.871094 1038.015625 549.914062 Z M 1034.664062 533.570312 C 1035.410156 535.429688 1035.96875 537.285156 1036.527344 538.957031 L 879.222656 538.957031 C 879.78125 537.285156 880.339844 535.429688 881.085938 533.570312 Z M 1033.734375 489.554688 C 1026.660156 492.527344 1010.652344 502.183594 1009.535156 529.484375 L 994.640625 529.484375 C 999.667969 497.726562 1009.90625 474.140625 1025.542969 458.167969 C 1023.496094 469.125 1027.21875 481.753906 1033.734375 489.554688 Z M 1030.941406 524.285156 C 1031.6875 526.140625 1032.429688 527.8125 1033.175781 529.484375 L 1013.816406 529.484375 C 1014.933594 501.253906 1032.804688 494.011719 1037.085938 492.710938 C 1038.386719 493.640625 1039.691406 494.570312 1041.179688 495.3125 C 1033.546875 500.328125 1024.984375 510.542969 1030.941406 524.285156 Z M 1097.214844 470.425781 C 1093.863281 481.382812 1086.230469 489.925781 1076.921875 492.710938 C 1067.800781 495.496094 1055.699219 496.054688 1046.765625 493.082031 C 1043.785156 492.15625 1040.996094 490.667969 1038.945312 488.8125 C 1030.757812 481.195312 1025.914062 462.996094 1032.246094 451.851562 C 1032.804688 450.921875 1032.617188 449.808594 1031.6875 449.253906 C 1030.941406 448.695312 1029.824219 448.695312 1029.082031 449.253906 C 1008.976562 465.96875 996.316406 492.339844 990.359375 529.484375 L 979.375 529.484375 C 981.609375 517.226562 992.78125 460.394531 1017.539062 440.894531 C 1032.804688 428.824219 1051.417969 423.808594 1067.058594 426.035156 C 1067.242188 426.222656 1067.242188 426.40625 1067.429688 426.40625 C 1078.039062 433.464844 1094.234375 448.507812 1084.554688 471.167969 C 1080.085938 481.753906 1071.898438 488.8125 1062.773438 490.296875 C 1056.632812 491.226562 1050.675781 489.183594 1046.953125 484.726562 C 1040.808594 477.667969 1037.828125 468.195312 1039.503906 461.324219 C 1040.4375 457.425781 1042.855469 454.636719 1046.578125 453.339844 C 1052.910156 450.921875 1059.050781 451.109375 1062.960938 454.082031 C 1066.125 456.496094 1067.613281 460.953125 1066.871094 466.710938 C 1066.125 473.769531 1062.589844 476.367188 1059.425781 476.367188 C 1056.816406 476.367188 1054.027344 474.511719 1053.839844 471.355469 C 1053.652344 468.9375 1054.027344 467.453125 1054.957031 466.894531 C 1055.886719 466.339844 1057.5625 466.710938 1058.492188 467.269531 C 1059.425781 467.824219 1060.726562 467.640625 1061.472656 466.710938 C 1062.03125 465.78125 1061.84375 464.480469 1060.914062 463.738281 C 1059.238281 462.625 1055.703125 461.695312 1053.09375 463.367188 C 1051.417969 464.296875 1049.558594 466.710938 1049.929688 471.910156 C 1050.300781 476.925781 1054.585938 480.640625 1059.796875 480.640625 C 1059.796875 480.640625 1059.796875 480.640625 1059.984375 480.640625 C 1064.636719 480.640625 1070.40625 477.109375 1071.523438 467.269531 C 1072.640625 457.980469 1069.105469 453.339844 1065.941406 450.921875 C 1060.914062 447.023438 1053.28125 446.652344 1045.648438 449.625 C 1040.808594 451.480469 1037.457031 455.382812 1036.15625 460.582031 C 1034.105469 468.753906 1037.273438 479.527344 1044.53125 487.699219 C 1048.628906 492.339844 1054.210938 494.941406 1060.542969 494.941406 C 1061.84375 494.941406 1062.960938 494.753906 1064.265625 494.570312 C 1074.875 492.898438 1084.183594 484.910156 1089.394531 473.023438 C 1096.285156 457.050781 1092.1875 441.265625 1078.039062 428.824219 C 1083.8125 431.050781 1088.835938 434.578125 1092.746094 439.222656 C 1098.703125 447.582031 1100.566406 458.910156 1097.214844 470.425781 Z M 1097.214844 470.425781 " fill-opacity="1" fill-rule="nonzero"/></g><path fill="#241f31" d="M 906.03125 575.171875 C 900.632812 575.171875 895.976562 579.632812 895.976562 585.015625 L 889.648438 1084.246094 C 889.648438 1086.847656 890.578125 1089.445312 892.441406 1091.304688 C 894.304688 1093.160156 896.722656 1094.273438 899.515625 1094.273438 C 904.914062 1094.273438 909.566406 1089.816406 909.566406 1084.429688 L 915.898438 585.203125 C 915.898438 582.601562 914.964844 580.003906 913.105469 578.144531 C 911.242188 576.289062 908.636719 575.171875 906.03125 575.171875 Z M 905.472656 1084.246094 C 905.472656 1087.402344 902.867188 1090.003906 899.515625 1090.003906 C 898.027344 1090.003906 896.535156 1089.445312 895.417969 1088.332031 C 894.304688 1087.21875 893.746094 1085.730469 893.746094 1084.246094 L 900.074219 585.015625 C 900.074219 581.859375 902.679688 579.257812 906.03125 579.257812 C 907.519531 579.257812 909.007812 579.816406 910.125 580.929688 C 911.242188 582.046875 911.800781 583.53125 911.800781 585.015625 Z M 905.472656 1084.246094 " fill-opacity="1" fill-rule="nonzero"/><path fill="#241f31" d="M 1009.90625 575.171875 C 1007.300781 575.171875 1004.695312 576.289062 1002.832031 578.144531 C 1000.972656 580.003906 1000.039062 582.601562 1000.039062 585.203125 L 1006.371094 1084.429688 C 1006.371094 1090.003906 1011.023438 1094.273438 1016.421875 1094.273438 C 1019.027344 1094.273438 1021.632812 1093.160156 1023.496094 1091.304688 C 1025.359375 1089.445312 1026.289062 1086.847656 1026.289062 1084.246094 L 1019.957031 585.015625 C 1019.957031 579.632812 1015.304688 575.171875 1009.90625 575.171875 Z M 1020.515625 1088.515625 C 1019.402344 1089.632812 1018.097656 1090.1875 1016.421875 1090.1875 C 1013.257812 1090.1875 1010.652344 1087.589844 1010.464844 1084.429688 L 1004.136719 585.203125 C 1004.136719 583.71875 1004.695312 582.230469 1005.8125 581.117188 C 1006.929688 580.003906 1008.230469 579.445312 1009.90625 579.445312 C 1013.070312 579.445312 1015.675781 582.046875 1015.863281 585.203125 L 1022.191406 1084.429688 C 1022.191406 1085.917969 1021.632812 1087.402344 1020.515625 1088.515625 Z M 1020.515625 1088.515625 " fill-opacity="1" fill-rule="nonzero"/><path fill="#241f31" d="M 938.234375 575.171875 C 932.652344 575.171875 928.183594 579.632812 928.183594 585.203125 L 927.253906 1084.429688 C 927.253906 1087.03125 928.371094 1089.632812 930.230469 1091.488281 C 932.09375 1093.347656 934.699219 1094.460938 937.304688 1094.460938 C 942.890625 1094.460938 947.359375 1090.003906 947.359375 1084.429688 L 948.289062 585.203125 C 948.289062 582.601562 947.171875 580.003906 945.308594 578.144531 C 943.449219 576.289062 940.84375 575.171875 938.234375 575.171875 Z M 943.074219 1084.429688 C 943.074219 1087.589844 940.46875 1090.1875 937.304688 1090.1875 C 935.816406 1090.1875 934.328125 1089.632812 933.210938 1088.515625 C 932.09375 1087.402344 931.535156 1085.917969 931.535156 1084.429688 L 932.464844 585.203125 C 932.464844 582.046875 935.070312 579.445312 938.234375 579.445312 C 939.726562 579.445312 941.214844 580.003906 942.332031 581.117188 C 943.449219 582.230469 944.007812 583.71875 944.007812 585.203125 Z M 943.074219 1084.429688 " fill-opacity="1" fill-rule="nonzero"/><path fill="#241f31" d="M 977.703125 575.171875 C 975.09375 575.171875 972.488281 576.289062 970.628906 578.144531 C 968.765625 580.003906 967.648438 582.601562 967.648438 585.203125 L 968.578125 1084.429688 C 968.578125 1090.003906 973.046875 1094.460938 978.632812 1094.460938 C 981.238281 1094.460938 983.84375 1093.347656 985.707031 1091.488281 C 987.566406 1089.632812 988.683594 1087.03125 988.683594 1084.429688 L 987.753906 585.203125 C 987.753906 579.632812 983.285156 575.171875 977.703125 575.171875 Z M 982.726562 1088.515625 C 981.609375 1089.632812 980.121094 1090.1875 978.632812 1090.1875 C 975.46875 1090.1875 972.859375 1087.589844 972.859375 1084.429688 L 971.929688 585.203125 C 971.929688 583.71875 972.488281 582.230469 973.605469 581.117188 C 974.722656 580.003906 976.210938 579.445312 977.703125 579.445312 C 980.867188 579.445312 983.472656 582.046875 983.472656 585.203125 L 984.402344 1084.429688 C 984.402344 1085.917969 983.84375 1087.402344 982.726562 1088.515625 Z M 982.726562 1088.515625 " fill-opacity="1" fill-rule="nonzero"/><g clip-path="url(#df17a8efdc)"><path fill="#241f31" d="M 1448.246094 424.550781 C 1448.433594 424.179688 1448.433594 423.992188 1448.433594 423.621094 L 1445.082031 378.675781 L 1211.082031 378.675781 L 1207.730469 423.621094 C 1207.730469 423.992188 1207.730469 424.179688 1207.917969 424.550781 C 1201.402344 426.964844 1195.632812 430.867188 1191.164062 436.25 C 1183.34375 445.910156 1180.925781 458.722656 1184.835938 471.539062 C 1188.558594 483.796875 1197.308594 493.269531 1207.917969 496.613281 C 1217.597656 499.582031 1230.070312 500.140625 1239.9375 497.167969 C 1243.289062 499.027344 1257.808594 507.570312 1251.480469 522.429688 C 1243.847656 540.441406 1238.632812 552.515625 1252.597656 565.144531 L 1242.730469 1100.773438 C 1240.496094 1101.148438 1238.449219 1101.890625 1237.144531 1103.375 C 1234.351562 1105.976562 1233.980469 1110.0625 1233.980469 1113.03125 C 1226.90625 1115.074219 1222.066406 1121.203125 1221.695312 1129.378906 C 1221.320312 1135.691406 1223.925781 1142.933594 1230.441406 1146.464844 C 1228.210938 1148.878906 1225.230469 1152.777344 1225.417969 1157.234375 C 1225.601562 1160.578125 1227.464844 1163.734375 1231.1875 1166.335938 C 1229.140625 1168.566406 1227.652344 1172.09375 1229.140625 1176.550781 C 1227.09375 1177.109375 1224.484375 1178.035156 1222.4375 1180.453125 C 1219.832031 1183.421875 1218.714844 1187.695312 1219.085938 1193.082031 L 1195.816406 1193.082031 C 1194.699219 1193.082031 1193.769531 1194.007812 1193.769531 1195.125 L 1193.769531 1236.539062 C 1193.769531 1237.65625 1194.699219 1238.582031 1195.816406 1238.582031 L 1460.160156 1238.582031 C 1461.277344 1238.582031 1462.210938 1237.65625 1462.210938 1236.539062 L 1462.210938 1195.125 C 1462.210938 1194.007812 1461.277344 1193.082031 1460.160156 1193.082031 L 1437.449219 1193.082031 C 1437.824219 1187.695312 1436.707031 1183.421875 1434.097656 1180.453125 C 1432.050781 1178.035156 1429.445312 1177.109375 1427.398438 1176.550781 C 1428.886719 1172.09375 1427.210938 1168.566406 1425.351562 1166.335938 C 1428.886719 1163.734375 1430.933594 1160.578125 1431.121094 1157.234375 C 1431.308594 1152.777344 1428.328125 1148.878906 1426.09375 1146.464844 C 1432.609375 1142.933594 1435.214844 1135.691406 1434.84375 1129.378906 C 1434.472656 1121.390625 1429.632812 1115.074219 1422.558594 1113.03125 C 1422.558594 1110.0625 1422 1105.976562 1419.394531 1103.191406 C 1417.902344 1101.703125 1416.042969 1100.960938 1413.808594 1100.589844 L 1403.941406 564.957031 C 1417.902344 552.144531 1412.691406 540.257812 1405.058594 522.242188 C 1398.730469 507.382812 1413.0625 498.65625 1416.601562 496.984375 C 1426.28125 499.957031 1438.9375 499.398438 1448.621094 496.425781 C 1459.042969 493.082031 1467.980469 483.613281 1471.703125 471.355469 C 1475.613281 458.539062 1473.191406 445.722656 1465.375 436.066406 C 1460.535156 431.050781 1454.761719 427.152344 1448.246094 424.550781 Z M 1214.992188 382.949219 L 1440.988281 382.949219 L 1441.546875 390.191406 L 1214.433594 390.191406 Z M 1214.0625 394.277344 L 1441.917969 394.277344 L 1442.476562 402.078125 L 1213.503906 402.078125 Z M 1213.128906 406.164062 L 1442.664062 406.164062 L 1443.40625 416.9375 C 1443.222656 416.9375 1443.035156 416.75 1442.664062 416.75 L 1212.945312 416.75 C 1212.757812 416.75 1212.570312 416.75 1212.199219 416.9375 Z M 1212.011719 420.835938 C 1212.386719 421.023438 1212.570312 421.023438 1212.945312 421.023438 L 1442.847656 421.023438 C 1443.222656 421.023438 1443.59375 420.835938 1443.78125 420.835938 L 1443.964844 423.25 C 1426.652344 418.421875 1404.5 422.878906 1386.628906 436.25 L 1269.164062 436.25 C 1251.105469 422.878906 1229.140625 418.421875 1211.828125 423.25 Z M 1327.429688 505.339844 C 1327.617188 505.339844 1327.804688 505.339844 1327.988281 505.339844 C 1328.175781 505.339844 1328.363281 505.339844 1328.546875 505.339844 C 1341.765625 501.8125 1348.09375 481.941406 1349.957031 474.511719 C 1353.679688 476.925781 1356.285156 479.339844 1357.960938 480.824219 C 1350.140625 502 1346.234375 523.171875 1345.117188 529.300781 L 1310.863281 529.300781 C 1309.746094 522.984375 1305.835938 502 1298.019531 480.824219 C 1299.695312 479.152344 1302.300781 476.738281 1306.023438 474.511719 C 1307.882812 482.125 1314.214844 501.8125 1327.429688 505.339844 Z M 1309.746094 472.28125 C 1314.773438 469.683594 1320.914062 467.453125 1327.988281 467.453125 C 1335.0625 467.453125 1341.207031 469.496094 1346.234375 472.28125 C 1344.929688 477.855469 1339.34375 497.539062 1327.988281 501.253906 C 1316.632812 497.539062 1311.050781 477.855469 1309.746094 472.28125 Z M 1349.769531 469.496094 C 1344 466.152344 1336.554688 463.367188 1327.988281 463.367188 C 1319.425781 463.367188 1311.980469 466.152344 1306.210938 469.496094 C 1301.925781 471.910156 1298.578125 474.695312 1296.34375 476.738281 C 1290.757812 462.808594 1283.496094 449.253906 1274.191406 440.523438 L 1381.601562 440.523438 C 1372.296875 449.4375 1365.035156 462.808594 1359.449219 476.738281 C 1357.402344 474.695312 1354.050781 471.910156 1349.769531 469.496094 Z M 1239.378906 493.082031 C 1239.191406 493.082031 1239.191406 493.082031 1239.378906 493.082031 C 1230.441406 495.871094 1218.15625 495.496094 1209.035156 492.710938 C 1199.914062 489.925781 1192.09375 481.382812 1188.742188 470.425781 C 1185.207031 459.097656 1187.253906 447.582031 1194.328125 439.039062 C 1198.238281 434.394531 1203.265625 430.867188 1209.035156 428.636719 C 1195.074219 441.082031 1190.792969 456.867188 1197.679688 472.839844 C 1202.707031 484.726562 1212.199219 492.710938 1222.8125 494.382812 C 1224.113281 494.570312 1225.230469 494.753906 1226.535156 494.753906 C 1232.863281 494.753906 1238.449219 492.15625 1242.542969 487.511719 C 1249.617188 479.339844 1252.96875 468.753906 1250.921875 460.394531 C 1249.617188 455.195312 1246.265625 451.296875 1241.425781 449.4375 C 1233.609375 446.464844 1225.976562 446.835938 1221.136719 450.738281 C 1217.96875 453.152344 1214.433594 457.980469 1215.550781 467.082031 C 1216.667969 476.925781 1222.625 480.453125 1227.277344 480.453125 C 1232.492188 480.453125 1236.585938 476.554688 1237.144531 471.726562 C 1237.703125 466.523438 1235.65625 464.296875 1234.167969 463.183594 C 1231.375 461.511719 1228.023438 462.625 1226.347656 463.554688 C 1225.417969 464.109375 1225.042969 465.410156 1225.789062 466.523438 C 1226.347656 467.453125 1227.652344 467.824219 1228.769531 467.082031 C 1229.511719 466.523438 1231.1875 466.152344 1232.304688 466.710938 C 1233.234375 467.269531 1233.609375 468.753906 1233.421875 471.167969 C 1233.050781 474.324219 1230.257812 476.183594 1227.835938 476.183594 C 1224.671875 476.183594 1221.136719 473.582031 1220.390625 466.523438 C 1219.832031 460.765625 1221.136719 456.496094 1224.300781 453.894531 C 1228.023438 450.921875 1234.167969 450.738281 1240.683594 453.152344 C 1244.21875 454.636719 1246.640625 457.425781 1247.753906 461.140625 C 1249.429688 468.011719 1246.453125 477.484375 1240.308594 484.539062 C 1236.398438 488.996094 1230.628906 491.039062 1224.484375 490.113281 C 1215.363281 488.625 1207.171875 481.570312 1202.707031 470.980469 C 1193.027344 448.324219 1209.222656 433.28125 1219.832031 426.222656 C 1220.019531 426.035156 1220.203125 425.851562 1220.203125 425.851562 C 1235.839844 423.621094 1254.457031 428.636719 1269.722656 440.707031 C 1294.296875 460.210938 1305.652344 517.042969 1307.882812 529.300781 L 1296.902344 529.300781 C 1290.945312 492.15625 1278.285156 465.78125 1258.179688 449.066406 C 1257.4375 448.507812 1256.320312 448.507812 1255.574219 449.066406 C 1254.828125 449.625 1254.644531 450.738281 1255.015625 451.667969 C 1261.34375 462.996094 1256.503906 481.195312 1248.3125 488.625 C 1244.964844 490.667969 1242.355469 492.15625 1239.378906 493.082031 Z M 1260.414062 458.167969 C 1276.050781 474.140625 1286.289062 497.726562 1291.316406 529.484375 L 1276.425781 529.484375 C 1275.308594 502.183594 1259.296875 492.527344 1252.222656 489.554688 C 1258.738281 481.753906 1262.460938 469.125 1260.414062 458.167969 Z M 1244.777344 495.3125 C 1246.265625 494.570312 1247.753906 493.640625 1248.871094 492.710938 C 1253.15625 494.011719 1271.027344 501.253906 1272.140625 529.484375 L 1252.78125 529.484375 C 1253.527344 527.8125 1254.269531 526.140625 1255.015625 524.285156 C 1260.972656 510.542969 1252.410156 500.328125 1244.777344 495.3125 Z M 1435.214844 1197.539062 L 1458.113281 1197.539062 L 1458.113281 1234.867188 L 1197.867188 1234.867188 L 1197.867188 1197.539062 Z M 1430.933594 1183.421875 C 1432.796875 1185.652344 1433.726562 1188.996094 1433.355469 1193.265625 L 1222.625 1193.265625 C 1222.253906 1188.808594 1222.996094 1185.652344 1224.859375 1183.421875 C 1227.464844 1180.453125 1231.375 1180.453125 1231.558594 1180.453125 L 1424.234375 1180.453125 C 1424.605469 1180.453125 1428.328125 1180.453125 1430.933594 1183.421875 Z M 1234.726562 1168.378906 L 1421.253906 1168.378906 C 1422.558594 1169.308594 1425.164062 1171.90625 1423.117188 1176.367188 L 1232.863281 1176.367188 C 1231 1171.90625 1233.609375 1169.308594 1234.726562 1168.378906 Z M 1426.839844 1157.234375 C 1426.652344 1159.648438 1424.792969 1162.066406 1421.253906 1164.292969 L 1234.726562 1164.292969 C 1231.1875 1162.066406 1229.328125 1159.835938 1229.140625 1157.234375 C 1228.953125 1153.519531 1232.675781 1149.808594 1234.539062 1148.136719 L 1421.253906 1148.136719 C 1422.742188 1149.25 1427.023438 1153.148438 1426.839844 1157.234375 Z M 1420.136719 1116.933594 C 1427.398438 1118.234375 1430.375 1124.363281 1430.5625 1129.75 C 1430.933594 1135.320312 1428.328125 1141.820312 1421.8125 1143.863281 L 1234.167969 1143.863281 C 1227.652344 1141.820312 1225.042969 1135.320312 1225.417969 1129.75 C 1225.789062 1124.546875 1228.582031 1118.417969 1235.839844 1116.933594 Z M 1411.386719 1105.046875 C 1413.4375 1105.046875 1415.109375 1105.605469 1416.226562 1106.53125 C 1417.71875 1108.019531 1418.089844 1110.617188 1418.277344 1112.847656 L 1237.890625 1112.847656 C 1237.890625 1110.617188 1238.261719 1108.019531 1239.9375 1106.53125 C 1240.867188 1105.605469 1242.542969 1105.046875 1244.589844 1105.046875 C 1244.589844 1105.046875 1244.777344 1105.046875 1244.777344 1105.046875 Z M 1409.339844 1100.773438 L 1246.640625 1100.773438 L 1256.503906 566.628906 L 1399.472656 566.628906 Z M 1400.777344 562.359375 L 1255.386719 562.359375 C 1252.410156 559.574219 1250.363281 556.972656 1249.246094 554.1875 L 1407.105469 554.1875 C 1405.804688 556.972656 1403.753906 559.574219 1400.777344 562.359375 Z M 1408.039062 549.914062 L 1247.941406 549.914062 C 1247.753906 547.871094 1247.753906 545.644531 1248.3125 543.230469 L 1407.664062 543.230469 C 1408.039062 545.644531 1408.222656 547.871094 1408.039062 549.914062 Z M 1404.6875 533.570312 C 1405.429688 535.429688 1405.988281 537.285156 1406.546875 538.957031 L 1249.246094 538.957031 C 1249.804688 537.285156 1250.363281 535.429688 1251.105469 533.570312 Z M 1403.753906 489.554688 C 1396.683594 492.527344 1380.671875 502.183594 1379.554688 529.484375 L 1364.664062 529.484375 C 1369.6875 497.726562 1379.925781 474.140625 1395.566406 458.167969 C 1393.515625 469.125 1397.238281 481.753906 1403.753906 489.554688 Z M 1400.964844 524.285156 C 1401.707031 526.140625 1402.453125 527.8125 1403.195312 529.484375 L 1383.835938 529.484375 C 1384.953125 501.253906 1402.824219 494.011719 1407.105469 492.710938 C 1408.410156 493.640625 1409.710938 494.570312 1411.203125 495.3125 C 1403.570312 500.328125 1395.007812 510.542969 1400.964844 524.285156 Z M 1467.234375 470.425781 C 1463.882812 481.382812 1456.25 489.925781 1446.945312 492.710938 C 1437.824219 495.496094 1425.722656 496.054688 1416.785156 493.082031 C 1413.808594 492.15625 1411.015625 490.667969 1408.96875 488.8125 C 1400.777344 481.195312 1395.9375 462.996094 1402.265625 451.851562 C 1402.824219 450.921875 1402.636719 449.808594 1401.707031 449.253906 C 1400.964844 448.695312 1399.847656 448.695312 1399.101562 449.253906 C 1378.996094 465.96875 1366.339844 492.339844 1360.382812 529.484375 L 1349.398438 529.484375 C 1351.632812 517.226562 1362.800781 460.394531 1387.558594 440.894531 C 1402.824219 428.824219 1421.441406 423.808594 1437.078125 426.035156 C 1437.265625 426.222656 1437.265625 426.40625 1437.449219 426.40625 C 1448.0625 433.464844 1464.257812 448.507812 1454.578125 471.167969 C 1450.109375 481.753906 1441.917969 488.8125 1432.796875 490.296875 C 1426.652344 491.226562 1420.695312 489.183594 1416.972656 484.726562 C 1410.828125 477.667969 1407.851562 468.195312 1409.527344 461.324219 C 1410.457031 457.425781 1412.878906 454.636719 1416.601562 453.339844 C 1422.929688 450.921875 1429.074219 451.109375 1432.980469 454.082031 C 1436.148438 456.496094 1437.636719 460.953125 1436.890625 466.710938 C 1436.148438 473.769531 1432.609375 476.367188 1429.445312 476.367188 C 1426.839844 476.367188 1424.046875 474.511719 1423.859375 471.355469 C 1423.675781 468.9375 1424.046875 467.453125 1424.976562 466.894531 C 1425.910156 466.339844 1427.582031 466.710938 1428.515625 467.269531 C 1429.445312 467.824219 1430.75 467.640625 1431.492188 466.710938 C 1432.050781 465.78125 1431.867188 464.480469 1430.933594 463.738281 C 1429.257812 462.625 1425.722656 461.695312 1423.117188 463.367188 C 1421.441406 464.296875 1419.578125 466.710938 1419.953125 471.910156 C 1420.324219 476.925781 1424.605469 480.640625 1429.816406 480.640625 C 1429.816406 480.640625 1429.816406 480.640625 1430.003906 480.640625 C 1434.65625 480.640625 1440.429688 477.109375 1441.546875 467.269531 C 1442.664062 457.980469 1439.125 453.339844 1435.960938 450.921875 C 1430.933594 447.023438 1423.300781 446.652344 1415.667969 449.625 C 1410.828125 451.480469 1407.480469 455.382812 1406.175781 460.582031 C 1404.128906 468.753906 1407.292969 479.527344 1414.550781 487.699219 C 1418.648438 492.339844 1424.234375 494.941406 1430.5625 494.941406 C 1431.867188 494.941406 1432.980469 494.753906 1434.285156 494.570312 C 1444.894531 492.898438 1454.203125 484.910156 1459.417969 473.023438 C 1466.304688 457.050781 1462.210938 441.265625 1448.0625 428.824219 C 1453.832031 431.050781 1458.859375 434.578125 1462.765625 439.222656 C 1468.722656 447.582031 1470.585938 458.910156 1467.234375 470.425781 Z M 1467.234375 470.425781 " fill-opacity="1" fill-rule="nonzero"/></g><path fill="#241f31" d="M 1276.050781 575.171875 C 1270.652344 575.171875 1266 579.632812 1266 585.015625 L 1259.667969 1084.246094 C 1259.667969 1086.847656 1260.601562 1089.445312 1262.460938 1091.304688 C 1264.324219 1093.160156 1266.742188 1094.273438 1269.535156 1094.273438 C 1274.933594 1094.273438 1279.589844 1089.816406 1279.589844 1084.429688 L 1285.917969 585.203125 C 1285.917969 582.601562 1284.988281 580.003906 1283.125 578.144531 C 1281.265625 576.289062 1278.65625 575.171875 1276.050781 575.171875 Z M 1275.492188 1084.246094 C 1275.492188 1087.402344 1272.886719 1090.003906 1269.535156 1090.003906 C 1268.046875 1090.003906 1266.558594 1089.445312 1265.441406 1088.332031 C 1264.324219 1087.21875 1263.765625 1085.730469 1263.765625 1084.246094 L 1270.09375 585.015625 C 1270.09375 581.859375 1272.699219 579.257812 1276.050781 579.257812 C 1277.539062 579.257812 1279.03125 579.816406 1280.148438 580.929688 C 1281.265625 582.046875 1281.824219 583.53125 1281.824219 585.015625 Z M 1275.492188 1084.246094 " fill-opacity="1" fill-rule="nonzero"/><path fill="#241f31" d="M 1379.925781 575.171875 C 1377.320312 575.171875 1374.714844 576.289062 1372.851562 578.144531 C 1370.992188 580.003906 1370.0625 582.601562 1370.0625 585.203125 L 1376.390625 1084.429688 C 1376.390625 1090.003906 1381.042969 1094.273438 1386.441406 1094.273438 C 1389.050781 1094.273438 1391.65625 1093.160156 1393.515625 1091.304688 C 1395.378906 1089.445312 1396.308594 1086.847656 1396.308594 1084.246094 L 1389.980469 585.015625 C 1389.980469 579.632812 1385.324219 575.171875 1379.925781 575.171875 Z M 1390.539062 1088.515625 C 1389.421875 1089.632812 1388.117188 1090.1875 1386.441406 1090.1875 C 1383.277344 1090.1875 1380.671875 1087.589844 1380.484375 1084.429688 L 1374.15625 585.203125 C 1374.15625 583.71875 1374.714844 582.230469 1375.832031 581.117188 C 1376.949219 580.003906 1378.253906 579.445312 1379.925781 579.445312 C 1383.09375 579.445312 1385.699219 582.046875 1385.882812 585.203125 L 1392.214844 1084.429688 C 1392.214844 1085.917969 1391.65625 1087.402344 1390.539062 1088.515625 Z M 1390.539062 1088.515625 " fill-opacity="1" fill-rule="nonzero"/><path fill="#241f31" d="M 1308.257812 575.171875 C 1302.671875 575.171875 1298.203125 579.632812 1298.203125 585.203125 L 1297.273438 1084.429688 C 1297.273438 1087.03125 1298.390625 1089.632812 1300.253906 1091.488281 C 1302.113281 1093.347656 1304.71875 1094.460938 1307.324219 1094.460938 C 1312.910156 1094.460938 1317.378906 1090.003906 1317.378906 1084.429688 L 1318.308594 585.203125 C 1318.308594 582.601562 1317.191406 580.003906 1315.332031 578.144531 C 1313.46875 576.289062 1310.863281 575.171875 1308.257812 575.171875 Z M 1313.097656 1084.429688 C 1313.097656 1087.589844 1310.492188 1090.1875 1307.324219 1090.1875 C 1305.835938 1090.1875 1304.347656 1089.632812 1303.230469 1088.515625 C 1302.113281 1087.402344 1301.554688 1085.917969 1301.554688 1084.429688 L 1302.484375 585.203125 C 1302.484375 582.046875 1305.09375 579.445312 1308.257812 579.445312 C 1309.746094 579.445312 1311.234375 580.003906 1312.351562 581.117188 C 1313.46875 582.230469 1314.027344 583.71875 1314.027344 585.203125 Z M 1313.097656 1084.429688 " fill-opacity="1" fill-rule="nonzero"/><path fill="#241f31" d="M 1347.722656 575.171875 C 1345.117188 575.171875 1342.511719 576.289062 1340.648438 578.144531 C 1338.785156 580.003906 1337.667969 582.601562 1337.667969 585.203125 L 1338.601562 1084.429688 C 1338.601562 1090.003906 1343.066406 1094.460938 1348.652344 1094.460938 C 1351.257812 1094.460938 1353.867188 1093.347656 1355.726562 1091.488281 C 1357.589844 1089.632812 1358.707031 1087.03125 1358.707031 1084.429688 L 1357.773438 585.203125 C 1357.773438 579.632812 1353.308594 575.171875 1347.722656 575.171875 Z M 1352.75 1088.515625 C 1351.632812 1089.632812 1350.140625 1090.1875 1348.652344 1090.1875 C 1345.488281 1090.1875 1342.882812 1087.589844 1342.882812 1084.429688 L 1341.953125 585.203125 C 1341.953125 583.71875 1342.507812 582.230469 1343.625 581.117188 C 1344.742188 580.003906 1346.234375 579.445312 1347.722656 579.445312 C 1350.886719 579.445312 1353.492188 582.046875 1353.492188 585.203125 L 1354.425781 1084.429688 C 1354.425781 1085.917969 1353.867188 1087.402344 1352.75 1088.515625 Z M 1352.75 1088.515625 " fill-opacity="1" fill-rule="nonzero"/></svg>