<svg xmlns="http://www.w3.org/2000/svg" xmlns:xlink="http://www.w3.org/1999/xlink" width="2000" zoomAndPan="magnify" viewBox="0 0 1500 1499.999933" height="2000" preserveAspectRatio="xMidYMid meet" version="1.0"><defs><clipPath id="caa5124023"><path d="M 244.328125 264.976562 L 1255.328125 264.976562 L 1255.328125 1234.726562 L 244.328125 1234.726562 Z M 244.328125 264.976562 " clip-rule="nonzero"/></clipPath></defs><g clip-path="url(#caa5124023)"><path fill="#d9d9d9" d="M 1208.636719 680.636719 L 1239.300781 680.636719 C 1248.308594 680.636719 1255.613281 687.941406 1255.613281 696.949219 L 1255.613281 795.703125 C 1255.613281 802.453125 1251.457031 808.503906 1245.160156 810.925781 C 1245.160156 810.925781 1172.019531 839.074219 1172.023438 839.074219 C 1161.90625 878.113281 1146.324219 915.496094 1125.917969 950.292969 L 1157.6875 1022.019531 C 1160.417969 1028.183594 1159.074219 1035.390625 1154.308594 1040.15625 L 1060.714844 1133.75 C 1055.945312 1138.519531 1048.738281 1139.863281 1042.578125 1137.128906 C 1042.578125 1137.128906 970.882812 1105.375 970.882812 1105.375 C 936.171875 1125.871094 898.6875 1141.363281 859.632812 1151.464844 L 831.484375 1224.601562 C 829.0625 1230.902344 823.007812 1235.054688 816.261719 1235.054688 L 683.871094 1235.054688 C 677.125 1235.054688 671.074219 1230.902344 668.648438 1224.601562 C 668.648438 1224.601562 640.5 1151.472656 640.503906 1151.472656 C 601.347656 1141.355469 563.953125 1125.769531 529.152344 1105.359375 L 457.421875 1137.128906 C 451.261719 1139.863281 444.054688 1138.519531 439.285156 1133.75 L 345.691406 1040.15625 C 340.917969 1035.382812 339.578125 1028.164062 342.320312 1021.996094 C 342.320312 1021.996094 374.195312 950.3125 374.195312 950.3125 C 353.699219 915.609375 338.207031 878.132812 328 839.085938 L 254.839844 810.925781 C 248.542969 808.503906 244.386719 802.453125 244.386719 795.703125 L 244.386719 696.949219 C 244.386719 687.941406 251.691406 680.636719 260.695312 680.636719 L 293.976562 680.636719 C 313.363281 613.625 364.847656 560.238281 430.691406 538.25 C 401.585938 517.261719 382.585938 483.058594 382.585938 444.566406 C 382.585938 381.007812 434.398438 329.144531 497.957031 329.144531 C 561.570312 329.144531 613.378906 381.011719 613.378906 444.566406 C 613.378906 483.058594 594.375 517.265625 565.253906 538.253906 C 571.15625 540.226562 576.945312 542.449219 582.601562 544.910156 C 608.027344 512.359375 642.730469 487.410156 682.738281 474.050781 C 653.632812 453.058594 634.628906 418.859375 634.628906 380.367188 C 634.628906 316.808594 686.441406 264.941406 750 264.941406 C 813.613281 264.941406 865.421875 316.8125 865.421875 380.367188 C 865.421875 418.859375 846.421875 453.0625 817.300781 474.054688 C 857.664062 487.527344 892.621094 512.796875 918.09375 545.765625 C 924.371094 542.957031 930.804688 540.449219 937.382812 538.25 C 908.273438 517.261719 889.273438 483.058594 889.273438 444.566406 C 889.273438 381.007812 941.085938 329.144531 1004.644531 329.144531 C 1068.257812 329.144531 1120.066406 381.011719 1120.066406 444.566406 C 1120.066406 483.058594 1101.0625 517.261719 1071.941406 538.253906 C 1137.804688 560.246094 1189.28125 613.628906 1208.636719 680.636719 Z M 328.199219 680.636719 L 529.8125 680.636719 L 529.8125 614.929688 C 529.8125 610.433594 531.671875 606.136719 534.945312 603.054688 C 538.21875 599.972656 542.621094 598.378906 547.109375 598.652344 C 548.726562 598.75 550.335938 598.828125 551.945312 598.890625 C 555.457031 589.8125 559.578125 581.035156 564.257812 572.609375 C 543.746094 564.464844 521.371094 559.988281 497.957031 559.988281 C 419.414062 559.988281 352.640625 610.398438 328.199219 680.636719 Z M 529.8125 713.257812 L 483.1875 713.257812 C 489.3125 756.683594 505.773438 796.78125 530.007812 830.980469 C 529.878906 827.644531 529.8125 824.296875 529.8125 820.9375 Z M 450.28125 713.257812 L 277.007812 713.257812 C 277.007812 713.257812 277.007812 784.503906 277.007812 784.503906 L 347.617188 811.683594 C 352.621094 813.605469 356.359375 817.871094 357.617188 823.085938 C 367.609375 864.601562 384.003906 904.324219 406.425781 940.585938 C 409.261719 945.171875 409.648438 950.863281 407.460938 955.789062 L 376.679688 1025.011719 L 454.441406 1102.773438 L 523.675781 1072.105469 C 528.574219 1069.9375 534.230469 1070.3125 538.800781 1073.113281 C 575.191406 1095.410156 614.785156 1111.945312 656.433594 1121.8125 C 661.671875 1123.054688 665.960938 1126.800781 667.894531 1131.824219 L 695.070312 1202.433594 C 695.070312 1202.433594 805.0625 1202.433594 805.0625 1202.433594 L 832.238281 1131.824219 C 834.171875 1126.804688 838.457031 1123.058594 843.6875 1121.8125 C 885.1875 1111.953125 924.894531 1095.5625 961.140625 1073.148438 C 965.722656 1070.316406 971.402344 1069.925781 976.324219 1072.105469 L 1045.558594 1102.773438 L 1123.332031 1025 L 1092.664062 955.765625 C 1090.492188 950.867188 1090.871094 945.210938 1093.667969 940.640625 C 1115.96875 904.246094 1132.507812 864.652344 1142.375 823.132812 C 1143.617188 817.898438 1147.363281 813.613281 1152.382812 811.683594 C 1152.382812 811.683594 1222.992188 784.503906 1222.992188 784.503906 L 1222.992188 713.257812 L 1049.714844 713.257812 C 1040.9375 783.128906 1008.304688 845.582031 960.222656 892.199219 C 933.109375 987.210938 853.238281 1061.851562 752.816406 1079.335938 C 750.964844 1079.660156 749.070312 1079.660156 747.21875 1079.335938 C 646.808594 1061.855469 566.957031 987.269531 539.808594 892.3125 C 491.699219 845.6875 459.054688 783.1875 450.28125 713.257812 Z M 1016.804688 713.257812 L 970.1875 713.257812 L 970.1875 820.9375 C 970.1875 824.269531 970.121094 827.589844 969.996094 830.898438 C 994.21875 796.714844 1010.683594 756.648438 1016.804688 713.257812 Z M 970.1875 680.636719 L 1174.417969 680.636719 C 1150.007812 610.398438 1083.226562 559.988281 1004.644531 559.988281 C 980.425781 559.988281 957.328125 564.777344 936.246094 573.46875 C 940.726562 581.628906 944.683594 590.121094 948.078125 598.890625 C 949.679688 598.828125 951.28125 598.746094 952.890625 598.652344 C 957.378906 598.378906 961.78125 599.972656 965.054688 603.054688 C 968.328125 606.136719 970.1875 610.433594 970.1875 614.929688 Z M 497.957031 527.367188 C 543.59375 527.367188 580.757812 490.160156 580.757812 444.566406 C 580.757812 398.972656 543.59375 361.765625 497.957031 361.765625 C 452.363281 361.765625 415.203125 398.976562 415.203125 444.566406 C 415.203125 490.15625 452.363281 527.367188 497.957031 527.367188 Z M 750 495.789062 C 678.6875 495.789062 617.078125 537.347656 588.042969 597.574219 C 642.054688 591.625 692.472656 568.882812 743.25 545.726562 C 747.546875 543.765625 752.488281 543.765625 756.785156 545.726562 C 807.5625 568.882812 857.988281 591.628906 911.984375 597.574219 C 882.972656 537.347656 821.351562 495.789062 750 495.789062 Z M 750 463.167969 C 795.636719 463.167969 832.800781 425.960938 832.800781 380.367188 C 832.800781 334.773438 795.636719 297.5625 750 297.5625 C 704.410156 297.5625 667.25 334.773438 667.25 380.367188 C 667.25 425.957031 704.410156 463.167969 750 463.167969 Z M 1004.644531 527.367188 C 1050.28125 527.367188 1087.445312 490.160156 1087.445312 444.566406 C 1087.445312 398.972656 1050.28125 361.765625 1004.644531 361.765625 C 959.050781 361.765625 921.890625 398.976562 921.890625 444.566406 C 921.890625 490.15625 959.050781 527.367188 1004.644531 527.367188 Z M 750.015625 578.484375 C 689.261719 606.050781 628.527344 631.273438 562.433594 631.679688 L 562.433594 820.9375 C 562.433594 931.402344 642.398438 1026.574219 750.019531 1046.695312 C 857.601562 1026.574219 937.566406 931.398438 937.566406 820.9375 L 937.566406 631.679688 C 871.503906 631.269531 810.769531 606.050781 750.015625 578.484375 Z M 615.015625 834.433594 L 614.980469 834.398438 C 596.554688 816.046875 596.558594 786.273438 614.996094 767.929688 C 633.324219 749.625 662.964844 749.59375 681.394531 767.914062 C 681.40625 767.925781 681.417969 767.9375 681.429688 767.949219 L 716.78125 803.300781 L 818.640625 700.460938 L 818.660156 700.441406 C 836.90625 682.085938 866.609375 681.980469 884.964844 700.226562 C 903.421875 718.570312 903.417969 748.257812 885.203125 766.582031 C 826.628906 825.734375 808.992188 844.171875 750.058594 903.03125 C 731.703125 921.460938 701.917969 921.449219 683.613281 903.03125 Z M 638.046875 811.332031 L 706.675781 879.964844 C 706.6875 879.976562 706.699219 879.988281 706.710938 880 C 712.300781 885.621094 721.375 885.621094 726.960938 880 C 726.972656 879.984375 726.988281 879.972656 727.003906 879.957031 C 785.882812 821.148438 803.503906 802.730469 862.023438 743.628906 L 862.046875 743.609375 C 867.609375 738.011719 867.597656 728.957031 861.96875 723.363281 C 856.386719 717.8125 847.351562 717.851562 841.800781 723.433594 L 728.421875 837.898438 C 725.371094 840.980469 721.214844 842.71875 716.875 842.730469 C 712.535156 842.742188 708.371094 841.023438 705.300781 837.953125 C 705.300781 837.953125 658.390625 791.042969 658.390625 791.042969 C 652.738281 785.433594 643.65625 785.402344 638.046875 791.015625 C 638.03125 791.027344 638.023438 791.039062 638.011719 791.050781 C 632.390625 796.636719 632.390625 805.710938 638.011719 811.296875 C 638.023438 811.3125 638.03125 811.320312 638.046875 811.332031 Z M 638.046875 811.332031 " fill-opacity="1" fill-rule="evenodd"/></g></svg>