<svg xmlns="http://www.w3.org/2000/svg" xmlns:xlink="http://www.w3.org/1999/xlink" width="2000" zoomAndPan="magnify" viewBox="0 0 1500 1499.999933" height="2000" preserveAspectRatio="xMidYMid meet" version="1.0"><defs><clipPath id="eeba60de8d"><path d="M 709 447 L 781 447 L 781 1255.484375 L 709 1255.484375 Z M 709 447 " clip-rule="nonzero"/></clipPath></defs><path fill="#000088" d="M 1162.097656 360.695312 C 1155.867188 300.488281 1101.890625 252.734375 1031.300781 258.964844 L 458.285156 258.964844 C 389.773438 254.8125 333.71875 302.5625 327.492188 360.695312 C 319.1875 435.433594 393.925781 499.796875 464.515625 464.5 C 514.34375 437.511719 520.570312 377.304688 485.277344 344.085938 C 454.132812 315.019531 400.15625 331.628906 393.925781 369 C 387.699219 402.21875 418.839844 427.128906 443.753906 412.597656 C 449.984375 408.445312 452.058594 406.371094 452.058594 406.371094 C 452.058594 406.371094 449.984375 408.445312 443.753906 410.523438 C 420.917969 418.828125 402.230469 393.914062 410.535156 373.152344 C 416.765625 354.464844 447.90625 346.160156 464.515625 364.847656 C 483.199219 385.609375 474.894531 416.75 447.90625 429.207031 C 410.535156 447.890625 369.011719 410.523438 373.164062 364.847656 C 377.316406 323.324219 418.839844 296.335938 460.363281 298.410156 L 1031.300781 298.410156 C 1072.824219 296.335938 1114.347656 323.324219 1118.5 364.847656 C 1120.574219 385.609375 1112.269531 406.371094 1095.660156 420.902344 C 1083.203125 433.359375 1060.367188 437.511719 1041.679688 429.207031 C 1012.613281 416.75 1006.386719 385.609375 1025.070312 364.847656 C 1041.679688 346.160156 1072.824219 352.390625 1079.050781 373.152344 C 1087.355469 393.914062 1068.671875 418.828125 1045.832031 410.523438 C 1039.605469 408.445312 1037.527344 406.371094 1037.527344 406.371094 C 1037.527344 406.371094 1039.605469 410.523438 1045.832031 412.597656 C 1070.746094 427.128906 1101.890625 402.21875 1095.660156 369 C 1089.433594 331.628906 1035.453125 315.019531 1004.3125 344.085938 C 969.015625 377.304688 975.246094 437.511719 1025.070312 464.5 C 1054.136719 479.035156 1095.660156 479.035156 1122.652344 454.121094 C 1149.640625 433.359375 1164.171875 395.988281 1162.097656 360.695312 Z M 1162.097656 360.695312 " fill-opacity="1" fill-rule="nonzero"/><path fill="#000088" d="M 950.332031 375.226562 L 950.332031 371.074219 C 950.332031 354.464844 937.875 342.007812 921.265625 342.007812 L 568.320312 342.007812 C 551.714844 342.007812 539.257812 354.464844 539.257812 371.074219 L 539.257812 375.226562 C 539.257812 391.835938 551.714844 404.292969 568.320312 404.292969 L 923.339844 404.292969 C 937.875 404.292969 950.332031 391.835938 950.332031 375.226562 Z M 950.332031 375.226562 " fill-opacity="1" fill-rule="nonzero"/><path fill="#000088" d="M 613.996094 447.890625 C 595.3125 447.890625 580.777344 462.425781 580.777344 481.109375 L 580.777344 1060.351562 C 580.777344 1079.039062 595.3125 1093.570312 613.996094 1093.570312 L 618.148438 1093.570312 C 636.835938 1093.570312 651.367188 1079.039062 651.367188 1060.351562 L 651.367188 481.109375 C 651.367188 462.425781 636.835938 447.890625 618.148438 447.890625 Z M 613.996094 447.890625 " fill-opacity="1" fill-rule="nonzero"/><g clip-path="url(#eeba60de8d)"><path fill="#000088" d="M 742.71875 447.890625 C 724.03125 447.890625 709.5 462.425781 709.5 481.109375 L 709.5 1222.289062 C 709.5 1240.976562 724.03125 1255.507812 742.71875 1255.507812 L 746.871094 1255.507812 C 765.554688 1255.507812 780.089844 1240.976562 780.089844 1222.289062 L 780.089844 481.109375 C 780.089844 462.425781 765.554688 447.890625 746.871094 447.890625 Z M 742.71875 447.890625 " fill-opacity="1" fill-rule="nonzero"/></g><path fill="#000088" d="M 871.4375 447.890625 C 852.753906 447.890625 838.21875 462.425781 838.21875 481.109375 L 838.21875 1060.351562 C 838.21875 1079.039062 852.753906 1093.570312 871.4375 1093.570312 L 875.589844 1093.570312 C 894.277344 1093.570312 908.808594 1079.039062 908.808594 1060.351562 L 908.808594 481.109375 C 908.808594 462.425781 894.277344 447.890625 875.589844 447.890625 Z M 871.4375 447.890625 " fill-opacity="1" fill-rule="nonzero"/></svg>