<svg xmlns="http://www.w3.org/2000/svg" xmlns:xlink="http://www.w3.org/1999/xlink" width="2000" zoomAndPan="magnify" viewBox="0 0 1500 1499.999933" height="2000" preserveAspectRatio="xMidYMid meet" version="1.0"><defs><clipPath id="01210bfb16"><path d="M 158.117188 150 L 1340.359375 150 L 1340.359375 1332.246094 L 158.117188 1332.246094 Z M 158.117188 150 " clip-rule="nonzero"/></clipPath><clipPath id="3f9ba7ff8d"><path d="M 995.039062 150 L 1341.832031 496.792969 L 1341.832031 986.921875 L 995.039062 1333.714844 L 504.90625 1333.714844 L 158.117188 986.921875 L 158.117188 496.792969 L 504.90625 150 Z M 995.039062 150 " clip-rule="nonzero"/></clipPath><clipPath id="e07f029e85"><path d="M 251.410156 433.164062 L 1248.480469 433.164062 L 1248.480469 941.632812 L 251.410156 941.632812 Z M 251.410156 433.164062 " clip-rule="nonzero"/></clipPath><clipPath id="1a7cc61831"><path d="M 754 278.921875 L 776 278.921875 L 776 455 L 754 455 Z M 754 278.921875 " clip-rule="nonzero"/></clipPath><clipPath id="c215814f09"><path d="M 754 278.921875 L 904 278.921875 L 904 398 L 754 398 Z M 754 278.921875 " clip-rule="nonzero"/></clipPath></defs><g clip-path="url(#01210bfb16)"><g clip-path="url(#3f9ba7ff8d)"><path stroke-linecap="butt" transform="matrix(4.090814, 0, 0, 4.090814, 158.115445, 149.999967)" fill="none" stroke-linejoin="miter" d="M 204.586094 0.0000080473 L 289.359683 84.773597 L 289.359683 204.585676 L 204.586094 289.359265 L 84.77306 289.359265 L 0.000426069 204.585676 L 0.000426069 84.773597 L 84.77306 0.0000080473 Z M 204.586094 0.0000080473 " stroke="#d9d9d9" stroke-width="9.90023" stroke-opacity="1" stroke-miterlimit="4"/></g></g><path fill="#d9d9d9" d="M 911.925781 734.996094 C 908.214844 734.996094 904.609375 733 902.75 729.480469 L 823.578125 580.46875 L 806.253906 580.46875 C 802.773438 580.46875 799.539062 578.738281 797.605469 575.839844 L 756.128906 513.625 C 752.945312 508.855469 754.238281 502.410156 759.015625 499.214844 C 763.792969 496.035156 770.238281 497.324219 773.421875 502.101562 L 811.8125 559.6875 L 829.824219 559.6875 C 833.660156 559.6875 837.191406 561.8125 839 565.207031 L 921.097656 719.734375 C 923.785156 724.796875 921.859375 731.085938 916.796875 733.78125 C 915.242188 734.617188 913.574219 734.996094 911.925781 734.996094 " fill-opacity="1" fill-rule="evenodd"/><path fill="#d9d9d9" d="M 425.585938 841.957031 C 423.417969 841.957031 421.21875 841.28125 419.359375 839.875 C 414.761719 836.429688 413.84375 829.917969 417.289062 825.320312 L 462.042969 765.722656 C 464.84375 761.992188 469.789062 760.585938 474.136719 762.277344 L 518.59375 779.675781 L 612.320312 621.515625 C 615.25 616.578125 621.621094 614.960938 626.558594 617.878906 C 631.496094 620.796875 633.121094 627.179688 630.195312 632.117188 L 531.964844 797.878906 C 529.375 802.253906 523.984375 804.105469 519.238281 802.253906 L 473.914062 784.519531 L 433.90625 837.804688 C 431.863281 840.519531 428.746094 841.957031 425.585938 841.957031 " fill-opacity="1" fill-rule="evenodd"/><g clip-path="url(#e07f029e85)"><path fill="#d9d9d9" d="M 563.296875 840.636719 C 638.175781 840.636719 713.011719 855.203125 805.714844 875.085938 C 1010.609375 919.058594 1117.125 914.058594 1171.984375 899.640625 L 970.28125 654.164062 L 930.601562 681.214844 C 928.160156 682.875 925.125 683.414062 922.261719 682.714844 C 919.386719 682.007812 916.957031 680.117188 915.570312 677.503906 L 845.046875 544.753906 L 825.363281 544.753906 C 821.898438 544.753906 818.652344 543.019531 816.71875 540.125 L 764.847656 462.316406 L 663.320312 613.609375 C 661.695312 616.027344 659.144531 617.644531 656.269531 618.089844 C 653.394531 618.535156 650.46875 617.75 648.207031 615.933594 L 614.328125 588.832031 L 516.722656 753.546875 C 514.121094 757.921875 508.730469 759.785156 503.996094 757.921875 L 461.652344 741.359375 L 358.347656 878.941406 C 434.296875 851.449219 498.816406 840.636719 563.296875 840.636719 Z M 261.808594 941.890625 C 257.953125 941.890625 254.242188 939.730469 252.457031 936.023438 C 249.949219 930.863281 252.105469 924.648438 257.273438 922.152344 C 279.746094 911.257812 301.164062 901.617188 321.691406 893.160156 L 449.78125 722.566406 C 452.582031 718.835938 457.539062 717.441406 461.875 719.128906 L 503.339844 735.355469 L 602.542969 567.953125 C 604.074219 565.363281 606.65625 563.566406 609.613281 563.027344 C 612.574219 562.488281 615.628906 563.261719 617.976562 565.144531 L 652.359375 592.648438 L 756.246094 437.835938 C 758.179688 434.960938 761.414062 433.238281 764.871094 433.238281 C 764.882812 433.238281 764.882812 433.238281 764.890625 433.238281 C 768.359375 433.238281 771.59375 434.980469 773.515625 437.855469 L 830.925781 523.972656 L 851.292969 523.972656 C 855.128906 523.972656 858.660156 526.097656 860.46875 529.488281 L 928.488281 657.515625 L 966.425781 631.640625 C 970.863281 628.617188 976.890625 629.472656 980.304688 633.628906 L 1193.1875 892.714844 C 1222.742188 880.804688 1228.515625 867.007812 1228.652344 866.648438 L 1228.546875 866.976562 L 1248.492188 872.789062 C 1247.65625 875.65625 1239.601562 898.71875 1193.664062 914.816406 C 1193.464844 914.890625 1193.25 914.976562 1193.039062 915.039062 C 1187.714844 916.878906 1181.890625 918.632812 1175.503906 920.242188 C 1096.839844 940.164062 970.949219 931.804688 801.359375 895.410156 C 594.785156 851.078125 485.742188 834.503906 266.332031 940.84375 C 264.875 941.550781 263.332031 941.890625 261.808594 941.890625 " fill-opacity="1" fill-rule="evenodd"/></g><path fill="#d9d9d9" d="M 730.855469 796.875 C 726.816406 796.875 722.96875 794.507812 721.289062 790.566406 L 645.128906 611.894531 C 642.878906 606.621094 645.339844 600.511719 650.617188 598.257812 C 655.890625 596.007812 662 598.472656 664.242188 603.746094 L 740.398438 782.40625 C 742.652344 787.691406 740.199219 793.789062 734.925781 796.039062 C 733.59375 796.609375 732.207031 796.875 730.855469 796.875 " fill-opacity="1" fill-rule="evenodd"/><path fill="#d9d9d9" d="M 1002.945312 833.152344 C 999.191406 833.152344 995.566406 831.113281 993.714844 827.5625 L 915.539062 677.441406 C 912.886719 672.347656 914.863281 666.078125 919.945312 663.425781 C 925.03125 660.761719 931.320312 662.75 933.964844 667.832031 L 1012.152344 817.960938 C 1014.804688 823.046875 1012.828125 829.324219 1007.734375 831.96875 C 1006.199219 832.773438 1004.5625 833.152344 1002.945312 833.152344 " fill-opacity="1" fill-rule="evenodd"/><g clip-path="url(#1a7cc61831)"><path fill="#d9d9d9" d="M 764.871094 454.007812 C 759.128906 454.007812 754.480469 449.355469 754.480469 443.617188 L 754.480469 289.3125 C 754.480469 283.570312 759.128906 278.921875 764.871094 278.921875 C 770.609375 278.921875 775.261719 283.570312 775.261719 289.3125 L 775.261719 443.617188 C 775.261719 449.355469 770.609375 454.007812 764.871094 454.007812 " fill-opacity="1" fill-rule="evenodd"/></g><g clip-path="url(#c215814f09)"><path fill="#d9d9d9" d="M 893.289062 397.117188 L 764.871094 397.117188 C 759.128906 397.117188 754.480469 392.46875 754.480469 386.726562 C 754.480469 380.988281 759.128906 376.335938 764.871094 376.335938 L 882.898438 376.335938 L 882.898438 299.703125 L 764.871094 299.703125 C 759.128906 299.703125 754.480469 295.050781 754.480469 289.3125 C 754.480469 283.570312 759.128906 278.921875 764.871094 278.921875 L 893.289062 278.921875 C 899.027344 278.921875 903.679688 283.570312 903.679688 289.3125 L 903.679688 386.726562 C 903.679688 392.46875 899.027344 397.117188 893.289062 397.117188 " fill-opacity="1" fill-rule="evenodd"/></g></svg>