<svg xmlns="http://www.w3.org/2000/svg" xmlns:xlink="http://www.w3.org/1999/xlink" width="2000" zoomAndPan="magnify" viewBox="0 0 1500 1499.999933" height="2000" preserveAspectRatio="xMidYMid meet" version="1.0"><defs><clipPath id="142ca0c92a"><path d="M 108.167969 525 L 523 525 L 523 940 L 108.167969 940 Z M 108.167969 525 " clip-rule="nonzero"/></clipPath><clipPath id="45a81303f1"><path d="M 125 89.167969 L 957 89.167969 L 957 505 L 125 505 Z M 125 89.167969 " clip-rule="nonzero"/></clipPath><clipPath id="a886da3bb3"><path d="M 125 995 L 957 995 L 957 1410.667969 L 125 1410.667969 Z M 125 995 " clip-rule="nonzero"/></clipPath><clipPath id="317aa61b7b"><path d="M 499 1369 L 583 1369 L 583 1410.667969 L 499 1410.667969 Z M 499 1369 " clip-rule="nonzero"/></clipPath><clipPath id="47d9e632e0"><path d="M 159 1029 L 923 1029 L 923 1410.667969 L 159 1410.667969 Z M 159 1029 " clip-rule="nonzero"/></clipPath><clipPath id="5a17dd47da"><path d="M 227 1097 L 855 1097 L 855 1410.667969 L 227 1410.667969 Z M 227 1097 " clip-rule="nonzero"/></clipPath><clipPath id="d053a37040"><path d="M 193 1063 L 889 1063 L 889 1410.667969 L 193 1410.667969 Z M 193 1063 " clip-rule="nonzero"/></clipPath><clipPath id="dd3e505a58"><path d="M 261 1131 L 821 1131 L 821 1410.667969 L 261 1410.667969 Z M 261 1131 " clip-rule="nonzero"/></clipPath><clipPath id="5aa60b4b68"><path d="M 295 1165 L 787 1165 L 787 1410.667969 L 295 1410.667969 Z M 295 1165 " clip-rule="nonzero"/></clipPath><clipPath id="75ef6bf5eb"><path d="M 329 1199 L 753 1199 L 753 1410.667969 L 329 1410.667969 Z M 329 1199 " clip-rule="nonzero"/></clipPath><clipPath id="431cd35f8b"><path d="M 363 1233 L 719 1233 L 719 1410.667969 L 363 1410.667969 Z M 363 1233 " clip-rule="nonzero"/></clipPath><clipPath id="722e298ef1"><path d="M 397 1267 L 685 1267 L 685 1410.667969 L 397 1410.667969 Z M 397 1267 " clip-rule="nonzero"/></clipPath><clipPath id="be1285718c"><path d="M 431 1301 L 651 1301 L 651 1410.667969 L 431 1410.667969 Z M 431 1301 " clip-rule="nonzero"/></clipPath><clipPath id="13153c75c7"><path d="M 465 1335 L 617 1335 L 617 1410.667969 L 465 1410.667969 Z M 465 1335 " clip-rule="nonzero"/></clipPath></defs><g clip-path="url(#142ca0c92a)"><path fill="#231f20" d="M 505.253906 732.125 L 522.949219 732.125 C 522.984375 758.695312 517.644531 786.257812 507.144531 811.382812 C 496.714844 836.574219 481.359375 859.425781 462.289062 878.453125 C 443.25 897.484375 420.425781 912.835938 395.1875 923.296875 C 370.023438 933.792969 342.480469 939.125 315.902344 939.09375 C 289.324219 939.125 261.75 933.792969 236.617188 923.296875 C 211.417969 912.867188 188.558594 897.519531 169.519531 878.453125 C 150.480469 859.425781 135.125 836.605469 124.660156 811.382812 C 114.160156 786.226562 108.824219 758.695312 108.859375 732.125 C 108.824219 705.558594 114.160156 677.992188 124.660156 652.871094 C 135.09375 627.679688 150.445312 604.828125 169.519531 585.796875 C 188.558594 566.765625 211.382812 551.417969 236.617188 540.957031 C 261.785156 530.460938 289.324219 525.125 315.902344 525.160156 C 342.480469 525.125 370.058594 530.460938 395.1875 540.957031 C 420.390625 551.382812 443.25 566.730469 462.289062 585.796875 C 481.324219 604.828125 496.679688 627.644531 507.144531 652.871094 C 517.644531 678.027344 522.984375 705.558594 522.949219 732.125 L 505.253906 732.125 C 505.285156 707.828125 500.398438 682.640625 490.828125 659.648438 C 481.292969 636.59375 467.246094 615.738281 449.824219 598.324219 C 432.40625 580.910156 411.542969 566.871094 388.476562 557.335938 C 365.476562 547.769531 340.277344 542.847656 315.972656 542.917969 C 291.667969 542.882812 266.464844 547.769531 243.46875 557.335938 C 220.402344 566.871094 199.539062 580.910156 182.121094 598.324219 C 164.699219 615.738281 150.652344 636.59375 141.117188 659.648438 C 131.546875 682.640625 126.621094 707.828125 126.691406 732.125 C 126.65625 756.421875 131.546875 781.613281 141.117188 804.601562 C 150.652344 827.660156 164.699219 848.515625 182.121094 865.929688 C 199.539062 883.339844 220.402344 897.382812 243.46875 906.914062 C 266.464844 916.484375 291.667969 921.402344 315.972656 921.335938 C 340.277344 921.371094 365.480469 916.484375 388.476562 906.914062 C 411.542969 897.382812 432.40625 883.339844 449.824219 865.929688 C 467.246094 848.515625 481.292969 827.660156 490.828125 804.601562 C 500.398438 781.613281 505.285156 756.421875 505.253906 732.125 Z M 505.253906 732.125 " fill-opacity="1" fill-rule="nonzero"/></g><path fill="#231f20" d="M 315.730469 732.125 C 316.351562 732.195312 315.867188 732.125 315.9375 732.09375 C 315.972656 732.023438 316.042969 732.539062 315.972656 731.886719 C 315.902344 732.503906 315.972656 732.023438 316.007812 732.09375 C 316.074219 732.125 315.558594 732.195312 316.214844 732.125 C 315.59375 732.058594 316.074219 732.125 316.007812 732.160156 C 315.972656 732.230469 315.902344 731.714844 315.972656 732.367188 C 316.042969 731.746094 315.972656 732.230469 315.9375 732.160156 C 315.867188 732.125 316.351562 732.058594 315.730469 732.125 C 316.351562 732.058594 315.867188 732.125 315.9375 732.160156 C 315.972656 732.230469 316.042969 731.714844 315.972656 732.367188 C 315.902344 731.746094 315.972656 732.230469 316.007812 732.160156 C 316.074219 732.125 315.558594 732.058594 316.214844 732.125 C 315.59375 732.195312 316.074219 732.125 316.007812 732.09375 C 315.972656 732.023438 315.902344 732.539062 315.972656 731.886719 C 316.042969 732.503906 315.972656 732.023438 315.9375 732.09375 C 315.867188 732.125 316.351562 732.195312 315.730469 732.125 Z M 315.730469 732.125 " fill-opacity="1" fill-rule="nonzero"/><path fill="#231f20" d="M 471.238281 732.125 L 488.933594 732.125 C 488.96875 754.359375 484.492188 777.347656 475.75 798.375 C 467.003906 819.433594 454.195312 838.5 438.257812 854.398438 C 422.351562 870.296875 403.246094 883.136719 382.210938 891.875 C 361.210938 900.617188 338.179688 905.089844 315.9375 905.058594 C 293.699219 905.089844 270.699219 900.617188 249.664062 891.875 C 228.597656 883.136719 209.523438 870.332031 193.617188 854.398438 C 177.710938 838.5 164.871094 819.398438 156.128906 798.375 C 147.382812 777.378906 142.90625 754.359375 142.941406 732.125 C 142.90625 709.894531 147.382812 686.90625 156.128906 665.878906 C 164.871094 644.816406 177.679688 625.753906 193.617188 609.851562 C 209.523438 593.953125 228.628906 581.117188 249.664062 572.375 C 270.667969 563.636719 293.699219 559.160156 315.9375 559.195312 C 338.179688 559.160156 361.175781 563.636719 382.210938 572.375 C 403.28125 581.117188 422.351562 593.917969 438.257812 609.851562 C 454.164062 625.753906 467.003906 644.851562 475.75 665.878906 C 484.492188 686.90625 488.96875 709.894531 488.933594 732.125 L 471.238281 732.125 C 471.273438 712.167969 467.246094 691.519531 459.394531 672.660156 C 451.546875 653.765625 440.046875 636.628906 425.761719 622.34375 C 411.472656 608.0625 394.328125 596.535156 375.429688 588.722656 C 356.5625 580.875 335.90625 576.851562 315.9375 576.882812 C 295.96875 576.851562 275.3125 580.875 256.449219 588.722656 C 237.546875 596.570312 220.402344 608.0625 206.117188 622.34375 C 191.828125 636.628906 180.292969 653.765625 172.480469 672.660156 C 164.628906 691.519531 160.601562 712.167969 160.636719 732.125 C 160.601562 752.085938 164.628906 772.734375 172.480469 791.59375 C 180.328125 810.488281 191.828125 827.625 206.117188 841.90625 C 220.402344 856.1875 237.546875 867.71875 256.449219 875.53125 C 275.3125 883.375 295.96875 887.402344 315.9375 887.367188 C 335.90625 887.402344 356.5625 883.375 375.429688 875.53125 C 394.328125 867.683594 411.472656 856.1875 425.761719 841.90625 C 440.046875 827.625 451.582031 810.488281 459.394531 791.59375 C 467.28125 772.699219 471.273438 752.050781 471.238281 732.125 Z M 471.238281 732.125 " fill-opacity="1" fill-rule="nonzero"/><path fill="#231f20" d="M 403.210938 732.125 L 420.90625 732.125 C 420.941406 745.617188 418.222656 759.554688 412.882812 772.320312 C 407.582031 785.089844 399.800781 796.6875 390.164062 806.324219 C 380.523438 815.992188 368.921875 823.769531 356.148438 829.035156 C 343.410156 834.335938 329.433594 837.054688 315.9375 837.019531 C 302.441406 837.054688 288.5 834.335938 275.726562 829.035156 C 262.953125 823.738281 251.351562 815.960938 241.714844 806.324219 C 232.039062 796.6875 224.257812 785.089844 218.992188 772.320312 C 213.6875 759.589844 210.96875 745.617188 210.96875 732.125 C 210.933594 718.636719 213.65625 704.699219 218.992188 691.929688 C 224.292969 679.164062 232.074219 667.566406 241.714844 657.929688 C 251.351562 648.257812 262.953125 640.480469 275.726562 635.214844 C 288.464844 629.917969 302.441406 627.199219 315.9375 627.199219 C 329.433594 627.164062 343.375 629.882812 356.148438 635.214844 C 368.921875 640.515625 380.523438 648.292969 390.164062 657.929688 C 399.835938 667.566406 407.617188 679.164062 412.882812 691.929688 C 418.1875 704.664062 420.90625 718.636719 420.90625 732.125 L 403.210938 732.125 C 403.210938 720.90625 400.972656 709.308594 396.566406 698.710938 C 392.160156 688.078125 385.6875 678.476562 377.664062 670.457031 C 369.644531 662.4375 360.003906 655.96875 349.402344 651.5625 C 338.796875 647.15625 327.195312 644.886719 315.972656 644.921875 C 304.75 644.921875 293.148438 647.15625 282.542969 651.5625 C 271.90625 655.96875 262.300781 662.4375 254.277344 670.457031 C 246.257812 678.476562 239.785156 688.109375 235.378906 698.710938 C 230.972656 709.308594 228.699219 720.90625 228.734375 732.125 C 228.734375 743.34375 230.972656 754.941406 235.378906 765.542969 C 239.785156 776.140625 246.257812 785.777344 254.277344 793.796875 C 262.300781 801.816406 271.941406 808.285156 282.542969 812.691406 C 293.148438 817.09375 304.75 819.367188 315.972656 819.332031 C 327.195312 819.332031 338.796875 817.09375 349.402344 812.691406 C 360.003906 808.285156 369.644531 801.816406 377.664062 793.796875 C 385.6875 785.777344 392.160156 776.140625 396.566406 765.542969 C 400.972656 754.941406 403.246094 743.34375 403.210938 732.125 Z M 403.210938 732.125 " fill-opacity="1" fill-rule="nonzero"/><path fill="#231f20" d="M 437.226562 732.125 L 454.921875 732.125 C 454.953125 749.988281 451.375 768.46875 444.316406 785.332031 C 437.292969 802.261719 427 817.578125 414.226562 830.34375 C 401.453125 843.113281 386.101562 853.4375 369.195312 860.421875 C 352.328125 867.441406 333.839844 871.054688 315.972656 871.019531 C 298.105469 871.054688 279.617188 867.476562 262.746094 860.421875 C 245.808594 853.402344 230.488281 843.113281 217.71875 830.34375 C 204.945312 817.578125 194.617188 802.226562 187.628906 785.332031 C 180.605469 768.46875 176.988281 749.988281 177.023438 732.125 C 176.988281 714.265625 180.570312 695.785156 187.628906 678.921875 C 194.652344 661.992188 204.945312 646.675781 217.71875 633.910156 C 230.488281 621.140625 245.84375 610.816406 262.746094 603.832031 C 279.617188 596.808594 298.105469 593.195312 315.972656 593.230469 C 333.839844 593.195312 352.328125 596.777344 369.195312 603.832031 C 386.132812 610.851562 401.453125 621.140625 414.226562 633.910156 C 427 646.675781 437.328125 662.023438 444.316406 678.921875 C 451.339844 695.785156 454.953125 714.265625 454.921875 732.125 L 437.226562 732.125 C 437.257812 716.535156 434.125 700.429688 427.964844 685.703125 C 421.835938 670.9375 412.851562 657.550781 401.695312 646.402344 C 390.542969 635.25 377.148438 626.269531 362.378906 620.144531 C 347.644531 614.015625 331.535156 610.886719 315.9375 610.886719 C 300.34375 610.851562 284.230469 613.984375 269.496094 620.144531 C 254.726562 626.269531 241.335938 635.25 230.179688 646.402344 C 219.027344 657.550781 210.039062 670.9375 203.910156 685.703125 C 197.785156 700.429688 194.652344 716.535156 194.652344 732.125 C 194.617188 747.714844 197.75 763.820312 203.910156 778.550781 C 210.039062 793.316406 219.027344 806.703125 230.179688 817.851562 C 241.335938 829 254.726562 837.984375 269.496094 844.109375 C 284.230469 850.234375 300.34375 853.367188 315.9375 853.367188 C 331.535156 853.402344 347.644531 850.269531 362.378906 844.109375 C 377.148438 837.984375 390.542969 829 401.695312 817.851562 C 412.851562 806.703125 421.835938 793.316406 427.964844 778.550781 C 434.125 763.820312 437.257812 747.714844 437.226562 732.125 Z M 437.226562 732.125 " fill-opacity="1" fill-rule="nonzero"/><path fill="#231f20" d="M 369.195312 732.125 L 386.890625 732.125 C 386.890625 741.246094 385.066406 750.675781 381.488281 759.277344 C 377.90625 767.917969 372.640625 775.730469 366.132812 782.269531 C 359.589844 788.804688 351.777344 794.070312 343.136719 797.617188 C 334.527344 801.195312 325.09375 803.054688 315.972656 803.019531 C 306.847656 803.019531 297.417969 801.195312 288.808594 797.617188 C 280.167969 794.039062 272.351562 788.773438 265.8125 782.269531 C 259.269531 775.730469 254.003906 767.917969 250.457031 759.277344 C 246.878906 750.675781 245.050781 741.246094 245.050781 732.125 C 245.050781 723.007812 246.878906 713.578125 250.457031 704.972656 C 254.039062 696.335938 259.304688 688.523438 265.8125 681.984375 C 272.351562 675.445312 280.167969 670.179688 288.808594 666.636719 C 297.417969 663.058594 306.847656 661.199219 315.972656 661.234375 C 325.09375 661.234375 334.527344 663.058594 343.136719 666.636719 C 351.777344 670.214844 359.589844 675.480469 366.132812 681.984375 C 372.671875 688.523438 377.941406 696.335938 381.488281 704.972656 C 385.066406 713.578125 386.890625 723.007812 386.890625 732.125 L 369.195312 732.125 C 369.300781 718.292969 363.449219 704.183594 353.601562 694.511719 C 343.894531 684.667969 329.777344 678.820312 315.972656 678.921875 C 302.132812 678.820312 288.015625 684.667969 278.34375 694.511719 C 268.496094 704.214844 262.644531 718.328125 262.746094 732.125 C 262.644531 745.960938 268.496094 760.070312 278.34375 769.742188 C 288.050781 779.582031 302.167969 785.433594 315.972656 785.332031 C 329.8125 785.433594 343.925781 779.582031 353.601562 769.742188 C 363.449219 760.070312 369.300781 745.960938 369.195312 732.125 Z M 369.195312 732.125 " fill-opacity="1" fill-rule="nonzero"/><path fill="#231f20" d="M 335.183594 732.125 L 352.878906 732.125 C 352.945312 741.726562 348.882812 751.5 342.066406 758.210938 C 335.320312 765.058594 325.578125 769.085938 315.972656 769.019531 C 306.367188 769.085938 296.589844 765.027344 289.875 758.210938 C 283.027344 751.46875 278.996094 741.726562 279.066406 732.125 C 278.996094 722.523438 283.058594 712.75 289.875 706.039062 C 296.625 699.191406 306.367188 695.164062 315.972656 695.234375 C 325.578125 695.164062 335.355469 699.226562 342.066406 706.039062 C 348.917969 712.785156 352.945312 722.523438 352.878906 732.125 L 335.183594 732.125 C 335.21875 727.101562 333.117188 722.078125 329.535156 718.53125 C 326.023438 714.953125 320.964844 712.890625 315.9375 712.890625 C 310.910156 712.855469 305.886719 714.953125 302.339844 718.53125 C 298.757812 722.042969 296.691406 727.101562 296.691406 732.125 C 296.660156 737.152344 298.757812 742.175781 302.339844 745.71875 C 305.851562 749.300781 310.910156 751.363281 315.9375 751.363281 C 320.964844 751.398438 325.992188 749.300781 329.535156 745.71875 C 333.117188 742.175781 335.21875 737.117188 335.183594 732.125 Z M 335.183594 732.125 " fill-opacity="1" fill-rule="nonzero"/><path fill="#231f20" d="M 315.730469 732.125 L 318.898438 732.125 C 318.933594 733.675781 317.523438 735.085938 315.972656 735.050781 C 314.421875 735.085938 313.011719 733.675781 313.046875 732.125 C 313.011719 730.578125 314.421875 729.167969 315.972656 729.199219 C 317.519531 729.167969 318.933594 730.578125 318.898438 732.125 L 315.730469 732.125 C 316.351562 732.058594 315.867188 732.125 315.9375 732.160156 C 315.972656 732.230469 316.042969 731.714844 315.972656 732.367188 C 315.902344 731.746094 315.972656 732.230469 316.007812 732.160156 C 316.074219 732.125 315.558594 732.058594 316.214844 732.125 C 315.59375 732.195312 316.074219 732.125 316.007812 732.09375 C 315.972656 732.023438 315.902344 732.539062 315.972656 731.886719 C 316.042969 732.503906 315.972656 732.023438 315.9375 732.09375 C 315.867188 732.125 316.351562 732.195312 315.730469 732.125 Z M 315.730469 732.125 " fill-opacity="1" fill-rule="nonzero"/><path fill="#231f20" d="M 315.730469 732.125 C 316.351562 732.195312 315.867188 732.125 315.9375 732.09375 C 315.972656 732.023438 316.042969 732.539062 315.972656 731.886719 C 315.902344 732.503906 315.972656 732.023438 316.007812 732.09375 C 316.074219 732.125 315.558594 732.195312 316.214844 732.125 C 315.59375 732.058594 316.074219 732.125 316.007812 732.160156 C 315.972656 732.230469 315.902344 731.714844 315.972656 732.367188 C 316.042969 731.746094 315.972656 732.230469 315.9375 732.160156 C 315.867188 732.125 316.351562 732.058594 315.730469 732.125 C 316.351562 732.058594 315.867188 732.125 315.9375 732.160156 C 315.972656 732.230469 316.042969 731.714844 315.972656 732.367188 C 315.902344 731.746094 315.972656 732.230469 316.007812 732.160156 C 316.074219 732.125 315.558594 732.058594 316.214844 732.125 C 315.59375 732.195312 316.074219 732.125 316.007812 732.09375 C 315.972656 732.023438 315.902344 732.539062 315.972656 731.886719 C 316.042969 732.503906 315.972656 732.023438 315.9375 732.09375 C 315.867188 732.125 316.351562 732.195312 315.730469 732.125 Z M 315.730469 732.125 " fill-opacity="1" fill-rule="nonzero"/><path fill="#231f20" d="M 315.730469 732.125 C 316.351562 732.195312 315.867188 732.125 315.9375 732.09375 C 315.972656 732.023438 316.042969 732.539062 315.972656 731.886719 C 315.902344 732.503906 315.972656 732.023438 316.007812 732.09375 C 316.074219 732.125 315.558594 732.195312 316.214844 732.125 C 315.59375 732.058594 316.074219 732.125 316.007812 732.160156 C 315.972656 732.230469 315.902344 731.714844 315.972656 732.367188 C 316.042969 731.746094 315.972656 732.230469 315.9375 732.160156 C 315.867188 732.125 316.351562 732.058594 315.730469 732.125 C 316.351562 732.058594 315.867188 732.125 315.9375 732.160156 C 315.972656 732.230469 316.042969 731.714844 315.972656 732.367188 C 315.902344 731.746094 315.972656 732.230469 316.007812 732.160156 C 316.074219 732.125 315.558594 732.058594 316.214844 732.125 C 315.59375 732.195312 316.074219 732.125 316.007812 732.09375 C 315.972656 732.023438 315.902344 732.539062 315.972656 731.886719 C 316.042969 732.503906 315.972656 732.023438 315.9375 732.09375 C 315.867188 732.125 316.351562 732.195312 315.730469 732.125 Z M 315.730469 732.125 " fill-opacity="1" fill-rule="nonzero"/><path fill="#231f20" d="M 315.730469 732.125 C 316.351562 732.195312 315.867188 732.125 315.9375 732.09375 C 315.972656 732.023438 316.042969 732.539062 315.972656 731.886719 C 315.902344 732.503906 315.972656 732.023438 316.007812 732.09375 C 316.074219 732.125 315.558594 732.195312 316.214844 732.125 C 315.59375 732.058594 316.074219 732.125 316.007812 732.160156 C 315.972656 732.230469 315.902344 731.714844 315.972656 732.367188 C 316.042969 731.746094 315.972656 732.230469 315.9375 732.160156 C 315.867188 732.125 316.351562 732.058594 315.730469 732.125 C 316.351562 732.058594 315.867188 732.125 315.9375 732.160156 C 315.972656 732.230469 316.042969 731.714844 315.972656 732.367188 C 315.902344 731.746094 315.972656 732.230469 316.007812 732.160156 C 316.074219 732.125 315.558594 732.058594 316.214844 732.125 C 315.59375 732.195312 316.074219 732.125 316.007812 732.09375 C 315.972656 732.023438 315.902344 732.539062 315.972656 731.886719 C 316.042969 732.503906 315.972656 732.023438 315.9375 732.09375 C 315.867188 732.125 316.351562 732.195312 315.730469 732.125 Z M 315.730469 732.125 " fill-opacity="1" fill-rule="nonzero"/><path fill="#231f20" d="M 315.730469 732.125 C 316.351562 732.195312 315.867188 732.125 315.9375 732.09375 C 315.972656 732.023438 316.042969 732.539062 315.972656 731.886719 C 315.902344 732.503906 315.972656 732.023438 316.007812 732.09375 C 316.074219 732.125 315.558594 732.195312 316.214844 732.125 C 315.59375 732.058594 316.074219 732.125 316.007812 732.160156 C 315.972656 732.230469 315.902344 731.714844 315.972656 732.367188 C 316.042969 731.746094 315.972656 732.230469 315.9375 732.160156 C 315.867188 732.125 316.351562 732.058594 315.730469 732.125 C 316.351562 732.058594 315.867188 732.125 315.9375 732.160156 C 315.972656 732.230469 316.042969 731.714844 315.972656 732.367188 C 315.902344 731.746094 315.972656 732.230469 316.007812 732.160156 C 316.074219 732.125 315.558594 732.058594 316.214844 732.125 C 315.59375 732.195312 316.074219 732.125 316.007812 732.09375 C 315.972656 732.023438 315.902344 732.539062 315.972656 731.886719 C 316.042969 732.503906 315.972656 732.023438 315.9375 732.09375 C 315.867188 732.125 316.351562 732.195312 315.730469 732.125 Z M 315.730469 732.125 " fill-opacity="1" fill-rule="nonzero"/><g clip-path="url(#45a81303f1)"><path fill="#231f20" d="M 143.25 504.410156 L 125.554688 504.410156 C 125.519531 450.550781 136.226562 395.730469 157.195312 345.382812 C 178.089844 294.964844 208.902344 249.023438 247.253906 210.71875 C 285.574219 172.382812 331.535156 141.582031 381.96875 120.691406 C 432.335938 99.734375 487.179688 89.03125 541.058594 89.066406 C 594.933594 89.03125 649.777344 99.734375 700.144531 120.691406 C 750.582031 141.582031 796.539062 172.382812 834.859375 210.71875 C 873.210938 249.023438 904.023438 294.964844 924.917969 345.382812 C 945.886719 395.730469 956.59375 450.550781 956.558594 504.410156 L 938.863281 504.410156 C 938.898438 452.820312 928.636719 400.375 908.566406 352.160156 C 888.566406 303.910156 859.058594 259.929688 822.328125 223.246094 C 785.628906 186.558594 741.628906 157.03125 693.363281 137.039062 C 645.164062 116.976562 592.664062 106.71875 541.058594 106.753906 C 489.449219 106.71875 436.984375 116.976562 388.75 137.039062 C 340.484375 157.03125 296.488281 186.527344 259.789062 223.246094 C 223.089844 259.929688 193.550781 303.914062 173.546875 352.160156 C 153.476562 400.375 143.21875 452.820312 143.25 504.410156 Z M 143.25 504.410156 " fill-opacity="1" fill-rule="nonzero"/></g><path fill="#231f20" d="M 517.441406 504.410156 L 499.746094 504.410156 C 499.8125 498.523438 500.847656 493.535156 502.84375 488.648438 C 504.839844 483.792969 507.902344 479.148438 511.863281 475.191406 C 515.820312 471.269531 520.46875 468.171875 525.324219 466.175781 C 530.210938 464.179688 535.203125 463.144531 541.089844 463.078125 C 546.976562 463.144531 551.96875 464.179688 556.859375 466.175781 C 561.714844 468.171875 566.359375 471.234375 570.320312 475.191406 C 574.246094 479.148438 577.34375 483.792969 579.339844 488.648438 C 581.335938 493.535156 582.371094 498.523438 582.4375 504.410156 L 564.742188 504.410156 C 564.675781 500.796875 564.089844 498.179688 562.988281 495.425781 C 561.886719 492.742188 560.128906 490.023438 557.824219 487.71875 C 555.515625 485.410156 552.796875 483.65625 550.109375 482.554688 C 547.390625 481.453125 544.742188 480.871094 541.125 480.800781 C 537.511719 480.871094 534.894531 481.453125 532.140625 482.554688 C 529.453125 483.65625 526.734375 485.410156 524.429688 487.71875 C 522.121094 490.023438 520.367188 492.742188 519.265625 495.425781 C 518.09375 498.179688 517.507812 500.796875 517.441406 504.410156 Z M 517.441406 504.410156 " fill-opacity="1" fill-rule="nonzero"/><path fill="#231f20" d="M 177.265625 504.410156 L 159.570312 504.410156 C 159.535156 454.921875 169.382812 404.609375 188.59375 358.425781 C 207.769531 312.171875 236.066406 269.980469 271.285156 234.773438 C 306.503906 199.570312 348.679688 171.28125 394.984375 152.113281 C 441.21875 132.875 491.515625 123.066406 541.023438 123.101562 C 590.527344 123.066406 640.859375 132.910156 687.0625 152.113281 C 733.332031 171.28125 775.539062 199.570312 810.757812 234.773438 C 845.976562 269.980469 874.277344 312.136719 893.453125 358.425781 C 912.699219 404.640625 922.507812 454.921875 922.476562 504.410156 L 904.78125 504.410156 C 904.8125 457.191406 895.414062 409.253906 877.101562 365.203125 C 858.820312 321.085938 831.828125 280.855469 798.226562 247.300781 C 764.660156 213.714844 724.414062 186.730469 680.28125 168.457031 C 636.214844 150.117188 588.257812 140.753906 541.023438 140.789062 C 493.789062 140.753906 445.832031 150.148438 401.765625 168.457031 C 357.628906 186.730469 317.382812 213.714844 283.816406 247.300781 C 250.214844 280.855469 223.226562 321.085938 204.945312 365.203125 C 186.628906 409.253906 177.265625 457.191406 177.265625 504.410156 Z M 177.265625 504.410156 " fill-opacity="1" fill-rule="nonzero"/><path fill="#231f20" d="M 245.292969 504.410156 L 227.597656 504.410156 C 227.597656 463.628906 235.652344 422.398438 251.457031 384.476562 C 267.1875 346.480469 290.460938 311.828125 319.414062 282.886719 C 348.367188 253.941406 383.070312 230.679688 421.042969 214.953125 C 459.015625 199.15625 500.261719 191.101562 541.023438 191.101562 C 581.820312 191.101562 623.0625 199.15625 661 214.953125 C 699.007812 230.679688 733.675781 253.941406 762.628906 282.886719 C 791.582031 311.828125 814.855469 346.515625 830.589844 384.476562 C 846.390625 422.433594 854.445312 463.664062 854.445312 504.410156 L 836.75 504.410156 C 836.75 465.898438 829.144531 427.046875 814.234375 391.253906 C 799.398438 355.429688 777.433594 322.703125 750.132812 295.378906 C 722.796875 268.054688 690.058594 246.132812 654.21875 231.296875 C 618.414062 216.398438 579.511719 208.792969 541.023438 208.792969 C 502.5 208.792969 463.628906 216.398438 427.824219 231.296875 C 391.988281 246.132812 359.246094 268.085938 331.910156 295.378906 C 304.578125 322.703125 282.648438 355.429688 267.808594 391.253906 C 252.902344 427.046875 245.292969 465.898438 245.292969 504.410156 Z M 245.292969 504.410156 " fill-opacity="1" fill-rule="nonzero"/><path fill="#231f20" d="M 211.28125 504.410156 L 193.582031 504.410156 C 193.550781 459.292969 202.5 413.519531 220.023438 371.433594 C 237.476562 329.308594 263.265625 290.871094 295.351562 258.796875 C 327.4375 226.722656 365.890625 200.945312 408.03125 183.496094 C 450.136719 165.980469 495.886719 157.03125 541.058594 157.066406 C 586.191406 157.03125 631.980469 165.980469 674.082031 183.496094 C 716.222656 200.945312 754.675781 226.722656 786.761719 258.796875 C 818.847656 290.871094 844.636719 329.308594 862.089844 371.433594 C 879.613281 413.519531 888.566406 459.257812 888.53125 504.410156 L 870.835938 504.410156 C 870.867188 461.5625 862.367188 418.132812 845.738281 378.210938 C 829.175781 338.257812 804.699219 301.777344 774.230469 271.320312 C 743.765625 240.867188 707.269531 216.398438 667.300781 199.84375 C 627.367188 183.222656 583.953125 174.757812 541.058594 174.757812 C 498.195312 174.722656 454.75 183.222656 414.8125 199.84375 C 374.84375 216.398438 338.351562 240.867188 307.882812 271.320312 C 277.414062 301.777344 252.9375 338.257812 236.375 378.210938 C 219.78125 418.132812 211.28125 461.5625 211.28125 504.410156 Z M 211.28125 504.410156 " fill-opacity="1" fill-rule="nonzero"/><path fill="#231f20" d="M 279.308594 504.410156 L 261.613281 504.410156 C 261.613281 468 268.808594 431.3125 282.851562 397.484375 C 296.863281 363.65625 317.625 332.714844 343.445312 306.90625 C 369.265625 281.09375 400.214844 260.34375 434.058594 246.335938 C 467.863281 232.261719 504.597656 225.070312 541.023438 225.105469 C 577.445312 225.105469 614.144531 232.296875 647.988281 246.335938 C 681.828125 260.34375 712.78125 281.09375 738.601562 306.90625 C 764.421875 332.714844 785.179688 363.65625 799.191406 397.484375 C 813.273438 431.277344 820.46875 468 820.433594 504.410156 L 802.738281 504.410156 C 802.738281 470.269531 795.988281 435.925781 782.839844 404.261719 C 769.722656 372.566406 750.304688 343.589844 726.101562 319.398438 C 701.902344 295.207031 672.914062 275.796875 641.207031 262.683594 C 609.53125 249.539062 575.175781 242.792969 541.023438 242.792969 C 506.871094 242.792969 472.511719 249.539062 440.839844 262.683594 C 409.132812 275.796875 380.144531 295.207031 355.941406 319.398438 C 331.738281 343.589844 312.324219 372.566406 299.207031 404.261719 C 286.054688 435.925781 279.308594 470.269531 279.308594 504.410156 Z M 279.308594 504.410156 " fill-opacity="1" fill-rule="nonzero"/><path fill="#231f20" d="M 313.355469 504.410156 L 295.660156 504.410156 C 295.660156 472.367188 301.996094 440.191406 314.320312 410.527344 C 326.609375 380.828125 344.820312 353.640625 367.542969 330.960938 C 390.230469 308.28125 417.429688 290.042969 447.140625 277.757812 C 476.816406 265.4375 509.003906 259.105469 541.058594 259.105469 C 573.109375 259.105469 605.296875 265.4375 634.972656 277.757812 C 664.683594 290.042969 691.882812 308.25 714.570312 330.960938 C 737.257812 353.640625 755.503906 380.828125 767.792969 410.527344 C 780.117188 440.191406 786.453125 472.367188 786.453125 504.410156 L 768.757812 504.410156 C 768.757812 474.640625 762.90625 444.804688 751.441406 417.304688 C 740.046875 389.773438 723.140625 364.550781 702.074219 343.488281 C 681.003906 322.425781 655.769531 305.53125 628.226562 294.136719 C 600.683594 282.714844 570.871094 276.828125 541.089844 276.828125 C 511.3125 276.828125 481.464844 282.679688 453.957031 294.136719 C 426.414062 305.53125 401.179688 322.425781 380.109375 343.488281 C 359.039062 364.550781 342.136719 389.773438 330.742188 417.304688 C 319.207031 444.835938 313.355469 474.640625 313.355469 504.410156 Z M 313.355469 504.410156 " fill-opacity="1" fill-rule="nonzero"/><path fill="#231f20" d="M 347.371094 504.410156 L 329.675781 504.410156 C 329.675781 476.738281 335.113281 449.070312 345.75 423.535156 C 356.320312 397.964844 372.019531 374.5625 391.609375 354.984375 C 411.199219 335.402344 434.609375 319.742188 460.1875 309.144531 C 485.734375 298.542969 513.378906 293.105469 541.089844 293.070312 C 568.769531 293.070312 596.449219 298.507812 621.996094 309.144531 C 647.574219 319.707031 670.984375 335.402344 690.574219 354.984375 C 710.164062 374.5625 725.828125 397.964844 736.429688 423.535156 C 747.035156 449.070312 752.472656 476.707031 752.507812 504.410156 L 734.8125 504.410156 C 734.777344 478.976562 729.820312 453.714844 720.113281 430.316406 C 710.4375 406.914062 696.046875 385.4375 678.113281 367.507812 C 660.175781 349.578125 638.691406 335.195312 615.28125 325.523438 C 591.871094 315.820312 566.601562 310.828125 541.160156 310.828125 C 515.71875 310.863281 490.449219 315.820312 467.039062 325.523438 C 443.628906 335.195312 422.144531 349.578125 404.210938 367.507812 C 386.273438 385.4375 371.882812 406.914062 362.207031 430.316406 C 352.363281 453.714844 347.371094 479.011719 347.371094 504.410156 Z M 347.371094 504.410156 " fill-opacity="1" fill-rule="nonzero"/><path fill="#231f20" d="M 381.382812 504.410156 L 363.6875 504.410156 C 363.722656 481.074219 368.265625 457.984375 377.148438 436.578125 C 385.996094 415.171875 399.183594 395.488281 415.640625 379.039062 C 432.09375 362.589844 451.789062 349.441406 473.199219 340.5625 C 494.613281 331.683594 517.75 327.105469 541.058594 327.105469 C 564.398438 327.140625 587.5 331.683594 608.914062 340.5625 C 630.328125 349.40625 650.019531 362.589844 666.476562 379.039062 C 682.929688 395.488281 696.082031 415.171875 704.964844 436.578125 C 713.847656 457.984375 718.425781 481.109375 718.425781 504.410156 L 700.730469 504.410156 C 700.695312 483.347656 696.597656 462.59375 688.613281 443.359375 C 680.660156 424.121094 668.78125 406.398438 653.976562 391.566406 C 639.140625 376.765625 621.410156 364.894531 602.164062 356.945312 C 582.886719 348.960938 562.125 344.863281 541.089844 344.832031 C 520.023438 344.863281 499.261719 348.960938 480.015625 356.945312 C 460.773438 364.894531 443.042969 376.765625 428.203125 391.566406 C 413.402344 406.398438 401.523438 424.121094 393.570312 443.359375 C 385.480469 462.59375 381.382812 483.347656 381.382812 504.410156 Z M 381.382812 504.410156 " fill-opacity="1" fill-rule="nonzero"/><path fill="#231f20" d="M 415.398438 504.410156 L 397.703125 504.410156 C 397.738281 485.445312 401.421875 466.863281 408.582031 449.585938 C 415.742188 432.3125 426.378906 416.410156 439.703125 403.058594 C 453.027344 389.742188 468.964844 379.105469 486.25 371.949219 C 503.53125 364.789062 522.121094 361.109375 541.089844 361.074219 C 560.0625 361.109375 578.652344 364.789062 595.933594 371.949219 C 613.214844 379.105469 629.121094 389.742188 642.480469 403.058594 C 655.800781 416.378906 666.441406 432.3125 673.601562 449.585938 C 680.761719 466.863281 684.445312 485.445312 684.480469 504.410156 L 666.785156 504.410156 C 666.75 487.71875 663.515625 471.507812 657.25 456.367188 C 650.984375 441.257812 641.652344 427.285156 629.980469 415.585938 C 618.277344 403.886719 604.300781 394.558594 589.1875 388.328125 C 574.039062 382.066406 557.824219 378.832031 541.125 378.796875 C 524.429688 378.832031 508.214844 382.066406 493.066406 388.328125 C 477.953125 394.59375 463.972656 403.917969 452.269531 415.585938 C 440.5625 427.285156 431.234375 441.257812 425.003906 456.367188 C 418.632812 471.507812 415.433594 487.71875 415.398438 504.410156 Z M 415.398438 504.410156 " fill-opacity="1" fill-rule="nonzero"/><path fill="#231f20" d="M 449.410156 504.410156 L 431.714844 504.410156 C 431.75 489.816406 434.539062 475.742188 440.011719 462.59375 C 445.453125 449.484375 453.578125 437.300781 463.769531 427.113281 C 473.957031 416.929688 486.144531 408.804688 499.261719 403.367188 C 512.414062 397.929688 526.460938 395.144531 541.089844 395.074219 C 555.6875 395.109375 569.769531 397.898438 582.921875 403.367188 C 596.035156 408.804688 608.222656 416.929688 618.414062 427.113281 C 628.605469 437.300781 636.730469 449.484375 642.167969 462.59375 C 647.609375 475.742188 650.398438 489.78125 650.464844 504.410156 L 632.769531 504.410156 C 632.734375 492.089844 630.394531 480.386719 625.851562 469.375 C 621.304688 458.398438 614.488281 448.175781 605.953125 439.605469 C 597.378906 431.039062 587.15625 424.222656 576.171875 419.714844 C 565.191406 415.171875 553.484375 412.832031 541.125 412.796875 C 528.800781 412.832031 517.09375 415.171875 506.078125 419.714844 C 495.097656 424.257812 484.871094 431.070312 476.300781 439.605469 C 467.726562 448.175781 460.910156 458.398438 456.402344 469.375 C 451.789062 480.386719 449.445312 492.089844 449.410156 504.410156 Z M 449.410156 504.410156 " fill-opacity="1" fill-rule="nonzero"/><path fill="#231f20" d="M 483.425781 504.410156 L 465.730469 504.410156 C 465.765625 494.152344 467.691406 484.65625 471.410156 475.636719 C 475.128906 466.65625 480.742188 458.226562 487.796875 451.167969 C 494.855469 444.113281 503.289062 438.503906 512.277344 434.789062 C 521.296875 431.070312 530.832031 429.144531 541.058594 429.109375 C 551.316406 429.144531 560.816406 431.070312 569.839844 434.789062 C 578.824219 438.503906 587.257812 444.113281 594.316406 451.167969 C 601.375 458.226562 606.984375 466.65625 610.703125 475.636719 C 614.421875 484.65625 616.347656 494.1875 616.382812 504.410156 L 598.6875 504.410156 C 598.617188 496.425781 597.171875 489.265625 594.351562 482.417969 C 591.527344 475.605469 587.257812 469.132812 581.820312 463.695312 C 576.378906 458.257812 569.90625 453.992188 563.089844 451.167969 C 556.238281 448.347656 549.078125 446.867188 541.089844 446.832031 C 533.105469 446.902344 525.941406 448.347656 519.09375 451.167969 C 512.277344 453.992188 505.804688 458.257812 500.363281 463.695312 C 494.925781 469.132812 490.65625 475.605469 487.832031 482.417969 C 484.941406 489.265625 483.460938 496.457031 483.425781 504.410156 Z M 483.425781 504.410156 " fill-opacity="1" fill-rule="nonzero"/><path fill="#231f20" d="M 938.828125 528.257812 L 956.523438 528.257812 C 956.558594 581.53125 945.953125 635.734375 925.230469 685.53125 C 904.574219 735.394531 874.070312 780.820312 836.167969 818.710938 C 798.261719 856.636719 752.820312 887.09375 702.933594 907.742188 C 653.117188 928.457031 598.859375 939.058594 545.601562 939.023438 L 545.601562 921.335938 C 596.621094 921.371094 648.503906 911.25 696.152344 891.394531 C 743.867188 871.640625 787.382812 842.457031 823.667969 806.183594 C 859.957031 769.914062 889.148438 726.449219 908.910156 678.714844 C 928.707031 631.121094 938.863281 579.226562 938.828125 528.257812 Z M 938.828125 528.257812 " fill-opacity="1" fill-rule="nonzero"/><path fill="#231f20" d="M 564.640625 528.257812 L 582.335938 528.257812 C 582.265625 533.558594 581.371094 537.929688 579.582031 542.265625 C 577.824219 546.566406 575.070312 550.730469 571.558594 554.238281 C 568.046875 557.75 563.847656 560.503906 559.578125 562.257812 C 555.242188 564.011719 550.835938 564.941406 545.566406 565.011719 L 545.566406 547.324219 C 548.597656 547.253906 550.628906 546.808594 552.796875 545.910156 C 554.929688 545.050781 557.132812 543.605469 559.0625 541.714844 C 560.957031 539.820312 562.367188 537.582031 563.261719 535.449219 C 564.125 533.28125 564.570312 531.25 564.640625 528.257812 Z M 564.640625 528.257812 " fill-opacity="1" fill-rule="nonzero"/><path fill="#231f20" d="M 904.8125 528.257812 L 922.507812 528.257812 C 922.542969 577.160156 912.835938 626.855469 893.832031 672.519531 C 874.898438 718.257812 846.90625 759.933594 812.136719 794.691406 C 777.363281 829.484375 735.640625 857.429688 689.921875 876.355469 C 644.234375 895.351562 594.523438 905.058594 545.601562 905.023438 L 545.601562 887.332031 C 592.25 887.367188 639.621094 878.109375 683.136719 860.007812 C 726.722656 841.976562 766.453125 815.304688 799.640625 782.164062 C 832.792969 749.023438 859.472656 709.273438 877.511719 665.707031 C 895.585938 622.207031 904.847656 574.886719 904.8125 528.257812 Z M 904.8125 528.257812 " fill-opacity="1" fill-rule="nonzero"/><path fill="#231f20" d="M 836.785156 528.257812 L 854.480469 528.257812 C 854.480469 568.417969 846.527344 609.0625 830.96875 646.46875 C 815.476562 683.914062 792.546875 718.085938 764.007812 746.613281 C 735.46875 775.144531 701.28125 798.0625 663.824219 813.550781 C 626.402344 829.105469 585.742188 837.054688 545.566406 837.054688 L 545.566406 819.367188 C 583.503906 819.367188 621.789062 811.863281 657.042969 797.203125 C 692.328125 782.613281 724.589844 761 751.476562 734.089844 C 778.398438 707.175781 800.019531 674.964844 814.613281 639.691406 C 829.28125 604.414062 836.785156 566.148438 836.785156 528.257812 Z M 836.785156 528.257812 " fill-opacity="1" fill-rule="nonzero"/><path fill="#231f20" d="M 870.800781 528.257812 L 888.496094 528.257812 C 888.53125 572.789062 879.683594 617.976562 862.398438 659.476562 C 845.1875 701.050781 819.710938 738.976562 788.070312 770.636719 C 756.398438 802.296875 718.460938 827.730469 676.871094 844.9375 C 635.320312 862.210938 590.148438 871.054688 545.601562 871.019531 L 545.601562 853.332031 C 587.878906 853.367188 630.707031 844.96875 670.089844 828.589844 C 709.542969 812.277344 745.519531 788.152344 775.539062 758.109375 C 805.59375 728.101562 829.726562 692.101562 846.046875 652.699219 C 862.433594 613.328125 870.800781 570.519531 870.800781 528.257812 Z M 870.800781 528.257812 " fill-opacity="1" fill-rule="nonzero"/><path fill="#231f20" d="M 802.773438 528.257812 L 820.46875 528.257812 C 820.46875 564.082031 813.410156 600.183594 799.570312 633.460938 C 785.765625 666.738281 765.382812 697.195312 739.976562 722.59375 C 714.570312 747.992188 684.136719 768.398438 650.8125 782.164062 C 617.519531 796 581.40625 803.089844 545.566406 803.054688 L 545.566406 785.363281 C 579.132812 785.363281 612.871094 778.757812 644.027344 765.816406 C 675.183594 752.914062 703.65625 733.847656 727.445312 710.066406 C 751.234375 686.285156 770.308594 657.828125 783.21875 626.683594 C 796.128906 595.535156 802.773438 561.777344 802.773438 528.257812 Z M 802.773438 528.257812 " fill-opacity="1" fill-rule="nonzero"/><path fill="#231f20" d="M 768.757812 528.257812 L 786.453125 528.257812 C 786.453125 559.710938 780.257812 591.304688 768.136719 620.417969 C 756.054688 649.566406 738.1875 676.238281 715.914062 698.503906 C 693.636719 720.769531 666.957031 738.664062 637.796875 750.710938 C 608.671875 762.824219 577.066406 769.019531 545.601562 769.019531 L 545.601562 751.328125 C 574.796875 751.328125 604.023438 745.582031 631.015625 734.363281 C 658.007812 723.179688 682.757812 706.625 703.414062 685.976562 C 724.070312 665.328125 740.632812 640.621094 751.820312 613.605469 C 763.007812 586.65625 768.722656 557.441406 768.757812 528.257812 Z M 768.757812 528.257812 " fill-opacity="1" fill-rule="nonzero"/><path fill="#231f20" d="M 734.742188 528.257812 L 752.441406 528.257812 C 752.441406 555.339844 747.101562 582.390625 736.707031 607.410156 C 726.34375 632.429688 710.988281 655.347656 691.847656 674.484375 C 672.707031 693.617188 649.742188 708.964844 624.75 719.324219 C 599.753906 729.71875 572.695312 735.015625 545.566406 735.050781 L 545.566406 717.363281 C 570.390625 717.363281 595.109375 712.476562 617.96875 703.011719 C 640.828125 693.546875 661.792969 679.507812 679.351562 661.992188 C 696.875 644.472656 710.921875 623.480469 720.386719 600.628906 C 729.855469 577.746094 734.710938 553.070312 734.742188 528.257812 Z M 734.742188 528.257812 " fill-opacity="1" fill-rule="nonzero"/><path fill="#231f20" d="M 700.695312 528.257812 L 718.390625 528.257812 C 718.355469 551.003906 713.914062 573.511719 705.273438 594.367188 C 696.632812 615.222656 683.792969 634.390625 667.78125 650.425781 C 651.738281 666.429688 632.5625 679.265625 611.703125 687.902344 C 590.839844 696.578125 568.289062 701.015625 545.566406 701.015625 L 545.566406 683.328125 C 566.050781 683.292969 586.191406 679.335938 604.917969 671.558594 C 623.648438 663.8125 640.859375 652.285156 655.25 637.902344 C 669.640625 623.515625 681.175781 606.273438 688.921875 587.585938 C 696.703125 568.867188 700.695312 548.699219 700.695312 528.257812 Z M 700.695312 528.257812 " fill-opacity="1" fill-rule="nonzero"/><path fill="#231f20" d="M 666.679688 528.257812 L 684.378906 528.257812 C 684.34375 546.632812 680.796875 564.597656 673.84375 581.359375 C 666.921875 598.082031 656.59375 613.5 643.71875 626.40625 C 630.808594 639.3125 615.386719 649.601562 598.652344 656.519531 C 581.921875 663.46875 563.917969 667.015625 545.53125 667.050781 L 545.53125 649.359375 C 561.644531 649.324219 577.273438 646.230469 591.871094 640.171875 C 606.433594 634.148438 619.929688 625.167969 631.1875 613.878906 C 642.445312 602.589844 651.464844 589.136719 657.488281 574.578125 C 663.546875 559.988281 666.648438 544.328125 666.679688 528.257812 Z M 666.679688 528.257812 " fill-opacity="1" fill-rule="nonzero"/><path fill="#231f20" d="M 632.667969 528.257812 L 650.363281 528.257812 C 650.328125 542.265625 647.644531 555.71875 642.410156 568.316406 C 637.210938 580.875 629.429688 592.578125 619.652344 602.351562 C 609.875 612.125 598.207031 619.902344 585.605469 625.097656 C 573.003906 630.328125 559.542969 632.980469 545.53125 633.046875 L 545.53125 615.359375 C 557.273438 615.324219 568.390625 613.089844 578.824219 608.785156 C 589.253906 604.484375 598.964844 598.015625 607.121094 589.859375 C 615.246094 581.703125 621.753906 571.996094 626.058594 561.570312 C 630.394531 551.074219 632.632812 539.992188 632.667969 528.257812 Z M 632.667969 528.257812 " fill-opacity="1" fill-rule="nonzero"/><path fill="#231f20" d="M 598.652344 528.257812 L 616.347656 528.257812 C 616.316406 537.894531 614.488281 546.839844 611.011719 555.308594 C 607.535156 563.738281 602.269531 571.652344 595.625 578.296875 C 588.980469 584.9375 581.0625 590.203125 572.625 593.679688 C 564.15625 597.1875 555.242188 598.976562 545.566406 599.011719 L 545.566406 581.324219 C 552.933594 581.253906 559.511719 579.914062 565.84375 577.332031 C 572.109375 574.75 578.101562 570.792969 583.125 565.769531 C 588.152344 560.746094 592.078125 554.789062 594.695312 548.492188 C 597.277344 542.195312 598.617188 535.621094 598.652344 528.257812 Z M 598.652344 528.257812 " fill-opacity="1" fill-rule="nonzero"/><g clip-path="url(#a886da3bb3)"><path fill="#231f20" d="M 143.25 1410.597656 L 125.554688 1410.597656 C 125.519531 1356.742188 136.226562 1301.917969 157.195312 1251.570312 C 178.089844 1201.15625 208.902344 1155.210938 247.253906 1116.910156 C 285.574219 1078.574219 331.535156 1047.773438 381.96875 1026.882812 C 432.335938 1005.925781 487.179688 995.222656 541.058594 995.257812 C 594.933594 995.222656 649.777344 1005.925781 700.144531 1026.882812 C 750.582031 1047.773438 796.539062 1078.574219 834.859375 1116.910156 C 873.210938 1155.210938 904.023438 1201.15625 924.917969 1251.570312 C 945.886719 1301.917969 956.59375 1356.742188 956.558594 1410.597656 L 938.863281 1410.597656 C 938.898438 1359.011719 928.636719 1306.566406 908.566406 1258.351562 C 888.566406 1210.101562 859.058594 1166.121094 822.328125 1129.4375 C 785.628906 1092.75 741.628906 1063.222656 693.363281 1043.230469 C 645.164062 1023.167969 592.664062 1012.910156 541.058594 1012.945312 C 489.449219 1012.910156 436.984375 1023.167969 388.75 1043.230469 C 340.484375 1063.222656 296.488281 1092.71875 259.789062 1129.4375 C 223.089844 1166.121094 193.550781 1210.101562 173.546875 1258.351562 C 153.476562 1306.53125 143.21875 1359.011719 143.25 1410.597656 Z M 143.25 1410.597656 " fill-opacity="1" fill-rule="nonzero"/></g><g clip-path="url(#317aa61b7b)"><path fill="#231f20" d="M 517.441406 1410.597656 L 499.746094 1410.597656 C 499.8125 1404.714844 500.847656 1399.722656 502.84375 1394.835938 C 504.839844 1389.984375 507.902344 1385.339844 511.863281 1381.382812 C 515.820312 1377.457031 520.46875 1374.363281 525.324219 1372.367188 C 530.210938 1370.371094 535.203125 1369.335938 541.089844 1369.269531 C 546.976562 1369.335938 551.96875 1370.371094 556.859375 1372.367188 C 561.714844 1374.363281 566.359375 1377.425781 570.320312 1381.382812 C 574.246094 1385.339844 577.34375 1389.984375 579.339844 1394.835938 C 581.335938 1399.726562 582.371094 1404.714844 582.4375 1410.597656 L 564.742188 1410.597656 C 564.675781 1406.984375 564.089844 1404.371094 562.988281 1401.617188 C 561.886719 1398.933594 560.128906 1396.214844 557.824219 1393.910156 C 555.515625 1391.601562 552.796875 1389.847656 550.109375 1388.746094 C 547.390625 1387.644531 544.742188 1387.058594 541.125 1386.992188 C 537.511719 1387.058594 534.894531 1387.644531 532.140625 1388.746094 C 529.453125 1389.847656 526.734375 1391.601562 524.429688 1393.910156 C 522.121094 1396.214844 520.367188 1398.933594 519.265625 1401.617188 C 518.09375 1404.335938 517.507812 1406.984375 517.441406 1410.597656 Z M 517.441406 1410.597656 " fill-opacity="1" fill-rule="nonzero"/></g><g clip-path="url(#47d9e632e0)"><path fill="#231f20" d="M 177.265625 1410.597656 L 159.570312 1410.597656 C 159.535156 1361.113281 169.382812 1310.796875 188.59375 1264.613281 C 207.769531 1218.363281 236.066406 1176.171875 271.285156 1140.964844 C 306.503906 1105.757812 348.679688 1077.472656 394.984375 1058.300781 C 441.21875 1039.066406 491.515625 1029.257812 541.023438 1029.292969 C 590.527344 1029.257812 640.859375 1039.101562 687.0625 1058.300781 C 733.332031 1077.472656 775.539062 1105.757812 810.757812 1140.964844 C 845.976562 1176.171875 874.277344 1218.328125 893.453125 1264.613281 C 912.699219 1310.832031 922.507812 1361.113281 922.476562 1410.597656 L 904.78125 1410.597656 C 904.8125 1363.382812 895.414062 1315.445312 877.101562 1271.394531 C 858.820312 1227.277344 831.828125 1187.046875 798.226562 1153.492188 C 764.660156 1119.902344 724.414062 1092.921875 680.28125 1074.648438 C 636.214844 1056.304688 588.257812 1046.945312 541.023438 1046.980469 C 493.789062 1046.945312 445.832031 1056.339844 401.765625 1074.648438 C 357.628906 1092.921875 317.382812 1119.902344 283.816406 1153.492188 C 250.214844 1187.046875 223.226562 1227.277344 204.945312 1271.394531 C 186.628906 1315.410156 177.265625 1363.347656 177.265625 1410.597656 Z M 177.265625 1410.597656 " fill-opacity="1" fill-rule="nonzero"/></g><g clip-path="url(#5a17dd47da)"><path fill="#231f20" d="M 245.292969 1410.597656 L 227.597656 1410.597656 C 227.597656 1369.820312 235.652344 1328.589844 251.457031 1290.667969 C 267.1875 1252.671875 290.460938 1218.019531 319.414062 1189.074219 C 348.367188 1160.132812 383.070312 1136.871094 421.042969 1121.144531 C 459.015625 1105.347656 500.261719 1097.292969 541.023438 1097.292969 C 581.820312 1097.292969 623.0625 1105.347656 661 1121.144531 C 699.007812 1136.871094 733.675781 1160.132812 762.628906 1189.074219 C 791.582031 1218.019531 814.855469 1252.707031 830.589844 1290.667969 C 846.390625 1328.625 854.445312 1369.851562 854.445312 1410.597656 L 836.75 1410.597656 C 836.75 1372.089844 829.144531 1333.238281 814.234375 1297.445312 C 799.398438 1261.621094 777.433594 1228.894531 750.132812 1201.570312 C 722.796875 1174.242188 690.058594 1152.320312 654.21875 1137.488281 C 618.414062 1122.589844 579.511719 1114.984375 541.023438 1114.984375 C 502.5 1114.984375 463.628906 1122.589844 427.824219 1137.488281 C 391.988281 1152.320312 359.246094 1174.277344 331.910156 1201.570312 C 304.578125 1228.894531 282.648438 1261.621094 267.808594 1297.445312 C 252.902344 1333.203125 245.292969 1372.089844 245.292969 1410.597656 Z M 245.292969 1410.597656 " fill-opacity="1" fill-rule="nonzero"/></g><g clip-path="url(#d053a37040)"><path fill="#231f20" d="M 211.28125 1410.597656 L 193.582031 1410.597656 C 193.550781 1365.484375 202.5 1319.710938 220.023438 1277.625 C 237.476562 1235.5 263.265625 1197.058594 295.351562 1164.984375 C 327.4375 1132.914062 365.890625 1107.136719 408.03125 1089.6875 C 450.136719 1072.171875 495.886719 1063.222656 541.058594 1063.257812 C 586.191406 1063.222656 631.980469 1072.171875 674.082031 1089.6875 C 716.222656 1107.136719 754.675781 1132.914062 786.761719 1164.984375 C 818.847656 1197.058594 844.636719 1235.5 862.089844 1277.625 C 879.613281 1319.710938 888.566406 1365.449219 888.53125 1410.597656 L 870.835938 1410.597656 C 870.867188 1367.753906 862.367188 1324.324219 845.738281 1284.402344 C 829.175781 1244.449219 804.699219 1207.96875 774.230469 1177.511719 C 743.765625 1147.058594 707.269531 1122.589844 667.300781 1106.035156 C 627.367188 1089.414062 583.953125 1080.949219 541.058594 1080.949219 C 498.195312 1080.914062 454.75 1089.414062 414.8125 1106.035156 C 374.84375 1122.589844 338.351562 1147.058594 307.882812 1177.511719 C 277.414062 1207.96875 252.9375 1244.449219 236.375 1284.402344 C 219.78125 1324.324219 211.28125 1367.71875 211.28125 1410.597656 Z M 211.28125 1410.597656 " fill-opacity="1" fill-rule="nonzero"/></g><g clip-path="url(#dd3e505a58)"><path fill="#231f20" d="M 279.308594 1410.597656 L 261.613281 1410.597656 C 261.613281 1374.1875 268.808594 1337.503906 282.851562 1303.675781 C 296.863281 1269.847656 317.625 1238.90625 343.445312 1213.097656 C 369.265625 1187.285156 400.214844 1166.535156 434.058594 1152.527344 C 467.863281 1138.453125 504.597656 1131.261719 541.023438 1131.292969 C 577.445312 1131.292969 614.144531 1138.488281 647.988281 1152.527344 C 681.828125 1166.535156 712.78125 1187.285156 738.601562 1213.097656 C 764.421875 1238.90625 785.179688 1269.847656 799.191406 1303.675781 C 813.273438 1337.46875 820.46875 1374.1875 820.433594 1410.597656 L 802.738281 1410.597656 C 802.738281 1376.460938 795.988281 1342.117188 782.839844 1310.453125 C 769.722656 1278.757812 750.304688 1249.78125 726.101562 1225.589844 C 701.902344 1201.394531 672.914062 1181.988281 641.207031 1168.875 C 609.53125 1155.730469 575.175781 1148.984375 541.023438 1148.984375 C 506.871094 1148.984375 472.511719 1155.730469 440.839844 1168.875 C 409.132812 1181.988281 380.144531 1201.394531 355.941406 1225.589844 C 331.738281 1249.78125 312.324219 1278.757812 299.207031 1310.453125 C 286.054688 1342.117188 279.308594 1376.460938 279.308594 1410.597656 Z M 279.308594 1410.597656 " fill-opacity="1" fill-rule="nonzero"/></g><g clip-path="url(#5aa60b4b68)"><path fill="#231f20" d="M 313.355469 1410.597656 L 295.660156 1410.597656 C 295.660156 1378.558594 301.996094 1346.382812 314.320312 1316.71875 C 326.609375 1287.019531 344.820312 1259.832031 367.542969 1237.152344 C 390.230469 1214.472656 417.429688 1196.234375 447.140625 1183.949219 C 476.816406 1171.628906 509.003906 1165.296875 541.058594 1165.296875 C 573.109375 1165.296875 605.296875 1171.628906 634.972656 1183.949219 C 664.683594 1196.234375 691.882812 1214.4375 714.570312 1237.152344 C 737.257812 1259.832031 755.503906 1287.019531 767.792969 1316.71875 C 780.117188 1346.382812 786.453125 1378.558594 786.453125 1410.597656 L 768.757812 1410.597656 C 768.757812 1380.832031 762.90625 1350.996094 751.441406 1323.496094 C 740.046875 1295.964844 723.140625 1270.742188 702.074219 1249.679688 C 681.003906 1228.617188 655.769531 1211.71875 628.226562 1200.328125 C 600.683594 1188.902344 570.871094 1183.019531 541.089844 1183.019531 C 511.3125 1183.019531 481.464844 1188.871094 453.957031 1200.328125 C 426.414062 1211.71875 401.179688 1228.617188 380.109375 1249.679688 C 359.039062 1270.742188 342.136719 1295.964844 330.742188 1323.496094 C 319.207031 1350.996094 313.355469 1380.796875 313.355469 1410.597656 Z M 313.355469 1410.597656 " fill-opacity="1" fill-rule="nonzero"/></g><g clip-path="url(#75ef6bf5eb)"><path fill="#231f20" d="M 347.371094 1410.597656 L 329.675781 1410.597656 C 329.675781 1382.894531 335.113281 1355.261719 345.75 1329.726562 C 356.320312 1304.15625 372.019531 1280.753906 391.609375 1261.171875 C 411.199219 1241.59375 434.609375 1225.933594 460.1875 1215.335938 C 485.734375 1204.734375 513.378906 1199.296875 541.089844 1199.261719 C 568.769531 1199.261719 596.449219 1204.699219 621.996094 1215.335938 C 647.574219 1225.898438 670.984375 1241.59375 690.574219 1261.171875 C 710.164062 1280.753906 725.828125 1304.15625 736.429688 1329.726562 C 747.035156 1355.261719 752.472656 1382.894531 752.507812 1410.597656 L 734.8125 1410.597656 C 734.777344 1385.167969 729.820312 1359.90625 720.113281 1336.507812 C 710.4375 1313.105469 696.046875 1291.628906 678.113281 1273.699219 C 660.175781 1255.769531 638.691406 1241.386719 615.28125 1231.714844 C 591.871094 1222.011719 566.601562 1217.019531 541.160156 1217.019531 C 515.71875 1217.054688 490.449219 1222.011719 467.039062 1231.714844 C 443.628906 1241.386719 422.144531 1255.769531 404.210938 1273.699219 C 386.273438 1291.628906 371.882812 1313.105469 362.207031 1336.507812 C 352.363281 1359.875 347.371094 1385.167969 347.371094 1410.597656 Z M 347.371094 1410.597656 " fill-opacity="1" fill-rule="nonzero"/></g><g clip-path="url(#431cd35f8b)"><path fill="#231f20" d="M 381.382812 1410.597656 L 363.6875 1410.597656 C 363.722656 1387.265625 368.265625 1364.175781 377.148438 1342.769531 C 385.996094 1321.363281 399.183594 1301.679688 415.640625 1285.230469 C 432.09375 1268.777344 451.789062 1255.632812 473.199219 1246.753906 C 494.613281 1237.875 517.75 1233.296875 541.058594 1233.296875 C 564.398438 1233.332031 587.5 1237.875 608.914062 1246.753906 C 630.328125 1255.597656 650.019531 1268.777344 666.476562 1285.230469 C 682.929688 1301.679688 696.082031 1321.363281 704.964844 1342.769531 C 713.847656 1364.175781 718.425781 1387.300781 718.425781 1410.597656 L 700.730469 1410.597656 C 700.695312 1389.539062 696.597656 1368.785156 688.613281 1349.550781 C 680.660156 1330.3125 668.78125 1312.589844 653.976562 1297.753906 C 639.140625 1282.957031 621.410156 1271.085938 602.164062 1263.136719 C 582.886719 1255.152344 562.125 1251.054688 541.089844 1251.023438 C 520.023438 1251.054688 499.261719 1255.152344 480.015625 1263.136719 C 460.773438 1271.085938 443.042969 1282.957031 428.203125 1297.753906 C 413.402344 1312.589844 401.523438 1330.3125 393.570312 1349.550781 C 385.480469 1368.785156 381.382812 1389.539062 381.382812 1410.597656 Z M 381.382812 1410.597656 " fill-opacity="1" fill-rule="nonzero"/></g><g clip-path="url(#722e298ef1)"><path fill="#231f20" d="M 415.398438 1410.597656 L 397.703125 1410.597656 C 397.738281 1391.636719 401.421875 1373.054688 408.582031 1355.777344 C 415.742188 1338.503906 426.378906 1322.601562 439.703125 1309.25 C 453.027344 1295.933594 468.964844 1285.296875 486.25 1278.140625 C 503.53125 1270.980469 522.121094 1267.300781 541.089844 1267.265625 C 560.0625 1267.300781 578.652344 1270.980469 595.933594 1278.140625 C 613.214844 1285.296875 629.121094 1295.933594 642.480469 1309.25 C 655.800781 1322.566406 666.441406 1338.503906 673.601562 1355.777344 C 680.761719 1373.054688 684.445312 1391.636719 684.480469 1410.597656 L 666.785156 1410.597656 C 666.75 1393.910156 663.515625 1377.699219 657.25 1362.558594 C 650.984375 1347.449219 641.652344 1333.476562 629.980469 1321.777344 C 618.277344 1310.074219 604.300781 1300.75 589.1875 1294.519531 C 574.039062 1288.257812 557.824219 1285.023438 541.125 1284.988281 C 524.429688 1285.023438 508.214844 1288.257812 493.066406 1294.519531 C 477.953125 1300.785156 463.972656 1310.109375 452.269531 1321.777344 C 440.5625 1333.476562 431.234375 1347.449219 425.003906 1362.558594 C 418.632812 1377.664062 415.433594 1393.875 415.398438 1410.597656 Z M 415.398438 1410.597656 " fill-opacity="1" fill-rule="nonzero"/></g><g clip-path="url(#be1285718c)"><path fill="#231f20" d="M 449.410156 1410.597656 L 431.714844 1410.597656 C 431.75 1396.007812 434.539062 1381.933594 440.011719 1368.785156 C 445.453125 1355.675781 453.578125 1343.492188 463.769531 1333.304688 C 473.957031 1323.117188 486.144531 1314.996094 499.261719 1309.558594 C 512.414062 1304.121094 526.460938 1301.335938 541.089844 1301.265625 C 555.6875 1301.300781 569.769531 1304.089844 582.921875 1309.558594 C 596.035156 1314.996094 608.222656 1323.117188 618.414062 1333.304688 C 628.605469 1343.492188 636.730469 1355.675781 642.167969 1368.785156 C 647.609375 1381.933594 650.398438 1395.972656 650.464844 1410.597656 L 632.769531 1410.597656 C 632.734375 1398.277344 630.394531 1386.578125 625.851562 1375.566406 C 621.304688 1364.585938 614.488281 1354.367188 605.953125 1345.796875 C 597.378906 1337.230469 587.15625 1330.414062 576.171875 1325.90625 C 565.191406 1321.363281 553.484375 1319.023438 541.125 1318.988281 C 528.800781 1319.023438 517.09375 1321.363281 506.078125 1325.90625 C 495.097656 1330.449219 484.871094 1337.261719 476.300781 1345.796875 C 467.726562 1354.367188 460.910156 1364.585938 456.402344 1375.566406 C 451.789062 1386.542969 449.445312 1398.246094 449.410156 1410.597656 Z M 449.410156 1410.597656 " fill-opacity="1" fill-rule="nonzero"/></g><g clip-path="url(#13153c75c7)"><path fill="#231f20" d="M 483.425781 1410.597656 L 465.730469 1410.597656 C 465.765625 1400.34375 467.691406 1390.847656 471.410156 1381.828125 C 475.128906 1372.847656 480.742188 1364.414062 487.796875 1357.359375 C 494.855469 1350.304688 503.289062 1344.695312 512.277344 1340.980469 C 521.296875 1337.261719 530.832031 1335.335938 541.058594 1335.300781 C 551.316406 1335.335938 560.816406 1337.261719 569.839844 1340.980469 C 578.824219 1344.695312 587.257812 1350.304688 594.316406 1357.359375 C 601.375 1364.414062 606.984375 1372.847656 610.703125 1381.828125 C 614.421875 1390.847656 616.347656 1400.378906 616.382812 1410.597656 L 598.6875 1410.597656 C 598.617188 1402.617188 597.171875 1395.457031 594.351562 1388.609375 C 591.527344 1381.792969 587.257812 1375.324219 581.820312 1369.886719 C 576.378906 1364.449219 569.90625 1360.183594 563.089844 1357.359375 C 556.238281 1354.539062 549.078125 1353.058594 541.089844 1353.023438 C 533.105469 1353.09375 525.941406 1354.539062 519.09375 1357.359375 C 512.277344 1360.183594 505.804688 1364.449219 500.363281 1369.886719 C 494.925781 1375.324219 490.65625 1381.792969 487.832031 1388.609375 C 484.941406 1395.457031 483.460938 1402.617188 483.425781 1410.597656 Z M 483.425781 1410.597656 " fill-opacity="1" fill-rule="nonzero"/></g><path fill="#231f20" d="M 1373.644531 94.433594 L 1391.339844 94.433594 C 1391.371094 147.707031 1380.769531 201.910156 1360.042969 251.707031 C 1339.386719 301.570312 1308.886719 347 1270.980469 384.886719 C 1233.078125 422.8125 1187.632812 453.269531 1137.75 473.917969 C 1087.933594 494.636719 1033.675781 505.234375 980.417969 505.199219 L 980.417969 487.511719 C 1031.4375 487.546875 1083.320312 477.429688 1130.964844 457.570312 C 1178.683594 437.816406 1222.199219 408.632812 1258.484375 372.363281 C 1294.769531 336.089844 1323.964844 292.625 1343.726562 244.890625 C 1363.519531 197.296875 1373.675781 145.433594 1373.644531 94.433594 Z M 1373.644531 94.433594 " fill-opacity="1" fill-rule="nonzero"/><path fill="#231f20" d="M 999.453125 94.433594 L 1017.148438 94.433594 C 1017.082031 99.734375 1016.1875 104.105469 1014.394531 108.441406 C 1012.640625 112.742188 1009.886719 116.90625 1006.375 120.417969 C 1002.863281 123.925781 998.664062 126.679688 994.394531 128.433594 C 990.054688 130.191406 985.648438 131.121094 980.382812 131.1875 L 980.382812 113.5 C 983.410156 113.429688 985.441406 112.984375 987.613281 112.089844 C 989.746094 111.226562 991.949219 109.78125 993.878906 107.890625 C 995.769531 105.996094 997.183594 103.761719 998.078125 101.625 C 998.9375 99.492188 999.386719 97.460938 999.453125 94.433594 Z M 999.453125 94.433594 " fill-opacity="1" fill-rule="nonzero"/><path fill="#231f20" d="M 1339.628906 94.433594 L 1357.324219 94.433594 C 1357.359375 143.335938 1347.648438 193.03125 1328.648438 238.699219 C 1309.710938 284.433594 1281.722656 326.109375 1246.949219 360.867188 C 1212.179688 395.660156 1170.453125 423.605469 1124.734375 442.53125 C 1079.050781 461.527344 1029.335938 471.234375 980.417969 471.199219 L 980.417969 453.511719 C 1027.066406 453.542969 1074.4375 444.285156 1117.953125 426.183594 C 1161.539062 408.152344 1201.265625 381.480469 1234.453125 348.339844 C 1267.605469 315.199219 1294.289062 275.453125 1312.328125 231.882812 C 1330.402344 188.417969 1339.664062 141.066406 1339.628906 94.433594 Z M 1339.628906 94.433594 " fill-opacity="1" fill-rule="nonzero"/><path fill="#231f20" d="M 1271.601562 94.433594 L 1289.296875 94.433594 C 1289.296875 134.59375 1281.34375 175.238281 1265.78125 212.644531 C 1250.289062 250.089844 1227.363281 284.261719 1198.820312 312.789062 C 1170.28125 341.320312 1136.09375 364.238281 1098.640625 379.726562 C 1061.214844 395.28125 1020.59375 403.230469 980.382812 403.230469 L 980.382812 385.542969 C 1018.320312 385.542969 1056.601562 378.039062 1091.855469 363.378906 C 1127.144531 348.789062 1159.402344 327.175781 1186.289062 300.265625 C 1213.210938 273.351562 1234.832031 241.140625 1249.429688 205.867188 C 1264.09375 170.625 1271.601562 132.359375 1271.601562 94.433594 Z M 1271.601562 94.433594 " fill-opacity="1" fill-rule="nonzero"/><path fill="#231f20" d="M 1305.613281 94.433594 L 1323.308594 94.433594 C 1323.34375 138.964844 1314.496094 184.152344 1297.214844 225.65625 C 1280 267.226562 1254.523438 305.152344 1222.886719 336.8125 C 1191.214844 368.472656 1153.273438 393.90625 1111.6875 411.113281 C 1070.132812 428.386719 1024.964844 437.230469 980.417969 437.199219 L 980.417969 419.507812 C 1022.691406 419.542969 1065.519531 411.144531 1104.90625 394.765625 C 1144.359375 378.453125 1180.335938 354.328125 1210.355469 324.285156 C 1240.410156 294.277344 1264.542969 258.277344 1280.863281 218.875 C 1297.25 179.503906 1305.613281 136.695312 1305.613281 94.433594 Z M 1305.613281 94.433594 " fill-opacity="1" fill-rule="nonzero"/><path fill="#231f20" d="M 1237.585938 94.433594 L 1255.28125 94.433594 C 1255.28125 130.257812 1248.226562 166.359375 1234.386719 199.636719 C 1220.578125 232.914062 1200.199219 263.371094 1174.792969 288.769531 C 1149.382812 314.167969 1118.949219 334.574219 1085.625 348.339844 C 1052.335938 362.175781 1016.21875 369.265625 980.382812 369.230469 L 980.382812 351.542969 C 1013.949219 351.542969 1047.722656 344.933594 1078.84375 331.992188 C 1110 319.089844 1138.472656 300.023438 1162.261719 276.242188 C 1186.050781 252.464844 1205.121094 224.003906 1218.03125 192.859375 C 1230.941406 161.746094 1237.585938 127.988281 1237.585938 94.433594 Z M 1237.585938 94.433594 " fill-opacity="1" fill-rule="nonzero"/><path fill="#231f20" d="M 1203.574219 94.433594 L 1221.269531 94.433594 C 1221.269531 125.886719 1215.070312 157.480469 1202.953125 186.59375 C 1190.871094 215.742188 1173 242.414062 1150.726562 264.679688 C 1128.453125 286.945312 1101.773438 304.839844 1072.613281 316.886719 C 1043.488281 329 1011.882812 335.195312 980.417969 335.195312 L 980.417969 317.503906 C 1009.609375 317.503906 1038.839844 311.757812 1065.828125 300.539062 C 1092.820312 289.355469 1117.574219 272.800781 1138.230469 252.152344 C 1158.886719 231.503906 1175.445312 206.796875 1186.632812 179.78125 C 1197.824219 152.835938 1203.539062 123.617188 1203.574219 94.433594 Z M 1203.574219 94.433594 " fill-opacity="1" fill-rule="nonzero"/><path fill="#231f20" d="M 1169.523438 94.433594 L 1187.21875 94.433594 C 1187.21875 121.519531 1181.882812 148.566406 1171.488281 173.585938 C 1161.125 198.605469 1145.769531 221.523438 1126.628906 240.660156 C 1107.488281 259.792969 1084.523438 275.175781 1059.53125 285.5 C 1034.535156 295.894531 1007.476562 301.195312 980.347656 301.226562 L 980.347656 283.539062 C 1005.167969 283.539062 1029.886719 278.652344 1052.746094 269.1875 C 1075.605469 259.722656 1096.574219 245.683594 1114.132812 228.167969 C 1131.65625 210.648438 1145.699219 189.65625 1155.167969 166.804688 C 1164.671875 143.957031 1169.523438 119.28125 1169.523438 94.433594 Z M 1169.523438 94.433594 " fill-opacity="1" fill-rule="nonzero"/><path fill="#231f20" d="M 1135.511719 94.433594 L 1153.207031 94.433594 C 1153.171875 117.179688 1148.730469 139.6875 1140.089844 160.542969 C 1131.449219 181.398438 1118.605469 200.566406 1102.597656 216.605469 C 1086.554688 232.605469 1067.378906 245.441406 1046.515625 254.082031 C 1025.652344 262.753906 1003.105469 267.191406 980.382812 267.191406 L 980.382812 249.503906 C 1000.867188 249.46875 1021.003906 245.511719 1039.734375 237.734375 C 1058.460938 229.992188 1075.675781 218.460938 1090.066406 204.078125 C 1104.457031 189.691406 1115.988281 172.449219 1123.734375 153.761719 C 1131.515625 135.078125 1135.511719 114.910156 1135.511719 94.433594 Z M 1135.511719 94.433594 " fill-opacity="1" fill-rule="nonzero"/><path fill="#231f20" d="M 1101.496094 94.433594 L 1119.191406 94.433594 C 1119.15625 112.8125 1115.613281 130.773438 1108.65625 147.535156 C 1101.738281 164.261719 1091.410156 179.675781 1078.535156 192.582031 C 1065.625 205.488281 1050.199219 215.777344 1033.46875 222.695312 C 1016.738281 229.648438 998.730469 233.191406 980.347656 233.226562 L 980.347656 215.535156 C 996.460938 215.503906 1012.089844 212.40625 1026.6875 206.347656 C 1041.25 200.324219 1054.746094 191.34375 1066.003906 180.054688 C 1077.257812 168.769531 1086.28125 155.3125 1092.304688 140.753906 C 1098.363281 126.164062 1101.460938 110.539062 1101.496094 94.433594 Z M 1101.496094 94.433594 " fill-opacity="1" fill-rule="nonzero"/><path fill="#231f20" d="M 1067.480469 94.433594 L 1085.179688 94.433594 C 1085.144531 108.441406 1082.457031 121.894531 1077.226562 134.492188 C 1072.027344 147.054688 1064.246094 158.753906 1054.46875 168.527344 C 1044.691406 178.300781 1033.019531 186.078125 1020.421875 191.273438 C 1007.820312 196.507812 994.359375 199.15625 980.347656 199.222656 L 980.347656 181.535156 C 992.085938 181.5 1003.207031 179.265625 1013.636719 174.960938 C 1024.070312 170.660156 1033.777344 164.191406 1041.9375 156.035156 C 1050.0625 147.878906 1056.570312 138.175781 1060.871094 127.746094 C 1065.210938 117.285156 1067.449219 106.167969 1067.480469 94.433594 Z M 1067.480469 94.433594 " fill-opacity="1" fill-rule="nonzero"/><path fill="#231f20" d="M 1033.46875 94.433594 L 1051.164062 94.433594 C 1051.128906 104.070312 1049.304688 113.015625 1045.828125 121.484375 C 1042.351562 129.914062 1037.082031 137.828125 1030.4375 144.472656 C 1023.792969 151.113281 1015.875 156.378906 1007.441406 159.855469 C 998.972656 163.363281 990.054688 165.15625 980.382812 165.1875 L 980.382812 147.5 C 987.75 147.429688 994.324219 146.089844 1000.660156 143.507812 C 1006.925781 140.925781 1012.914062 136.96875 1017.941406 131.945312 C 1022.96875 126.921875 1026.894531 120.96875 1029.507812 114.667969 C 1032.089844 108.371094 1033.433594 101.832031 1033.46875 94.433594 Z M 1033.46875 94.433594 " fill-opacity="1" fill-rule="nonzero"/><path fill="#231f20" d="M 1353.917969 528.257812 L 1371.613281 528.257812 C 1371.679688 531.285156 1372.128906 533.316406 1373.023438 535.484375 C 1373.882812 537.617188 1375.328125 539.820312 1377.222656 541.746094 C 1379.117188 543.640625 1381.355469 545.050781 1383.488281 545.945312 C 1385.65625 546.808594 1387.722656 547.289062 1390.71875 547.355469 L 1390.71875 565.046875 C 1385.417969 564.976562 1381.042969 564.082031 1376.707031 562.292969 C 1372.402344 560.539062 1368.238281 557.785156 1364.726562 554.273438 C 1361.214844 550.765625 1358.460938 546.566406 1356.703125 542.296875 C 1354.878906 537.929688 1353.984375 533.523438 1353.917969 528.257812 Z M 1353.917969 528.257812 " fill-opacity="1" fill-rule="nonzero"/><path fill="#231f20" d="M 979.726562 528.257812 L 997.421875 528.257812 C 997.386719 579.257812 1007.511719 631.121094 1027.375 678.75 C 1047.136719 726.449219 1076.332031 769.949219 1112.617188 806.21875 C 1148.902344 842.492188 1192.382812 871.675781 1240.132812 891.429688 C 1287.78125 911.25 1339.699219 921.402344 1390.683594 921.371094 L 1390.683594 939.058594 C 1337.390625 939.09375 1283.167969 928.492188 1233.351562 907.777344 C 1183.46875 887.128906 1138.023438 856.636719 1100.121094 818.746094 C 1062.179688 780.855469 1031.710938 735.429688 1011.054688 685.5625 C 990.296875 635.734375 979.691406 581.496094 979.726562 528.257812 Z M 979.726562 528.257812 " fill-opacity="1" fill-rule="nonzero"/><path fill="#231f20" d="M 1319.902344 528.257812 L 1337.597656 528.257812 C 1337.667969 535.621094 1339.007812 542.195312 1341.589844 548.527344 C 1344.171875 554.789062 1348.132812 560.777344 1353.160156 565.804688 C 1358.183594 570.828125 1364.140625 574.75 1370.441406 577.367188 C 1376.742188 579.949219 1383.316406 581.324219 1390.71875 581.359375 L 1390.71875 599.046875 C 1381.078125 599.011719 1372.128906 597.1875 1363.660156 593.714844 C 1355.222656 590.238281 1347.304688 584.972656 1340.660156 578.328125 C 1334.015625 571.6875 1328.75 563.773438 1325.273438 555.339844 C 1321.761719 546.804688 1319.9375 537.894531 1319.902344 528.257812 Z M 1319.902344 528.257812 " fill-opacity="1" fill-rule="nonzero"/><path fill="#231f20" d="M 1251.875 528.257812 L 1269.570312 528.257812 C 1269.605469 544.363281 1272.703125 559.988281 1278.761719 574.578125 C 1284.785156 589.136719 1293.773438 602.625 1305.0625 613.878906 C 1316.355469 625.132812 1329.816406 634.148438 1344.378906 640.171875 C 1358.976562 646.230469 1374.605469 649.324219 1390.71875 649.359375 L 1390.71875 667.050781 C 1372.335938 667.015625 1354.363281 663.46875 1337.597656 656.519531 C 1320.867188 649.601562 1305.441406 639.277344 1292.53125 626.40625 C 1279.621094 613.5 1269.328125 598.082031 1262.410156 581.359375 C 1255.453125 564.597656 1251.910156 546.601562 1251.875 528.257812 Z M 1251.875 528.257812 " fill-opacity="1" fill-rule="nonzero"/><path fill="#231f20" d="M 1285.886719 528.257812 L 1303.582031 528.257812 C 1303.617188 539.992188 1305.855469 551.109375 1310.160156 561.535156 C 1314.460938 571.964844 1320.933594 581.667969 1329.09375 589.824219 C 1337.253906 597.945312 1346.960938 604.449219 1357.394531 608.75 C 1367.859375 613.089844 1378.945312 615.289062 1390.683594 615.324219 L 1390.683594 633.015625 C 1376.671875 632.980469 1363.210938 630.296875 1350.609375 625.0625 C 1338.046875 619.867188 1326.339844 612.089844 1316.5625 602.316406 C 1306.785156 592.542969 1299.003906 580.875 1293.804688 568.28125 C 1288.609375 555.71875 1285.921875 542.265625 1285.886719 528.257812 Z M 1285.886719 528.257812 " fill-opacity="1" fill-rule="nonzero"/><path fill="#231f20" d="M 1217.859375 528.257812 L 1235.554688 528.257812 C 1235.589844 548.734375 1239.550781 568.867188 1247.328125 587.585938 C 1255.074219 606.308594 1266.609375 623.515625 1281 637.902344 C 1295.390625 652.285156 1312.636719 663.8125 1331.332031 671.558594 C 1350.058594 679.335938 1370.234375 683.292969 1390.683594 683.328125 L 1390.683594 701.015625 C 1367.929688 700.980469 1345.414062 696.542969 1324.550781 687.902344 C 1303.6875 679.265625 1284.511719 666.429688 1268.46875 650.425781 C 1252.460938 634.390625 1239.617188 615.222656 1230.976562 594.367188 C 1222.300781 573.476562 1217.859375 550.96875 1217.859375 528.257812 Z M 1217.859375 528.257812 " fill-opacity="1" fill-rule="nonzero"/><path fill="#231f20" d="M 1183.847656 528.257812 L 1201.542969 528.257812 C 1201.542969 553.070312 1206.429688 577.777344 1215.898438 600.628906 C 1225.363281 623.480469 1239.410156 644.4375 1256.933594 661.992188 C 1274.457031 679.507812 1295.457031 693.546875 1318.320312 703.011719 C 1341.179688 712.511719 1365.863281 717.363281 1390.71875 717.363281 L 1390.71875 735.050781 C 1363.625 735.050781 1336.566406 729.71875 1311.535156 719.324219 C 1286.507812 708.964844 1263.578125 693.617188 1244.4375 674.484375 C 1225.296875 655.347656 1209.941406 632.394531 1199.578125 607.410156 C 1189.183594 582.390625 1183.847656 555.339844 1183.847656 528.257812 Z M 1183.847656 528.257812 " fill-opacity="1" fill-rule="nonzero"/><path fill="#231f20" d="M 1149.832031 528.257812 L 1167.527344 528.257812 C 1167.527344 557.441406 1173.277344 586.65625 1184.5 613.640625 C 1195.6875 640.621094 1212.25 665.363281 1232.90625 686.011719 C 1253.5625 706.660156 1278.28125 723.214844 1305.304688 734.398438 C 1332.296875 745.617188 1361.523438 751.363281 1390.71875 751.363281 L 1390.71875 769.050781 C 1359.253906 769.050781 1327.648438 762.859375 1298.523438 750.746094 C 1269.363281 738.664062 1242.683594 720.804688 1220.40625 698.539062 C 1198.132812 676.273438 1180.230469 649.601562 1168.179688 620.453125 C 1156.027344 591.269531 1149.832031 559.710938 1149.832031 528.257812 Z M 1149.832031 528.257812 " fill-opacity="1" fill-rule="nonzero"/><path fill="#231f20" d="M 1115.816406 528.257812 L 1133.511719 528.257812 C 1133.511719 561.8125 1140.125 595.570312 1153.066406 626.683594 C 1165.976562 657.828125 1185.050781 686.285156 1208.839844 710.066406 C 1232.628906 733.847656 1261.101562 752.914062 1292.257812 765.816406 C 1323.378906 778.757812 1357.152344 785.363281 1390.71875 785.363281 L 1390.71875 803.054688 C 1354.878906 803.054688 1318.765625 796 1285.476562 782.164062 C 1252.183594 768.363281 1221.714844 747.992188 1196.308594 722.59375 C 1170.902344 697.195312 1150.484375 666.773438 1136.714844 633.460938 C 1122.875 600.183594 1115.785156 564.046875 1115.816406 528.257812 Z M 1115.816406 528.257812 " fill-opacity="1" fill-rule="nonzero"/><path fill="#231f20" d="M 1081.804688 528.257812 L 1099.5 528.257812 C 1099.5 566.183594 1107.003906 604.449219 1121.671875 639.691406 C 1136.269531 674.964844 1157.886719 707.210938 1184.808594 734.089844 C 1211.730469 761 1243.957031 782.613281 1279.242188 797.203125 C 1314.496094 811.863281 1352.78125 819.367188 1390.71875 819.367188 L 1390.71875 837.054688 C 1350.542969 837.054688 1309.882812 829.105469 1272.460938 813.550781 C 1235.003906 798.0625 1200.820312 775.144531 1172.277344 746.613281 C 1143.738281 718.085938 1120.808594 683.914062 1105.316406 646.46875 C 1089.722656 609.0625 1081.769531 568.417969 1081.804688 528.257812 Z M 1081.804688 528.257812 " fill-opacity="1" fill-rule="nonzero"/><path fill="#231f20" d="M 1047.789062 528.257812 L 1065.484375 528.257812 C 1065.449219 570.519531 1073.851562 613.328125 1090.238281 652.699219 C 1106.558594 692.136719 1130.691406 728.101562 1160.746094 758.109375 C 1190.765625 788.152344 1226.777344 812.277344 1266.195312 828.589844 C 1305.582031 844.96875 1348.40625 853.332031 1390.683594 853.332031 L 1390.683594 871.023438 C 1346.136719 871.054688 1300.933594 862.210938 1259.414062 844.9375 C 1217.824219 827.730469 1179.886719 802.261719 1148.214844 770.636719 C 1116.542969 738.976562 1091.097656 701.050781 1073.886719 659.476562 C 1056.601562 617.941406 1047.753906 572.789062 1047.789062 528.257812 Z M 1047.789062 528.257812 " fill-opacity="1" fill-rule="nonzero"/><path fill="#231f20" d="M 1013.742188 528.257812 L 1031.4375 528.257812 C 1031.402344 574.886719 1040.664062 622.242188 1058.773438 665.742188 C 1076.8125 709.308594 1103.492188 749.023438 1136.644531 782.199219 C 1169.800781 815.339844 1209.5625 842.011719 1253.148438 860.042969 C 1296.664062 878.144531 1344.035156 887.402344 1390.683594 887.367188 L 1390.683594 905.058594 C 1341.761719 905.089844 1292.050781 895.386719 1246.367188 876.390625 C 1200.613281 857.460938 1158.921875 829.484375 1124.148438 794.726562 C 1089.34375 759.96875 1061.390625 718.257812 1042.453125 672.554688 C 1023.449219 626.855469 1013.742188 577.160156 1013.742188 528.257812 Z M 1013.742188 528.257812 " fill-opacity="1" fill-rule="nonzero"/><path fill="#231f20" d="M 997.457031 1408.328125 L 979.761719 1408.328125 C 979.726562 1355.054688 990.332031 1300.851562 1011.054688 1251.054688 C 1031.710938 1201.191406 1062.214844 1155.761719 1100.121094 1117.875 C 1138.023438 1079.949219 1183.46875 1049.492188 1233.351562 1028.84375 C 1283.167969 1008.128906 1337.425781 997.527344 1390.683594 997.5625 L 1390.683594 1015.25 C 1339.664062 1015.214844 1287.78125 1025.335938 1240.132812 1045.191406 C 1192.417969 1064.945312 1148.902344 1094.128906 1112.617188 1130.398438 C 1076.328125 1166.671875 1047.136719 1210.136719 1027.375 1257.871094 C 1007.542969 1305.464844 997.421875 1357.328125 997.457031 1408.328125 Z M 997.457031 1408.328125 " fill-opacity="1" fill-rule="nonzero"/><path fill="#231f20" d="M 1371.613281 1408.328125 L 1353.917969 1408.328125 C 1353.984375 1403.027344 1354.878906 1398.65625 1356.671875 1394.320312 C 1358.425781 1390.019531 1361.179688 1385.855469 1364.691406 1382.34375 C 1368.203125 1378.835938 1372.402344 1376.082031 1376.671875 1374.328125 C 1381.011719 1372.570312 1385.417969 1371.644531 1390.683594 1371.574219 L 1390.683594 1389.261719 C 1387.65625 1389.332031 1385.625 1389.777344 1383.453125 1390.675781 C 1381.320312 1391.535156 1379.117188 1392.980469 1377.1875 1394.871094 C 1375.296875 1396.765625 1373.882812 1399.003906 1372.988281 1401.136719 C 1372.164062 1403.269531 1371.679688 1405.300781 1371.613281 1408.328125 Z M 1371.613281 1408.328125 " fill-opacity="1" fill-rule="nonzero"/><path fill="#231f20" d="M 1031.472656 1408.328125 L 1013.777344 1408.328125 C 1013.742188 1359.425781 1023.449219 1309.730469 1042.453125 1264.0625 C 1061.386719 1218.328125 1089.378906 1176.652344 1124.148438 1141.894531 C 1158.921875 1107.101562 1200.644531 1079.15625 1246.367188 1060.230469 C 1292.050781 1041.234375 1341.761719 1031.527344 1390.683594 1031.5625 L 1390.683594 1049.25 C 1344.035156 1049.21875 1296.664062 1058.476562 1253.148438 1076.578125 C 1209.5625 1094.609375 1169.832031 1121.28125 1136.644531 1154.421875 C 1103.492188 1187.5625 1076.8125 1227.308594 1058.773438 1270.878906 C 1040.699219 1314.34375 1031.4375 1361.695312 1031.472656 1408.328125 Z M 1031.472656 1408.328125 " fill-opacity="1" fill-rule="nonzero"/><path fill="#231f20" d="M 1099.5 1408.328125 L 1081.804688 1408.328125 C 1081.804688 1368.167969 1089.757812 1327.523438 1105.316406 1290.117188 C 1120.808594 1252.671875 1143.738281 1218.5 1172.277344 1189.972656 C 1200.820312 1161.441406 1235.003906 1138.523438 1272.460938 1123.035156 C 1309.882812 1107.480469 1350.507812 1099.53125 1390.71875 1099.53125 L 1390.71875 1117.21875 C 1352.78125 1117.21875 1314.496094 1124.722656 1279.242188 1139.382812 C 1243.957031 1153.972656 1211.699219 1175.585938 1184.808594 1202.496094 C 1157.886719 1229.410156 1136.269531 1261.621094 1121.671875 1296.894531 C 1106.96875 1332.136719 1099.5 1370.402344 1099.5 1408.328125 Z M 1099.5 1408.328125 " fill-opacity="1" fill-rule="nonzero"/><path fill="#231f20" d="M 1065.484375 1408.328125 L 1047.789062 1408.328125 C 1047.753906 1363.796875 1056.601562 1318.609375 1073.886719 1277.105469 C 1091.097656 1235.535156 1116.574219 1197.609375 1148.214844 1165.949219 C 1179.886719 1134.289062 1217.824219 1108.855469 1259.414062 1091.648438 C 1300.96875 1074.375 1346.136719 1065.53125 1390.683594 1065.5625 L 1390.683594 1083.253906 C 1348.40625 1083.21875 1305.582031 1091.617188 1266.195312 1107.996094 C 1226.742188 1124.308594 1190.765625 1148.433594 1160.746094 1178.476562 C 1130.691406 1208.484375 1106.558594 1244.484375 1090.238281 1283.886719 C 1073.851562 1323.257812 1065.449219 1366.066406 1065.484375 1408.328125 Z M 1065.484375 1408.328125 " fill-opacity="1" fill-rule="nonzero"/><path fill="#231f20" d="M 1133.511719 1408.328125 L 1115.816406 1408.328125 C 1115.816406 1372.503906 1122.875 1336.402344 1136.714844 1303.125 C 1150.519531 1269.847656 1170.902344 1239.390625 1196.308594 1213.992188 C 1221.714844 1188.59375 1252.148438 1168.1875 1285.476562 1154.421875 C 1318.765625 1140.585938 1354.878906 1133.496094 1390.71875 1133.53125 L 1390.71875 1151.222656 C 1357.152344 1151.222656 1323.378906 1157.828125 1292.257812 1170.769531 C 1261.101562 1183.671875 1232.628906 1202.738281 1208.839844 1226.519531 C 1185.050781 1250.300781 1165.976562 1278.757812 1153.066406 1309.902344 C 1140.125 1341.015625 1133.511719 1374.773438 1133.511719 1408.328125 Z M 1133.511719 1408.328125 " fill-opacity="1" fill-rule="nonzero"/><path fill="#231f20" d="M 1167.527344 1408.328125 L 1149.832031 1408.328125 C 1149.832031 1376.875 1156.027344 1345.28125 1168.148438 1316.167969 C 1180.230469 1287.019531 1198.097656 1260.347656 1220.375 1238.082031 C 1242.648438 1215.816406 1269.328125 1197.921875 1298.488281 1185.875 C 1327.613281 1173.761719 1359.21875 1167.566406 1390.683594 1167.566406 L 1390.683594 1185.257812 C 1361.488281 1185.257812 1332.261719 1191.003906 1305.269531 1202.222656 C 1278.28125 1213.40625 1253.527344 1229.960938 1232.871094 1250.609375 C 1212.214844 1271.257812 1195.65625 1295.964844 1184.464844 1322.980469 C 1173.277344 1349.925781 1167.527344 1379.144531 1167.527344 1408.328125 Z M 1167.527344 1408.328125 " fill-opacity="1" fill-rule="nonzero"/><path fill="#231f20" d="M 1201.542969 1408.328125 L 1183.847656 1408.328125 C 1183.847656 1381.246094 1189.183594 1354.195312 1199.578125 1329.175781 C 1209.941406 1304.15625 1225.296875 1281.238281 1244.4375 1262.101562 C 1263.578125 1242.96875 1286.542969 1227.585938 1311.535156 1217.261719 C 1336.53125 1206.867188 1363.589844 1201.570312 1390.71875 1201.535156 L 1390.71875 1219.222656 C 1365.898438 1219.222656 1341.179688 1224.109375 1318.320312 1233.574219 C 1295.457031 1243.039062 1274.492188 1257.078125 1256.933594 1274.59375 C 1239.410156 1292.113281 1225.363281 1313.105469 1215.898438 1335.957031 C 1206.429688 1358.804688 1201.574219 1383.480469 1201.542969 1408.328125 Z M 1201.542969 1408.328125 " fill-opacity="1" fill-rule="nonzero"/><path fill="#231f20" d="M 1235.554688 1408.328125 L 1217.859375 1408.328125 C 1217.894531 1385.582031 1222.335938 1363.074219 1230.976562 1342.21875 C 1239.617188 1321.363281 1252.460938 1302.195312 1268.46875 1286.160156 C 1284.511719 1270.15625 1303.6875 1257.320312 1324.550781 1248.679688 C 1345.414062 1240.007812 1367.960938 1235.570312 1390.683594 1235.570312 L 1390.683594 1253.257812 C 1370.199219 1253.292969 1350.058594 1257.25 1331.332031 1265.027344 C 1312.605469 1272.769531 1295.390625 1284.300781 1281 1298.683594 C 1266.609375 1313.070312 1255.074219 1330.3125 1247.328125 1349 C 1239.582031 1367.683594 1235.589844 1387.851562 1235.554688 1408.328125 Z M 1235.554688 1408.328125 " fill-opacity="1" fill-rule="nonzero"/><path fill="#231f20" d="M 1269.570312 1408.328125 L 1251.875 1408.328125 C 1251.910156 1389.949219 1255.453125 1371.988281 1262.410156 1355.226562 C 1269.328125 1338.503906 1279.65625 1323.085938 1292.53125 1310.179688 C 1305.441406 1297.273438 1320.867188 1286.984375 1337.597656 1280.066406 C 1354.328125 1273.117188 1372.335938 1269.570312 1390.71875 1269.535156 L 1390.71875 1287.226562 C 1374.605469 1287.257812 1358.976562 1290.355469 1344.378906 1296.414062 C 1329.816406 1302.4375 1316.320312 1311.417969 1305.0625 1322.707031 C 1293.804688 1333.992188 1284.785156 1347.449219 1278.761719 1362.007812 C 1272.703125 1376.597656 1269.605469 1392.222656 1269.570312 1408.328125 Z M 1269.570312 1408.328125 " fill-opacity="1" fill-rule="nonzero"/><path fill="#231f20" d="M 1303.582031 1408.328125 L 1285.886719 1408.328125 C 1285.921875 1394.320312 1288.609375 1380.867188 1293.839844 1368.269531 C 1299.039062 1355.710938 1306.820312 1344.007812 1316.597656 1334.234375 C 1326.375 1324.460938 1338.046875 1316.683594 1350.644531 1311.488281 C 1363.246094 1306.257812 1376.707031 1303.605469 1390.71875 1303.539062 L 1390.71875 1321.226562 C 1378.980469 1321.261719 1367.859375 1323.496094 1357.425781 1327.800781 C 1346.996094 1332.101562 1337.289062 1338.570312 1329.128906 1346.726562 C 1321.003906 1354.882812 1314.496094 1364.589844 1310.195312 1375.015625 C 1305.855469 1385.476562 1303.617188 1396.59375 1303.582031 1408.328125 Z M 1303.582031 1408.328125 " fill-opacity="1" fill-rule="nonzero"/><path fill="#231f20" d="M 1337.597656 1408.328125 L 1319.902344 1408.328125 C 1319.9375 1398.691406 1321.761719 1389.746094 1325.238281 1381.277344 C 1328.714844 1372.847656 1333.984375 1364.933594 1340.628906 1358.289062 C 1347.273438 1351.648438 1355.191406 1346.382812 1363.625 1342.90625 C 1372.09375 1339.398438 1381.011719 1337.605469 1390.683594 1337.574219 L 1390.683594 1355.261719 C 1383.316406 1355.332031 1376.742188 1356.671875 1370.40625 1359.253906 C 1364.140625 1361.835938 1358.152344 1365.792969 1353.125 1370.816406 C 1348.097656 1375.839844 1344.171875 1381.792969 1341.554688 1388.09375 C 1339.007812 1394.390625 1337.667969 1400.929688 1337.597656 1408.328125 Z M 1337.597656 1408.328125 " fill-opacity="1" fill-rule="nonzero"/></svg>