<svg xmlns="http://www.w3.org/2000/svg" xmlns:xlink="http://www.w3.org/1999/xlink" width="2000" zoomAndPan="magnify" viewBox="0 0 1500 1499.999933" height="2000" preserveAspectRatio="xMidYMid meet" version="1.0"><path fill="#d9d9d9" d="M 1156.320312 575.863281 C 1156.046875 575.367188 1155.746094 574.886719 1155.425781 574.417969 C 1155.105469 573.949219 1154.761719 573.5 1154.394531 573.066406 C 1154.027344 572.632812 1153.644531 572.21875 1153.238281 571.820312 C 1152.832031 571.425781 1152.40625 571.046875 1151.964844 570.691406 C 1151.523438 570.335938 1151.0625 570.003906 1150.589844 569.695312 C 1150.113281 569.382812 1149.625 569.097656 1149.121094 568.832031 C 1148.621094 568.570312 1148.105469 568.332031 1147.578125 568.117188 C 1147.054688 567.902344 1146.519531 567.714844 1145.972656 567.554688 C 1145.429688 567.394531 1144.878906 567.257812 1144.324219 567.152344 C 1143.765625 567.042969 1143.203125 566.960938 1142.640625 566.910156 C 1142.074219 566.855469 1141.507812 566.828125 1140.941406 566.832031 C 1140.375 566.832031 1139.808594 566.863281 1139.242188 566.917969 C 1138.679688 566.976562 1138.117188 567.058594 1137.5625 567.167969 C 1137.003906 567.28125 1136.453125 567.417969 1135.910156 567.582031 C 1135.367188 567.746094 1134.832031 567.9375 1134.308594 568.152344 C 1133.785156 568.371094 1133.273438 568.609375 1132.769531 568.875 C 1132.269531 569.144531 1131.78125 569.433594 1131.308594 569.746094 C 1130.835938 570.058594 1130.378906 570.394531 1129.9375 570.753906 C 1129.496094 571.109375 1129.074219 571.488281 1128.671875 571.886719 C 1128.269531 572.285156 1127.882812 572.703125 1127.519531 573.140625 C 1127.15625 573.574219 1126.816406 574.027344 1126.496094 574.496094 C 1126.175781 574.964844 1125.882812 575.449219 1125.609375 575.949219 C 1125.335938 576.445312 1125.089844 576.953125 1124.867188 577.476562 C 1124.644531 578 1124.445312 578.53125 1124.273438 579.070312 C 1124.105469 579.613281 1123.960938 580.160156 1123.839844 580.714844 C 1123.722656 581.269531 1123.632812 581.828125 1123.570312 582.394531 C 1123.503906 582.957031 1123.46875 583.523438 1123.460938 584.089844 C 1123.453125 584.660156 1123.46875 585.226562 1123.515625 585.789062 C 1123.5625 586.355469 1123.636719 586.917969 1123.738281 587.476562 C 1123.835938 588.035156 1123.964844 588.585938 1124.121094 589.132812 C 1124.273438 589.679688 1124.453125 590.214844 1124.660156 590.746094 C 1124.867188 591.273438 1125.101562 591.792969 1125.355469 592.296875 C 1286.578125 888.671875 1060.054688 1264.597656 722.085938 1260.308594 C 714.632812 1260.300781 707.179688 1260.109375 699.734375 1259.734375 C 692.285156 1259.359375 684.851562 1258.804688 677.433594 1258.066406 C 670.015625 1257.328125 662.617188 1256.410156 655.242188 1255.308594 C 647.871094 1254.207031 640.527344 1252.925781 633.214844 1251.464844 C 625.902344 1250.003906 618.632812 1248.367188 611.402344 1246.550781 C 604.171875 1244.730469 596.988281 1242.738281 589.855469 1240.570312 C 582.722656 1238.398438 575.644531 1236.058594 568.625 1233.539062 C 561.609375 1231.023438 554.65625 1228.335938 547.769531 1225.480469 C 540.882812 1222.625 534.070312 1219.597656 527.332031 1216.40625 C 520.59375 1213.21875 513.9375 1209.863281 507.363281 1206.34375 C 500.789062 1202.828125 494.304688 1199.152344 487.910156 1195.316406 C 481.515625 1191.480469 475.21875 1187.492188 469.023438 1183.347656 C 462.824219 1179.203125 456.730469 1174.910156 450.742188 1170.464844 C 444.753906 1166.023438 438.878906 1161.4375 433.117188 1156.707031 C 427.355469 1151.976562 421.710938 1147.105469 416.1875 1142.097656 C 410.664062 1137.089844 405.265625 1131.949219 399.992188 1126.679688 C 394.71875 1121.40625 389.582031 1116.007812 384.574219 1110.484375 C 379.566406 1104.960938 374.695312 1099.316406 369.964844 1093.554688 C 365.234375 1087.789062 360.648438 1081.914062 356.207031 1075.925781 C 351.761719 1069.941406 347.46875 1063.847656 343.324219 1057.648438 C 339.179688 1051.449219 335.191406 1045.15625 331.355469 1038.761719 C 327.519531 1032.367188 323.84375 1025.882812 320.328125 1019.308594 C 316.808594 1012.734375 313.453125 1006.078125 310.261719 999.339844 C 307.074219 992.601562 304.046875 985.789062 301.191406 978.902344 C 298.335938 972.015625 295.648438 965.0625 293.132812 958.042969 C 290.613281 951.023438 288.273438 943.949219 286.101562 936.816406 C 283.933594 929.683594 281.941406 922.5 280.121094 915.269531 C 278.304688 908.039062 276.667969 900.765625 275.207031 893.457031 C 273.746094 886.144531 272.464844 878.800781 271.363281 871.425781 C 270.261719 864.050781 269.34375 856.65625 268.605469 849.238281 C 267.867188 841.816406 267.3125 834.382812 266.9375 826.9375 C 266.5625 819.492188 266.371094 812.039062 266.363281 804.582031 C 262.144531 466.613281 637.960938 240.082031 934.382812 401.324219 C 934.890625 401.59375 935.410156 401.839844 935.941406 402.054688 C 936.472656 402.273438 937.011719 402.464844 937.5625 402.632812 C 938.113281 402.796875 938.667969 402.933594 939.230469 403.042969 C 939.796875 403.152344 940.363281 403.234375 940.933594 403.289062 C 941.507812 403.34375 942.078125 403.371094 942.652344 403.371094 C 943.226562 403.367188 943.800781 403.339844 944.371094 403.28125 C 944.941406 403.222656 945.507812 403.136719 946.070312 403.023438 C 946.632812 402.910156 947.191406 402.765625 947.738281 402.597656 C 948.289062 402.429688 948.828125 402.234375 949.355469 402.015625 C 949.886719 401.792969 950.40625 401.546875 950.910156 401.273438 C 951.414062 401 951.90625 400.707031 952.382812 400.382812 C 952.859375 400.0625 953.320312 399.722656 953.761719 399.355469 C 954.203125 398.988281 954.628906 398.601562 955.03125 398.195312 C 955.4375 397.789062 955.820312 397.363281 956.183594 396.917969 C 956.546875 396.472656 956.886719 396.011719 957.203125 395.53125 C 957.519531 395.054688 957.816406 394.5625 958.082031 394.054688 C 958.351562 393.546875 958.597656 393.027344 958.8125 392.496094 C 959.03125 391.964844 959.222656 391.425781 959.386719 390.875 C 959.554688 390.324219 959.691406 389.769531 959.800781 389.207031 C 959.910156 388.640625 959.992188 388.074219 960.046875 387.503906 C 960.101562 386.929688 960.128906 386.359375 960.128906 385.785156 C 960.125 385.210938 960.09375 384.636719 960.039062 384.066406 C 959.980469 383.496094 959.894531 382.929688 959.78125 382.367188 C 959.667969 381.804688 959.523438 381.246094 959.355469 380.699219 C 959.1875 380.148438 958.992188 379.609375 958.773438 379.082031 C 958.550781 378.550781 958.304688 378.03125 958.03125 377.527344 C 957.757812 377.023438 957.460938 376.53125 957.140625 376.054688 C 956.820312 375.578125 956.480469 375.117188 956.113281 374.675781 C 955.746094 374.234375 955.359375 373.808594 954.953125 373.40625 C 954.546875 373 954.121094 372.617188 953.675781 372.253906 C 953.230469 371.890625 952.769531 371.550781 952.289062 371.234375 C 951.8125 370.917969 951.320312 370.621094 950.8125 370.355469 C 942.609375 366.03125 934.289062 361.949219 925.855469 358.097656 C 917.417969 354.25 908.882812 350.640625 900.242188 347.273438 C 891.601562 343.910156 882.875 340.789062 874.058594 337.917969 C 865.242188 335.046875 856.351562 332.429688 847.386719 330.0625 C 838.421875 327.695312 829.394531 325.585938 820.3125 323.726562 C 811.226562 321.871094 802.097656 320.277344 792.921875 318.9375 C 783.746094 317.597656 774.539062 316.523438 765.304688 315.707031 C 756.070312 314.890625 746.816406 314.335938 737.550781 314.042969 C 728.28125 313.75 719.011719 313.722656 709.742188 313.953125 C 700.476562 314.1875 691.21875 314.683594 681.976562 315.441406 C 672.738281 316.199219 663.523438 317.21875 654.339844 318.5 C 645.15625 319.777344 636.019531 321.316406 626.921875 323.117188 C 617.824219 324.914062 608.789062 326.96875 599.808594 329.277344 C 590.828125 331.585938 581.921875 334.152344 573.085938 336.964844 C 564.253906 339.78125 555.503906 342.84375 546.84375 346.15625 C 538.183594 349.464844 529.621094 353.019531 521.164062 356.816406 C 512.703125 360.609375 504.359375 364.644531 496.128906 368.914062 C 487.898438 373.179688 479.792969 377.679688 471.816406 382.410156 C 463.839844 387.136719 456.003906 392.085938 448.308594 397.257812 C 440.613281 402.433594 433.070312 407.816406 425.683594 413.417969 C 418.292969 419.019531 411.066406 424.824219 404.003906 430.832031 C 396.945312 436.839844 390.058594 443.046875 383.347656 449.445312 C 376.640625 455.84375 370.117188 462.429688 363.78125 469.199219 C 357.445312 475.96875 351.304688 482.914062 345.363281 490.03125 C 339.417969 497.148438 333.683594 504.425781 328.152344 511.871094 C 322.621094 519.3125 317.308594 526.90625 312.207031 534.648438 C 307.109375 542.390625 302.230469 550.273438 297.578125 558.292969 C 292.925781 566.316406 288.503906 574.460938 284.3125 582.730469 C 280.121094 591 276.167969 599.382812 272.449219 607.878906 C 268.734375 616.375 265.261719 624.96875 262.03125 633.660156 C 258.804688 642.351562 255.824219 651.125 253.089844 659.988281 C 250.359375 668.847656 247.878906 677.777344 245.65625 686.78125 C 243.429688 695.78125 241.460938 704.835938 239.75 713.949219 C 238.035156 723.0625 236.582031 732.21875 235.390625 741.410156 C 234.195312 750.605469 233.265625 759.828125 232.59375 769.074219 C 231.921875 778.324219 231.515625 787.582031 231.367188 796.855469 C 231.222656 806.125 231.339844 815.394531 231.71875 824.65625 C 232.097656 833.921875 232.738281 843.167969 233.640625 852.394531 C 234.542969 861.625 235.707031 870.820312 237.132812 879.980469 C 238.558594 889.144531 240.238281 898.257812 242.179688 907.324219 C 244.121094 916.390625 246.316406 925.394531 248.769531 934.335938 C 251.222656 943.28125 253.921875 952.144531 256.878906 960.933594 C 259.832031 969.722656 263.03125 978.421875 266.480469 987.03125 C 269.925781 995.636719 273.613281 1004.140625 277.542969 1012.539062 C 281.472656 1020.9375 285.632812 1029.21875 290.03125 1037.382812 C 294.429688 1045.542969 299.054688 1053.574219 303.910156 1061.476562 C 308.761719 1069.375 313.835938 1077.132812 319.128906 1084.746094 C 324.421875 1092.359375 329.925781 1099.816406 335.640625 1107.117188 C 341.359375 1114.417969 347.277344 1121.550781 353.394531 1128.515625 C 359.515625 1135.480469 365.828125 1142.269531 372.332031 1148.875 C 378.835938 1155.484375 385.523438 1161.902344 392.390625 1168.132812 C 399.261719 1174.359375 406.300781 1180.390625 413.507812 1186.21875 C 420.71875 1192.050781 428.089844 1197.671875 435.617188 1203.082031 C 443.144531 1208.496094 450.820312 1213.691406 458.644531 1218.667969 C 466.46875 1223.644531 474.425781 1228.394531 482.519531 1232.921875 C 490.609375 1237.449219 498.824219 1241.742188 507.160156 1245.800781 C 515.496094 1249.863281 523.941406 1253.683594 532.492188 1257.265625 C 541.046875 1260.847656 549.691406 1264.183594 558.433594 1267.277344 C 567.175781 1270.367188 575.996094 1273.210938 584.898438 1275.800781 C 593.800781 1278.394531 602.769531 1280.730469 611.804688 1282.816406 C 620.839844 1284.898438 629.929688 1286.726562 639.066406 1288.292969 C 648.203125 1289.863281 657.378906 1291.171875 666.59375 1292.21875 C 675.804688 1293.269531 685.039062 1294.054688 694.296875 1294.582031 C 703.554688 1295.105469 712.820312 1295.367188 722.09375 1295.367188 C 1086.117188 1299.90625 1330.054688 895.121094 1156.320312 575.863281 Z M 1156.320312 575.863281 " fill-opacity="1" fill-rule="nonzero"/><path fill="#d9d9d9" d="M 722.09375 664.359375 C 737.375 664.351562 752.242188 666.835938 766.691406 671.8125 C 767.234375 672 767.785156 672.160156 768.34375 672.292969 C 768.902344 672.425781 769.464844 672.53125 770.035156 672.609375 C 770.601562 672.6875 771.171875 672.734375 771.746094 672.757812 C 772.320312 672.777344 772.894531 672.773438 773.464844 672.738281 C 774.039062 672.703125 774.609375 672.640625 775.175781 672.546875 C 775.742188 672.457031 776.304688 672.339844 776.859375 672.191406 C 777.414062 672.046875 777.960938 671.875 778.5 671.671875 C 779.035156 671.472656 779.5625 671.25 780.078125 670.996094 C 780.59375 670.746094 781.097656 670.46875 781.585938 670.167969 C 782.074219 669.867188 782.546875 669.542969 783.003906 669.195312 C 783.460938 668.847656 783.902344 668.480469 784.320312 668.089844 C 784.742188 667.699219 785.140625 667.289062 785.523438 666.859375 C 785.902344 666.429688 786.261719 665.980469 786.597656 665.515625 C 786.933594 665.050781 787.246094 664.570312 787.535156 664.074219 C 787.824219 663.582031 788.089844 663.070312 788.328125 662.550781 C 788.570312 662.027344 788.78125 661.496094 788.96875 660.953125 C 796.667969 629.945312 742.078125 631.183594 722.09375 629.300781 C 489.589844 638.910156 489.597656 970.265625 722.09375 979.863281 C 724.960938 979.859375 727.828125 979.789062 730.691406 979.644531 C 733.554688 979.5 736.414062 979.285156 739.269531 979.003906 C 742.121094 978.71875 744.964844 978.363281 747.804688 977.941406 C 750.640625 977.519531 753.464844 977.023438 756.277344 976.464844 C 759.085938 975.902344 761.882812 975.269531 764.664062 974.574219 C 767.445312 973.875 770.210938 973.105469 772.953125 972.273438 C 775.695312 971.4375 778.417969 970.535156 781.117188 969.570312 C 783.816406 968.601562 786.492188 967.566406 789.140625 966.46875 C 791.789062 965.371094 794.410156 964.207031 797 962.980469 C 799.59375 961.753906 802.152344 960.460938 804.679688 959.109375 C 807.210938 957.757812 809.703125 956.34375 812.164062 954.867188 C 814.621094 953.390625 817.042969 951.855469 819.425781 950.261719 C 821.8125 948.667969 824.15625 947.019531 826.457031 945.308594 C 828.761719 943.601562 831.019531 941.835938 833.238281 940.015625 C 835.453125 938.199219 837.625 936.324219 839.75 934.398438 C 841.875 932.472656 843.949219 930.496094 845.976562 928.46875 C 848.003906 926.441406 849.980469 924.363281 851.90625 922.238281 C 853.835938 920.113281 855.707031 917.945312 857.527344 915.726562 C 859.347656 913.511719 861.109375 911.25 862.820312 908.949219 C 864.527344 906.644531 866.179688 904.300781 867.773438 901.917969 C 869.367188 899.535156 870.902344 897.113281 872.375 894.652344 C 873.851562 892.195312 875.265625 889.699219 876.617188 887.171875 C 877.972656 884.644531 879.261719 882.082031 880.488281 879.492188 C 881.714844 876.898438 882.878906 874.277344 883.976562 871.628906 C 885.078125 868.980469 886.109375 866.308594 887.078125 863.609375 C 888.046875 860.90625 888.945312 858.1875 889.78125 855.441406 C 890.617188 852.699219 891.382812 849.9375 892.082031 847.15625 C 892.78125 844.375 893.410156 841.578125 893.972656 838.765625 C 894.535156 835.953125 895.027344 833.128906 895.449219 830.292969 C 895.875 827.457031 896.226562 824.613281 896.511719 821.757812 C 896.792969 818.90625 897.007812 816.046875 897.152344 813.179688 C 897.296875 810.316406 897.371094 807.453125 897.371094 804.582031 C 895.582031 784.238281 896.765625 730.214844 865.894531 737.886719 C 865.351562 738.070312 864.820312 738.285156 864.296875 738.523438 C 863.777344 738.761719 863.269531 739.027344 862.773438 739.316406 C 862.277344 739.605469 861.792969 739.917969 861.328125 740.253906 C 860.863281 740.589844 860.417969 740.949219 859.988281 741.328125 C 859.554688 741.710938 859.144531 742.109375 858.753906 742.53125 C 858.363281 742.953125 857.996094 743.390625 857.648438 743.847656 C 857.300781 744.304688 856.976562 744.777344 856.675781 745.265625 C 856.375 745.753906 856.097656 746.257812 855.847656 746.773438 C 855.59375 747.289062 855.371094 747.816406 855.167969 748.355469 C 854.96875 748.894531 854.796875 749.441406 854.652344 749.996094 C 854.503906 750.550781 854.386719 751.109375 854.296875 751.679688 C 854.203125 752.246094 854.140625 752.816406 854.105469 753.386719 C 854.070312 753.960938 854.066406 754.535156 854.085938 755.109375 C 854.109375 755.683594 854.15625 756.253906 854.234375 756.820312 C 854.3125 757.390625 854.417969 757.953125 854.550781 758.511719 C 854.683594 759.070312 854.84375 759.621094 855.03125 760.164062 C 859.945312 774.5625 862.371094 789.371094 862.316406 804.582031 C 855.289062 990.320312 588.894531 990.328125 581.867188 804.582031 C 581.871094 802.289062 581.929688 799.996094 582.042969 797.703125 C 582.160156 795.414062 582.332031 793.125 582.558594 790.84375 C 582.785156 788.558594 583.066406 786.285156 583.40625 784.015625 C 583.746094 781.746094 584.140625 779.488281 584.589844 777.238281 C 585.039062 774.988281 585.542969 772.75 586.101562 770.523438 C 586.660156 768.300781 587.273438 766.089844 587.941406 763.894531 C 588.609375 761.699219 589.332031 759.523438 590.105469 757.363281 C 590.878906 755.203125 591.707031 753.066406 592.585938 750.945312 C 593.464844 748.828125 594.394531 746.730469 595.378906 744.65625 C 596.359375 742.585938 597.390625 740.535156 598.472656 738.511719 C 599.554688 736.492188 600.6875 734.496094 601.867188 732.527344 C 603.046875 730.5625 604.273438 728.625 605.550781 726.714844 C 606.824219 724.808594 608.144531 722.933594 609.511719 721.09375 C 610.878906 719.25 612.292969 717.441406 613.746094 715.667969 C 615.203125 713.894531 616.703125 712.160156 618.242188 710.460938 C 619.78125 708.761719 621.363281 707.097656 622.988281 705.476562 C 624.609375 703.855469 626.269531 702.273438 627.96875 700.730469 C 629.667969 699.191406 631.40625 697.691406 633.179688 696.238281 C 634.953125 694.78125 636.761719 693.371094 638.601562 692.003906 C 640.445312 690.636719 642.320312 689.316406 644.226562 688.039062 C 646.132812 686.765625 648.070312 685.539062 650.039062 684.359375 C 652.003906 683.175781 654 682.046875 656.023438 680.964844 C 658.046875 679.882812 660.09375 678.851562 662.167969 677.867188 C 664.242188 676.886719 666.335938 675.957031 668.457031 675.078125 C 670.574219 674.195312 672.714844 673.371094 674.875 672.597656 C 677.035156 671.820312 679.210938 671.101562 681.40625 670.433594 C 683.601562 669.765625 685.808594 669.152344 688.035156 668.59375 C 690.261719 668.035156 692.496094 667.53125 694.746094 667.082031 C 696.996094 666.632812 699.257812 666.238281 701.523438 665.898438 C 703.792969 665.558594 706.070312 665.277344 708.351562 665.050781 C 710.636719 664.820312 712.921875 664.652344 715.214844 664.535156 C 717.503906 664.421875 719.796875 664.363281 722.09375 664.359375 Z M 722.09375 664.359375 " fill-opacity="1" fill-rule="nonzero"/><path fill="#d9d9d9" d="M 889.917969 537.015625 C 890.195312 536.515625 890.449219 536 890.675781 535.472656 C 890.90625 534.945312 891.105469 534.410156 891.28125 533.863281 C 891.457031 533.316406 891.605469 532.761719 891.726562 532.199219 C 891.847656 531.640625 891.941406 531.074219 892.003906 530.503906 C 892.070312 529.933594 892.105469 529.359375 892.117188 528.785156 C 892.125 528.214844 892.105469 527.640625 892.058594 527.066406 C 892.011719 526.496094 891.933594 525.925781 891.832031 525.363281 C 891.726562 524.796875 891.597656 524.238281 891.4375 523.6875 C 891.28125 523.136719 891.097656 522.59375 890.882812 522.058594 C 890.671875 521.527344 890.4375 521.003906 890.171875 520.492188 C 889.910156 519.984375 889.625 519.488281 889.3125 519.003906 C 889 518.523438 888.664062 518.058594 888.308594 517.609375 C 887.949219 517.160156 887.574219 516.726562 887.171875 516.316406 C 886.773438 515.902344 886.355469 515.511719 885.914062 515.140625 C 885.476562 514.769531 885.023438 514.421875 884.550781 514.097656 C 884.078125 513.769531 883.589844 513.46875 883.089844 513.1875 C 870.816406 506.398438 858.167969 500.40625 845.140625 495.210938 C 832.113281 490.019531 818.808594 485.667969 805.230469 482.15625 C 791.65625 478.644531 777.910156 476 763.996094 474.226562 C 750.085938 472.453125 736.117188 471.558594 722.09375 471.550781 C 280.34375 489.808594 280.351562 1119.367188 722.09375 1137.617188 C 729.296875 1137.621094 736.496094 1137.390625 743.683594 1136.925781 C 750.871094 1136.464844 758.035156 1135.769531 765.179688 1134.839844 C 772.324219 1133.914062 779.429688 1132.753906 786.496094 1131.363281 C 793.566406 1129.972656 800.582031 1128.355469 807.542969 1126.511719 C 814.507812 1124.667969 821.402344 1122.597656 828.230469 1120.304688 C 835.058594 1118.011719 841.808594 1115.5 848.472656 1112.769531 C 855.140625 1110.039062 861.707031 1107.09375 868.183594 1103.9375 C 874.65625 1100.777344 881.023438 1097.414062 887.277344 1093.84375 C 893.535156 1090.273438 899.667969 1086.503906 905.679688 1082.535156 C 911.691406 1078.566406 917.566406 1074.40625 923.308594 1070.054688 C 929.050781 1065.703125 934.644531 1061.171875 940.089844 1056.457031 C 945.539062 1051.746094 950.824219 1046.859375 955.957031 1041.800781 C 961.085938 1036.746094 966.046875 1031.527344 970.835938 1026.148438 C 975.628906 1020.769531 980.238281 1015.238281 984.671875 1009.5625 C 989.101562 1003.882812 993.347656 998.066406 997.402344 992.113281 C 1001.453125 986.15625 1005.3125 980.078125 1008.972656 973.875 C 1012.632812 967.667969 1016.085938 961.351562 1019.335938 954.925781 C 1022.585938 948.496094 1025.621094 941.96875 1028.449219 935.339844 C 1031.273438 928.714844 1033.882812 922.003906 1036.269531 915.210938 C 1038.660156 908.414062 1040.828125 901.546875 1042.773438 894.613281 C 1044.714844 887.675781 1046.433594 880.683594 1047.925781 873.636719 C 1049.414062 866.589844 1050.675781 859.5 1051.703125 852.371094 C 1052.734375 845.242188 1053.53125 838.085938 1054.097656 830.90625 C 1054.664062 823.726562 1054.996094 816.53125 1055.09375 809.332031 C 1055.191406 802.128906 1055.054688 794.929688 1054.6875 787.734375 C 1054.320312 780.542969 1053.71875 773.367188 1052.882812 766.210938 C 1052.046875 759.058594 1050.980469 751.9375 1049.683594 744.851562 C 1048.386719 737.765625 1046.863281 730.730469 1045.109375 723.742188 C 1043.355469 716.757812 1041.375 709.832031 1039.171875 702.976562 C 1036.96875 696.117188 1034.546875 689.339844 1031.902344 682.636719 C 1029.257812 675.9375 1026.402344 669.328125 1023.328125 662.8125 C 1020.257812 656.296875 1016.976562 649.890625 1013.488281 643.585938 C 1013.210938 643.082031 1012.910156 642.59375 1012.582031 642.117188 C 1012.257812 641.644531 1011.910156 641.1875 1011.539062 640.746094 C 1011.167969 640.304688 1010.777344 639.882812 1010.367188 639.484375 C 1009.953125 639.082031 1009.523438 638.699219 1009.074219 638.339844 C 1008.625 637.980469 1008.160156 637.644531 1007.675781 637.332031 C 1007.195312 637.015625 1006.699219 636.726562 1006.1875 636.464844 C 1005.675781 636.199219 1005.152344 635.960938 1004.617188 635.746094 C 1004.085938 635.535156 1003.539062 635.347656 1002.988281 635.1875 C 1002.433594 635.027344 1001.875 634.894531 1001.308594 634.792969 C 1000.742188 634.6875 1000.175781 634.609375 999.601562 634.5625 C 999.027344 634.511719 998.453125 634.492188 997.878906 634.5 C 997.300781 634.507812 996.726562 634.546875 996.15625 634.609375 C 995.585938 634.675781 995.019531 634.769531 994.453125 634.886719 C 993.890625 635.007812 993.335938 635.15625 992.789062 635.332031 C 992.242188 635.507812 991.703125 635.710938 991.175781 635.9375 C 990.644531 636.164062 990.128906 636.417969 989.625 636.699219 C 989.125 636.976562 988.636719 637.28125 988.160156 637.609375 C 987.6875 637.933594 987.230469 638.285156 986.792969 638.65625 C 986.355469 639.027344 985.933594 639.421875 985.535156 639.835938 C 985.132812 640.246094 984.753906 640.679688 984.398438 641.128906 C 984.039062 641.582031 983.703125 642.046875 983.394531 642.53125 C 983.082031 643.015625 982.792969 643.515625 982.53125 644.027344 C 982.269531 644.539062 982.03125 645.0625 981.820312 645.597656 C 981.609375 646.132812 981.425781 646.675781 981.269531 647.230469 C 981.109375 647.785156 980.980469 648.34375 980.878906 648.910156 C 980.777344 649.476562 980.703125 650.046875 980.65625 650.621094 C 980.609375 651.191406 980.589844 651.765625 980.601562 652.34375 C 980.613281 652.917969 980.652344 653.492188 980.71875 654.0625 C 980.785156 654.632812 980.878906 655.203125 981.003906 655.765625 C 981.125 656.324219 981.273438 656.878906 981.453125 657.429688 C 981.628906 657.976562 981.832031 658.511719 982.0625 659.039062 C 982.292969 659.566406 982.550781 660.082031 982.832031 660.585938 C 1093.929688 853.265625 944.683594 1106.417969 722.085938 1102.554688 C 717.210938 1102.550781 712.339844 1102.425781 707.472656 1102.183594 C 702.601562 1101.9375 697.742188 1101.574219 692.890625 1101.089844 C 688.039062 1100.609375 683.203125 1100.007812 678.382812 1099.289062 C 673.5625 1098.570312 668.757812 1097.730469 663.980469 1096.777344 C 659.199219 1095.820312 654.445312 1094.75 649.714844 1093.5625 C 644.988281 1092.375 640.292969 1091.070312 635.628906 1089.652344 C 630.964844 1088.234375 626.335938 1086.703125 621.75 1085.054688 C 617.160156 1083.410156 612.613281 1081.652344 608.109375 1079.785156 C 603.605469 1077.917969 599.152344 1075.941406 594.746094 1073.855469 C 590.339844 1071.765625 585.988281 1069.574219 581.691406 1067.273438 C 577.390625 1064.972656 573.152344 1062.570312 568.972656 1060.0625 C 564.789062 1057.554688 560.675781 1054.945312 556.621094 1052.238281 C 552.570312 1049.527344 548.585938 1046.71875 544.667969 1043.816406 C 540.753906 1040.910156 536.914062 1037.910156 533.144531 1034.816406 C 529.378906 1031.726562 525.6875 1028.542969 522.074219 1025.265625 C 518.464844 1021.992188 514.933594 1018.632812 511.488281 1015.183594 C 508.039062 1011.738281 504.679688 1008.207031 501.40625 1004.597656 C 498.128906 1000.984375 494.945312 997.292969 491.855469 993.527344 C 488.761719 989.757812 485.761719 985.917969 482.855469 982 C 479.953125 978.085938 477.144531 974.101562 474.433594 970.050781 C 471.726562 965.996094 469.117188 961.878906 466.609375 957.699219 C 464.101562 953.519531 461.699219 949.28125 459.398438 944.980469 C 457.097656 940.683594 454.90625 936.332031 452.816406 931.925781 C 450.730469 927.519531 448.753906 923.0625 446.886719 918.5625 C 445.019531 914.058594 443.261719 909.511719 441.617188 904.921875 C 439.972656 900.335938 438.4375 895.707031 437.019531 891.042969 C 435.601562 886.378906 434.300781 881.683594 433.109375 876.957031 C 431.921875 872.226562 430.851562 867.472656 429.894531 862.691406 C 428.941406 857.910156 428.105469 853.109375 427.382812 848.289062 C 426.664062 843.46875 426.0625 838.628906 425.582031 833.78125 C 425.097656 828.929688 424.734375 824.070312 424.492188 819.199219 C 424.246094 814.332031 424.121094 809.457031 424.117188 804.582031 C 420.296875 581.996094 673.382812 432.730469 866.09375 543.851562 C 866.59375 544.128906 867.109375 544.382812 867.636719 544.613281 C 868.164062 544.839844 868.699219 545.042969 869.246094 545.21875 C 869.792969 545.394531 870.347656 545.542969 870.910156 545.664062 C 871.46875 545.785156 872.035156 545.878906 872.605469 545.945312 C 873.175781 546.011719 873.75 546.046875 874.324219 546.058594 C 874.898438 546.066406 875.472656 546.046875 876.042969 546 C 876.617188 545.953125 877.183594 545.878906 877.75 545.773438 C 878.316406 545.671875 878.875 545.539062 879.425781 545.382812 C 879.976562 545.222656 880.519531 545.039062 881.054688 544.824219 C 881.585938 544.613281 882.109375 544.375 882.621094 544.113281 C 883.128906 543.851562 883.625 543.5625 884.109375 543.25 C 884.589844 542.9375 885.054688 542.601562 885.503906 542.246094 C 885.953125 541.886719 886.386719 541.507812 886.796875 541.105469 C 887.207031 540.707031 887.597656 540.289062 887.96875 539.847656 C 888.339844 539.410156 888.6875 538.953125 889.011719 538.480469 C 889.339844 538.007812 889.640625 537.519531 889.917969 537.015625 Z M 889.917969 537.015625 " fill-opacity="1" fill-rule="nonzero"/><path fill="#d9d9d9" d="M 1180.625 469.972656 L 1053.019531 597.578125 C 1051.382812 599.191406 1049.503906 600.4375 1047.382812 601.316406 C 1045.257812 602.195312 1043.050781 602.644531 1040.75 602.660156 L 1039.347656 602.660156 L 955.390625 596.175781 L 734.539062 817.027344 C 734.125 817.421875 733.699219 817.792969 733.25 818.144531 C 732.804688 818.496094 732.339844 818.824219 731.863281 819.128906 C 731.382812 819.4375 730.890625 819.71875 730.386719 819.976562 C 729.878906 820.238281 729.363281 820.46875 728.832031 820.679688 C 728.304688 820.886719 727.765625 821.070312 727.222656 821.226562 C 726.675781 821.382812 726.121094 821.511719 725.5625 821.617188 C 725.003906 821.71875 724.441406 821.792969 723.875 821.84375 C 723.308594 821.890625 722.742188 821.914062 722.171875 821.90625 C 721.605469 821.898438 721.039062 821.867188 720.472656 821.804688 C 719.910156 821.742188 719.347656 821.65625 718.792969 821.539062 C 718.234375 821.425781 717.6875 821.28125 717.144531 821.113281 C 716.601562 820.945312 716.066406 820.75 715.542969 820.527344 C 715.019531 820.308594 714.507812 820.0625 714.007812 819.792969 C 713.507812 819.523438 713.023438 819.230469 712.550781 818.914062 C 712.078125 818.59375 711.625 818.257812 711.183594 817.894531 C 710.746094 817.535156 710.324219 817.152344 709.921875 816.75 C 709.523438 816.347656 709.140625 815.929688 708.777344 815.488281 C 708.417969 815.050781 708.078125 814.597656 707.761719 814.125 C 707.445312 813.652344 707.152344 813.167969 706.882812 812.667969 C 706.609375 812.167969 706.367188 811.65625 706.144531 811.128906 C 705.925781 810.605469 705.730469 810.074219 705.5625 809.53125 C 705.394531 808.988281 705.25 808.4375 705.136719 807.882812 C 705.019531 807.324219 704.929688 806.765625 704.871094 806.199219 C 704.808594 805.636719 704.773438 805.070312 704.769531 804.5 C 704.761719 803.933594 704.785156 803.363281 704.832031 802.796875 C 704.878906 802.230469 704.957031 801.667969 705.058594 801.109375 C 705.164062 800.550781 705.292969 800 705.449219 799.453125 C 705.605469 798.90625 705.789062 798.371094 705.996094 797.839844 C 706.207031 797.3125 706.4375 796.792969 706.699219 796.289062 C 706.957031 795.78125 707.238281 795.289062 707.546875 794.8125 C 707.851562 794.332031 708.179688 793.871094 708.53125 793.421875 C 708.882812 792.976562 709.253906 792.546875 709.648438 792.136719 L 930.5 571.285156 L 924.015625 487.328125 C 923.933594 486.074219 923.980469 484.824219 924.164062 483.578125 C 924.34375 482.335938 924.65625 481.125 925.09375 479.945312 C 925.53125 478.769531 926.085938 477.648438 926.761719 476.589844 C 927.4375 475.527344 928.214844 474.550781 929.097656 473.65625 L 1056.703125 346.050781 C 1057.296875 345.472656 1057.929688 344.933594 1058.601562 344.445312 C 1059.273438 343.953125 1059.972656 343.511719 1060.707031 343.121094 C 1061.441406 342.726562 1062.195312 342.390625 1062.976562 342.105469 C 1063.757812 341.820312 1064.554688 341.589844 1065.367188 341.417969 C 1066.179688 341.242188 1067.003906 341.128906 1067.832031 341.070312 C 1068.660156 341.011719 1069.492188 341.015625 1070.320312 341.074219 C 1071.148438 341.132812 1071.96875 341.25 1072.78125 341.425781 C 1073.59375 341.601562 1074.390625 341.832031 1075.171875 342.121094 C 1075.949219 342.40625 1076.707031 342.746094 1077.4375 343.140625 C 1078.171875 343.535156 1078.871094 343.976562 1079.542969 344.472656 C 1080.210938 344.964844 1080.84375 345.5 1081.4375 346.082031 C 1082.03125 346.664062 1082.582031 347.285156 1083.085938 347.945312 C 1083.59375 348.601562 1084.050781 349.292969 1084.460938 350.019531 C 1084.867188 350.742188 1085.226562 351.492188 1085.527344 352.265625 C 1085.832031 353.039062 1086.078125 353.832031 1086.273438 354.640625 C 1086.464844 355.449219 1086.597656 356.265625 1086.675781 357.09375 L 1092.460938 434.21875 L 1169.582031 440 C 1170.410156 440.078125 1171.226562 440.210938 1172.035156 440.40625 C 1172.847656 440.597656 1173.636719 440.84375 1174.410156 441.148438 C 1175.183594 441.449219 1175.933594 441.808594 1176.65625 442.214844 C 1177.382812 442.625 1178.074219 443.082031 1178.730469 443.589844 C 1179.390625 444.097656 1180.011719 444.644531 1180.59375 445.238281 C 1181.175781 445.832031 1181.710938 446.464844 1182.203125 447.136719 C 1182.695312 447.804688 1183.140625 448.503906 1183.535156 449.238281 C 1183.929688 449.96875 1184.269531 450.726562 1184.554688 451.503906 C 1184.84375 452.285156 1185.074219 453.082031 1185.25 453.894531 C 1185.425781 454.707031 1185.542969 455.527344 1185.601562 456.355469 C 1185.660156 457.1875 1185.664062 458.015625 1185.605469 458.84375 C 1185.546875 459.671875 1185.433594 460.496094 1185.257812 461.308594 C 1185.085938 462.121094 1184.855469 462.917969 1184.570312 463.699219 C 1184.285156 464.480469 1183.949219 465.234375 1183.554688 465.96875 C 1183.164062 466.703125 1182.722656 467.402344 1182.230469 468.074219 C 1181.742188 468.746094 1181.203125 469.378906 1180.625 469.972656 Z M 1180.625 469.972656 " fill-opacity="1" fill-rule="nonzero"/></svg>