<svg xmlns="http://www.w3.org/2000/svg" xmlns:xlink="http://www.w3.org/1999/xlink" width="2000" zoomAndPan="magnify" viewBox="0 0 1500 1499.999933" height="2000" preserveAspectRatio="xMidYMid meet" version="1.0"><defs><clipPath id="1fcae007d0"><path d="M 72.292969 320.085938 L 1427.597656 320.085938 L 1427.597656 1108.042969 L 72.292969 1108.042969 Z M 72.292969 320.085938 " clip-rule="nonzero"/></clipPath></defs><g clip-path="url(#1fcae007d0)"><path fill="#d9d9d9" d="M 1206.078125 891.675781 C 1130.015625 951.28125 1024.695312 1018.949219 905.402344 1053.773438 C 905.261719 1053.242188 905.09375 1052.710938 904.882812 1052.1875 L 894.972656 1030.214844 C 892.054688 1023.753906 884.453125 1020.875 877.992188 1023.785156 C 871.523438 1026.703125 868.644531 1034.304688 871.5625 1040.765625 L 880.460938 1060.511719 C 860.871094 1065.386719 841.035156 1069.246094 821.046875 1072.085938 L 827.90625 1016.210938 C 857.082031 1008.679688 885.023438 996.964844 910.847656 981.429688 L 966.402344 1023.84375 C 972.5625 1028.546875 981.257812 1027.9375 986.703125 1022.429688 L 1061.824219 946.527344 C 1067.300781 940.992188 1067.789062 932.253906 1062.964844 926.148438 L 1020.039062 871.765625 C 1034.902344 846.785156 1046.21875 819.84375 1053.648438 791.722656 L 1121.808594 782.9375 C 1129.503906 781.953125 1135.257812 775.402344 1135.257812 767.652344 L 1135.257812 660.855469 C 1135.257812 653.074219 1129.453125 646.515625 1121.730469 645.570312 L 1055.515625 637.4375 C 1048.683594 608.753906 1037.832031 581.171875 1023.269531 555.539062 L 1063.035156 504.539062 C 1067.800781 498.429688 1067.289062 489.734375 1061.832031 484.226562 L 986.703125 408.324219 C 981.226562 402.789062 972.492188 402.207031 966.332031 406.972656 L 917.699219 444.5625 C 889.777344 426.769531 859.1875 413.539062 827.101562 405.355469 L 821.015625 355.800781 C 845.226562 359.089844 869.207031 363.855469 892.835938 370.050781 C 891.914062 371.125 891.160156 372.339844 890.628906 373.644531 L 881.863281 396.097656 C 879.226562 402.679688 882.425781 410.148438 889.003906 412.789062 C 895.585938 415.425781 903.066406 412.226562 905.695312 405.648438 C 905.722656 405.578125 905.753906 405.507812 905.773438 405.4375 L 914.550781 382.992188 C 915.363281 380.875 915.59375 378.578125 915.222656 376.339844 C 1033.148438 411.695312 1135.589844 477.910156 1209.476562 536.371094 C 1276.214844 589.265625 1337.453125 648.75 1392.265625 713.921875 C 1336.058594 779.003906 1273.707031 838.53125 1206.078125 891.664062 Z M 798.628906 1001.847656 L 790.566406 1067.472656 L 710.941406 1067.472656 L 702.578125 1002.53125 C 701.734375 996.023438 696.859375 990.757812 690.441406 989.421875 C 658.246094 982.722656 627.464844 970.445312 599.503906 953.144531 C 594.269531 949.917969 587.621094 950.109375 582.574219 953.628906 L 528.40625 991.519531 L 472.007812 934.523438 L 510.542969 885.707031 C 514.675781 880.484375 514.976562 873.203125 511.304688 867.65625 C 492.1875 838.839844 478.539062 806.757812 471.035156 772.996094 C 469.613281 766.597656 464.296875 761.804688 457.796875 761.042969 L 397.601562 753.960938 L 397.601562 674.636719 L 456.183594 668.070312 C 462.863281 667.316406 468.289062 662.320312 469.582031 655.722656 C 476.390625 620.941406 489.703125 587.742188 508.816406 557.882812 C 512.328125 552.386719 511.996094 545.265625 507.976562 540.121094 L 471.949219 493.90625 L 527.953125 437.308594 L 573.917969 472.835938 C 579.132812 476.875 586.34375 477.136719 591.84375 473.496094 C 622.011719 453.457031 655.75 439.425781 691.234375 432.15625 C 697.671875 430.832031 702.566406 425.566406 703.410156 419.035156 L 710.941406 360.625 L 790.566406 360.625 L 797.828125 419.757812 C 798.628906 426.246094 803.433594 431.53125 809.832031 432.925781 C 845.609375 440.71875 879.527344 455.414062 909.675781 476.183594 C 915.191406 479.976562 922.535156 479.765625 927.828125 475.671875 L 974.394531 439.675781 L 1030.402344 496.261719 L 992.507812 544.867188 C 988.566406 549.929688 988.175781 556.910156 991.527344 562.386719 C 1008.917969 590.699219 1021.164062 621.863281 1027.703125 654.4375 C 1029.007812 660.949219 1034.34375 665.890625 1040.933594 666.695312 L 1104.449219 674.488281 L 1104.449219 754.109375 L 1039.226562 762.515625 C 1032.828125 763.347656 1027.613281 768.074219 1026.179688 774.371094 C 1018.898438 806.394531 1006.078125 836.90625 988.296875 864.527344 C 984.738281 870.050781 985.085938 877.234375 989.160156 882.398438 L 1030.332031 934.53125 L 974.328125 991.128906 L 921.070312 950.480469 C 915.894531 946.535156 908.8125 946.265625 903.347656 949.796875 C 875.003906 968.210938 843.582031 981.378906 810.585938 988.671875 C 804.214844 990.085938 799.421875 995.359375 798.628906 1001.828125 Z M 615.863281 1063.378906 C 617.546875 1062.007812 618.859375 1060.210938 619.664062 1058.175781 L 628.429688 1035.730469 C 631.015625 1029.121094 627.746094 1021.679688 621.148438 1019.101562 C 614.539062 1016.511719 607.097656 1019.78125 604.519531 1026.382812 L 595.742188 1048.835938 C 594.46875 1052.105469 594.601562 1055.757812 596.09375 1058.9375 C 459.773438 1026.070312 349.800781 954.652344 274.449219 892.117188 C 183.703125 816.804688 125.511719 740.570312 106.976562 714.765625 C 162.039062 649.523438 223.457031 589.917969 290.335938 536.84375 C 366.789062 476.265625 473.535156 407.390625 595.664062 372.949219 C 593.957031 376.359375 593.878906 380.363281 595.433594 383.84375 L 605.332031 405.816406 C 608.25 412.285156 615.851562 415.164062 622.320312 412.246094 C 628.78125 409.335938 631.660156 401.734375 628.75 395.265625 L 618.839844 373.292969 C 617.859375 371.136719 616.292969 369.289062 614.328125 367.976562 C 636.140625 362.511719 658.246094 358.308594 680.542969 355.378906 L 674.222656 404.394531 C 642.429688 412.074219 612.050781 424.714844 584.179688 441.84375 L 536.007812 404.613281 C 529.847656 399.859375 521.113281 400.441406 515.636719 405.96875 L 440.527344 481.871094 C 435.082031 487.367188 434.558594 496.0625 439.324219 502.179688 L 477.113281 550.644531 C 460.898438 578.023438 448.972656 607.710938 441.742188 638.691406 L 380.480469 645.5625 C 372.6875 646.433594 366.789062 653.023438 366.789062 660.867188 L 366.789062 767.660156 C 366.789062 775.472656 372.636719 782.054688 380.398438 782.964844 L 443.566406 790.40625 C 451.320312 820.316406 463.464844 848.898438 479.613281 875.238281 L 439.402344 926.15625 C 434.578125 932.265625 435.0625 941.011719 440.535156 946.535156 L 515.667969 1022.449219 C 520.933594 1027.777344 529.289062 1028.539062 535.4375 1024.246094 L 592.082031 984.617188 C 617.527344 999.230469 644.898438 1010.183594 673.390625 1017.164062 L 680.671875 1073.609375 C 658.910156 1071.285156 637.273438 1067.875 615.863281 1063.378906 Z M 1424.378906 704.644531 C 1421.351562 700.714844 1348.765625 607.421875 1229.195312 512.703125 C 1158.828125 456.949219 1086.835938 412.488281 1015.246094 380.5625 C 925.230469 340.433594 835.578125 320.074219 748.761719 320.074219 C 662.972656 320.074219 574.058594 340.433594 484.527344 380.574219 C 413.328125 412.507812 341.554688 456.957031 271.199219 512.703125 C 151.679688 607.398438 78.59375 700.675781 75.542969 704.605469 C 71.492188 709.8125 71.203125 717.023438 74.832031 722.527344 C 77.429688 726.480469 139.761719 820.175781 254.019531 915.195312 C 321.214844 971.070312 392.414062 1015.621094 465.652344 1047.605469 C 557.492188 1087.703125 652.742188 1108.042969 748.761719 1108.042969 C 833.472656 1108.042969 921.820312 1087.683594 1011.355469 1047.535156 C 1082.523438 1015.621094 1154.617188 971.1875 1225.65625 915.464844 C 1346.328125 820.796875 1421.121094 727.582031 1424.238281 723.671875 C 1428.660156 718.117188 1428.730469 710.261719 1424.378906 704.644531 " fill-opacity="1" fill-rule="nonzero"/></g><path fill="#d9d9d9" d="M 1088.824219 566.199219 L 1066.9375 576.320312 C 1060.507812 579.289062 1057.691406 586.917969 1060.660156 593.359375 C 1063.640625 599.796875 1071.261719 602.605469 1077.699219 599.636719 L 1099.585938 589.527344 C 1106.023438 586.558594 1108.832031 578.925781 1105.863281 572.488281 C 1102.894531 566.058594 1095.261719 563.238281 1088.824219 566.21875 L 1088.824219 566.199219 " fill-opacity="1" fill-rule="nonzero"/><path fill="#d9d9d9" d="M 440.859375 838.480469 C 437.890625 832.039062 430.257812 829.230469 423.816406 832.210938 L 401.933594 842.3125 C 395.496094 845.28125 392.6875 852.902344 395.65625 859.339844 C 398.625 865.78125 406.257812 868.597656 412.695312 865.617188 L 434.578125 855.519531 C 441.019531 852.550781 443.828125 844.917969 440.859375 838.480469 " fill-opacity="1" fill-rule="nonzero"/><path fill="#d9d9d9" d="M 401.933594 589.515625 L 423.816406 599.617188 C 430.15625 602.785156 437.871094 600.21875 441.039062 593.878906 C 444.207031 587.53125 441.640625 579.820312 435.300781 576.648438 C 435.0625 576.539062 434.820312 576.417969 434.570312 576.320312 L 412.683594 566.21875 C 406.246094 563.238281 398.625 566.058594 395.65625 572.488281 C 392.675781 578.925781 395.496094 586.558594 401.921875 589.527344 L 401.933594 589.515625 " fill-opacity="1" fill-rule="nonzero"/><path fill="#d9d9d9" d="M 1099.585938 842.320312 L 1077.699219 832.222656 C 1071.261719 829.242188 1063.640625 832.050781 1060.660156 838.488281 C 1057.691406 844.929688 1060.507812 852.5625 1066.9375 855.53125 L 1088.824219 865.628906 C 1095.261719 868.609375 1102.894531 865.789062 1105.863281 859.351562 C 1108.832031 852.910156 1106.023438 845.289062 1099.585938 842.320312 " fill-opacity="1" fill-rule="nonzero"/><path fill="#d9d9d9" d="M 748.761719 923.109375 C 631.546875 923.109375 536.527344 828.089844 536.527344 710.875 C 536.527344 593.667969 631.546875 498.648438 748.761719 498.648438 C 865.976562 498.648438 960.996094 593.667969 960.996094 710.875 C 960.867188 828.039062 865.925781 922.976562 748.761719 923.109375 Z M 991.808594 710.875 C 991.808594 576.648438 882.996094 467.839844 748.761719 467.839844 C 614.539062 467.839844 505.71875 576.648438 505.71875 710.875 C 505.71875 845.109375 614.539062 953.917969 748.761719 953.917969 C 882.9375 953.769531 991.65625 845.046875 991.808594 710.875 " fill-opacity="1" fill-rule="nonzero"/><path fill="#d9d9d9" d="M 748.761719 799.707031 C 699.699219 799.714844 659.921875 759.949219 659.910156 710.882812 C 659.902344 661.820312 699.667969 622.03125 748.734375 622.03125 C 797.796875 622.023438 837.585938 661.789062 837.59375 710.855469 C 837.59375 710.863281 837.59375 710.863281 837.59375 710.875 C 837.523438 759.910156 797.796875 799.636719 748.761719 799.695312 Z M 748.761719 591.242188 C 682.6875 591.234375 629.113281 644.800781 629.101562 710.875 C 629.089844 776.957031 682.660156 830.535156 748.734375 830.535156 C 814.816406 830.546875 868.394531 776.988281 868.40625 710.902344 C 868.40625 710.902344 868.40625 710.894531 868.40625 710.894531 C 868.324219 644.851562 814.808594 591.324219 748.761719 591.242188 " fill-opacity="1" fill-rule="nonzero"/></svg>